<svg width="36" height="36" viewBox="0 0 36 36" fill="none" xmlns="http://www.w3.org/2000/svg">
<rect width="36" height="36" rx="18" fill="white"/>
<path d="M16.6086 7.23445L6.94946 11.2444C6.41233 11.4673 6.41789 12.2328 6.95847 12.4478L16.6579 16.3068C17.5101 16.6459 18.4592 16.6459 19.3115 16.3068L29.0111 12.4477C29.5515 12.2329 29.5572 11.4674 29.0198 11.2444L19.3609 7.23435C18.4797 6.86854 17.4898 6.86854 16.6086 7.23435" fill="#FFBF00"/>
<path d="M18.8453 18.4139V28.0542C18.8453 28.5128 19.306 28.8267 19.7308 28.6578L30.5391 24.4488C30.6596 24.4008 30.763 24.3177 30.8359 24.2101C30.9087 24.1025 30.9476 23.9754 30.9476 23.8453V14.2049C30.9476 13.7464 30.4868 13.4325 30.062 13.6014L19.2538 17.8103C19.1332 17.8583 19.0298 17.9415 18.957 18.0491C18.8841 18.1567 18.8452 18.2838 18.8452 18.4139" fill="#26B5F8"/>
<path d="M16.3216 18.9114L13.114 20.4652L12.7883 20.6231L6.0171 23.8781C5.5879 24.0858 5.04004 23.7721 5.04004 23.2937V14.2454C5.04004 14.0723 5.12853 13.9228 5.2472 13.8103C5.29581 13.7617 5.35095 13.7203 5.41102 13.6871C5.57282 13.5896 5.80367 13.5636 5.99989 13.6416L16.2677 17.7231C16.7896 17.9308 16.8306 18.6645 16.3216 18.9113" fill="#ED3049"/>
<path d="M16.3216 18.9115L13.114 20.4653L5.24707 13.8105C5.29569 13.762 5.35083 13.7205 5.41089 13.6873C5.57269 13.5899 5.80354 13.5639 5.99976 13.6418L16.2675 17.7233C16.7895 17.9311 16.8305 18.6648 16.3215 18.9115" fill="black" fill-opacity="0.25"/>
</svg>
