<svg width="184" height="42" viewBox="0 0 184 42" fill="none" xmlns="http://www.w3.org/2000/svg">
<g clip-path="url(#clip0_2909_16032)">
<path d="M89.7144 10.9556C85.9846 10.9556 82.2963 12.5685 79.4911 15.7526V0.0837402H73.9326V26.4673C73.9326 35.0349 80.8209 41.979 89.3196 41.979C97.8183 41.979 104.707 35.0349 104.707 26.4673C104.707 17.8997 98.2131 10.9556 89.7144 10.9556ZM89.3092 35.9984C84.0833 35.9984 79.8547 31.7251 79.8547 26.4673C79.8547 21.2094 84.0937 16.9361 89.3092 16.9361C94.5352 16.9361 98.7638 21.2094 98.7638 26.4673C98.7638 31.7251 94.5352 35.9984 89.3092 35.9984Z" fill="black"/>
<path d="M124.177 10.9556C120.447 10.9556 116.759 12.5685 113.953 15.7526V0.0837402H108.395V26.4673C108.395 35.0349 115.283 41.979 123.782 41.979C132.281 41.979 139.169 35.0349 139.169 26.4673C139.169 17.8997 132.665 10.9556 124.177 10.9556ZM123.772 35.9984C118.546 35.9984 114.317 31.7251 114.317 26.4673C114.317 21.2094 118.556 16.9361 123.772 16.9361C128.998 16.9361 133.226 21.2094 133.226 26.4673C133.226 31.7251 128.998 35.9984 123.772 35.9984Z" fill="black"/>
<path d="M42.6392 29.18V11.7935H48.6028V29.1276C48.6028 33.558 51.1482 36.3965 55.4392 36.3965C59.782 36.3965 62.2755 33.6628 62.2755 29.1276V11.7935H68.2911V29.18C68.2911 37.2134 63.4599 41.9685 55.4392 41.9685C47.6262 41.979 42.6392 37.0563 42.6392 29.18Z" fill="black"/>
<path d="M149.922 41.2668H143.958V0.0837402H149.922V41.2668Z" fill="black"/>
<path d="M183.688 28.8554H160.862C161.735 33.4429 164.925 36.5641 170.566 36.5641C173.87 36.5641 177.891 35.3072 180.488 33.3905L182.982 37.8209C180 40.0623 175.283 41.9162 170.348 41.9162C159.398 41.9162 154.681 34.2075 154.681 26.4464C154.681 22.016 156.031 18.3606 158.805 15.4594C161.569 12.5581 165.205 11.0813 169.6 11.0813C173.777 11.0813 177.247 12.3905 179.907 15.0718C182.566 17.7531 183.917 21.3561 183.917 25.9541C183.896 26.7815 183.844 27.7661 183.688 28.8554ZM160.852 23.9327H177.881C177.392 19.2823 173.974 16.2763 169.579 16.2763C165.081 16.2763 161.725 19.3451 160.852 23.9327Z" fill="black"/>
<path d="M23.6985 10.9556C19.9686 10.9556 16.2803 12.5685 13.4751 15.7526V0.0837402H7.90625V26.4673C7.90625 35.0349 14.7946 41.979 23.2933 41.979C31.792 41.979 38.6803 35.0349 38.6803 26.4673C38.6803 17.8997 32.1868 10.9556 23.6985 10.9556ZM23.2933 35.9984C18.0673 35.9984 13.8387 31.7251 13.8387 26.4673C13.8387 21.2094 18.0777 16.9361 23.2933 16.9361C28.5192 16.9361 32.7478 21.2094 32.7478 26.4673C32.7478 31.7251 28.5192 35.9984 23.2933 35.9984Z" fill="black"/>
<path d="M3.8651 41.9686C5.96521 41.9686 7.6677 40.2524 7.6677 38.1352C7.6677 36.018 5.96521 34.3018 3.8651 34.3018C1.76499 34.3018 0.0625 36.018 0.0625 38.1352C0.0625 40.2524 1.76499 41.9686 3.8651 41.9686Z" fill="#0000FF"/>
</g>
<defs>
<clipPath id="clip0_2909_16032">
<rect width="184" height="42" fill="white"/>
</clipPath>
</defs>
</svg>
