<svg width="36" height="36" viewBox="0 0 36 36" fill="none" xmlns="http://www.w3.org/2000/svg">
<rect width="36" height="36" rx="18" fill="white"/>
<path d="M22.8 23.52C25.451 23.52 27.6 21.371 27.6 18.72C27.6 16.069 25.451 13.92 22.8 13.92C20.149 13.92 18 16.069 18 18.72C18 21.371 20.149 23.52 22.8 23.52Z" fill="#19BCFE"/>
<path fill-rule="evenodd" clip-rule="evenodd" d="M13.1999 33.12C14.4729 33.12 15.6938 32.6143 16.594 31.7141C17.4942 30.8139 17.9999 29.593 17.9999 28.32V23.52H13.1999C11.9269 23.52 10.706 24.0257 9.80579 24.9259C8.90562 25.8261 8.3999 27.047 8.3999 28.32C8.3999 29.593 8.90562 30.8139 9.80579 31.7141C10.706 32.6143 11.9269 33.12 13.1999 33.12Z" fill="#09CF83"/>
<path fill-rule="evenodd" clip-rule="evenodd" d="M13.1999 23.52H17.9999V13.92H13.1999C11.9269 13.92 10.706 14.4257 9.80579 15.3259C8.90562 16.2261 8.3999 17.447 8.3999 18.72C8.3999 19.993 8.90562 21.2139 9.80579 22.1141C10.706 23.0143 11.9269 23.52 13.1999 23.52Z" fill="#A259FF"/>
<path fill-rule="evenodd" clip-rule="evenodd" d="M13.1999 13.92H17.9999V4.32001H13.1999C11.9269 4.32001 10.706 4.82572 9.80579 5.72589C8.90562 6.62607 8.3999 7.84697 8.3999 9.12001C8.3999 10.393 8.90562 11.6139 9.80579 12.5141C10.706 13.4143 11.9269 13.92 13.1999 13.92Z" fill="#F24E1E"/>
<path fill-rule="evenodd" clip-rule="evenodd" d="M22.8 13.92H18V4.32001H22.8C24.073 4.32001 25.2939 4.82572 26.1941 5.72589C27.0943 6.62607 27.6 7.84697 27.6 9.12001C27.6 10.393 27.0943 11.6139 26.1941 12.5141C25.2939 13.4143 24.073 13.92 22.8 13.92Z" fill="#FF7262"/>
</svg>
