<svg width="106" height="50" viewBox="0 0 106 50" fill="none" xmlns="http://www.w3.org/2000/svg">
<path d="M8.4389 50C13.0918 50 16.869 46.2674 16.869 41.6695V33.3391H8.4389C3.78597 33.3391 0.00878906 37.0716 0.00878906 41.6695C0.00878906 46.2674 3.78597 50 8.4389 50Z" fill="#0ACF83"/>
<path d="M0 25C0 20.4021 3.77718 16.6696 8.43011 16.6696H16.8602V33.3391H8.43011C3.77718 33.3391 0 29.6066 0 25.0087V25Z" fill="#A259FF"/>
<path d="M0 8.33042C0 3.73252 3.77718 0 8.43011 0H16.8602V16.6696H8.43011C3.77718 16.6696 0 12.9371 0 8.33916V8.33042Z" fill="#F24E1E"/>
<path d="M16.7896 0H25.2197C29.8726 0 33.6498 3.73252 33.6498 8.33042C33.6498 12.9283 29.8726 16.6608 25.2197 16.6608H16.7896V0Z" fill="#FF7262"/>
<path d="M33.7382 25C33.7382 29.5979 29.961 33.3304 25.3081 33.3304C20.6552 33.3304 16.7896 29.5979 16.7896 25C16.7896 20.4021 20.5667 16.6696 25.2197 16.6696C29.8726 16.6696 33.6498 20.4021 33.6498 25H33.7382Z" fill="#1ABCFE"/>
<path d="M42.9556 13.8112V31.2762H45.229V22.937H50.6957V20.7692H45.229V15.9965H52.3322V13.8112H42.9556ZM56.4455 17.3601C57.2682 17.3601 57.9316 16.7045 57.9316 15.8916C57.9316 15.0786 57.2593 14.5105 56.4455 14.5105C55.6317 14.5105 54.9594 15.1661 54.9594 15.979C54.9594 16.3723 55.1186 16.7395 55.4017 17.0279C55.6848 17.3164 56.0563 17.465 56.4632 17.465L56.4455 17.3601ZM55.2955 19.5629V31.2762H57.4805V19.5629H55.2248H55.2955ZM66.0167 19.2133C62.9914 19.2133 60.8861 21.8356 60.8861 24.7377C60.8861 27.6398 63.0091 30.2447 66.0167 30.2447C66.6426 30.2556 67.2638 30.1376 67.841 29.8983C68.4182 29.659 68.9386 29.3037 69.3693 28.8549V30.4108C69.363 31.3457 68.996 32.2429 68.3432 32.9196C68.0134 33.252 67.6197 33.5161 67.1853 33.6962C66.7509 33.8763 66.2844 33.9689 65.8133 33.9685C65.0899 33.9459 64.3889 33.715 63.7964 33.3042L62.6465 35.2535C63.5296 35.8147 64.5495 36.1302 65.5988 36.1667C66.6482 36.2033 67.688 35.9595 68.6089 35.4611C69.5298 34.9627 70.2977 34.2281 70.8316 33.3347C71.3655 32.4413 71.6457 31.4221 71.6427 30.3846V19.5454H69.3693V20.5944C68.9386 20.1456 68.4182 19.7902 67.841 19.5509C67.2638 19.3117 66.6426 19.1937 66.0167 19.2045V19.2133ZM63.1684 24.7377C63.1166 24.1694 63.2266 23.5981 63.4861 23.0884C63.7456 22.5787 64.1441 22.1508 64.6368 21.8531C65.6452 21.2412 66.9102 21.2412 67.9097 21.8531C68.9093 22.465 69.4755 23.5839 69.3782 24.7377C69.43 25.306 69.3199 25.8773 69.0604 26.3871C68.8009 26.8968 68.4024 27.3247 67.9097 27.6224C66.9013 28.2342 65.6364 28.2342 64.6368 27.6224C63.6372 27.0105 63.0711 25.8916 63.1684 24.7377Z" fill="black"/>
<path d="M79.8429 21.5035C79.1891 21.5058 78.5627 21.7635 78.1004 22.2204C77.638 22.6772 77.3773 23.2962 77.3749 23.9423V31.3549H75.1016V19.6416H77.3749V20.6294C78.0649 19.7203 79.1618 19.1958 80.3118 19.2133C81.7625 19.1783 83.1159 19.9476 83.8324 21.1976C84.717 19.9738 85.9908 19.2308 87.3708 19.2133C89.9626 19.2133 91.5726 21.2762 91.5814 23.8287V31.285H89.308V23.8549C89.3747 23.3921 89.3057 22.9201 89.1095 22.4947C88.9132 22.0693 88.5977 21.7084 88.2004 21.4547C87.8031 21.2009 87.3405 21.0649 86.8674 21.0627C86.3944 21.0605 85.9305 21.1922 85.5308 21.4423C85.1334 21.6984 84.8187 22.0619 84.6242 22.4896C84.4298 22.9173 84.3637 23.3912 84.4339 23.8549V31.2675H82.249V23.8637C82.2467 23.2175 81.9859 22.5986 81.5236 22.1417C81.0612 21.6848 80.4349 21.4271 79.781 21.4248L79.8429 21.5035ZM103.727 20.8916C103.209 20.3581 102.587 19.9347 101.898 19.6476C101.209 19.3605 100.467 19.2156 99.7196 19.222C96.3316 19.222 93.9698 22.0542 93.9698 25.3409C93.9698 28.6276 96.3582 31.4598 99.7196 31.4598C100.467 31.4662 101.209 31.3214 101.898 31.0343C102.587 30.7472 103.209 30.3238 103.727 29.7902V31.1189H106V19.4056H103.727V20.8916ZM96.2078 25.4371C96.0928 24.0385 96.7828 22.6923 97.9947 21.9581C99.2065 21.2238 100.648 21.2238 101.94 21.9581C102.531 22.3208 103.011 22.8371 103.326 23.4505C103.641 24.064 103.78 24.7511 103.727 25.4371C103.842 26.8357 103.152 28.1818 101.94 28.9161C100.728 29.6504 99.2861 29.6504 97.9947 28.9161C97.4031 28.5533 96.9237 28.0371 96.6087 27.4236C96.2936 26.8102 96.1549 26.123 96.2078 25.4371Z" fill="black"/>
</svg>
