<svg width="217" height="74" viewBox="0 0 217 74" fill="none" xmlns="http://www.w3.org/2000/svg">
<rect x="0.020752" width="216" height="74" rx="8" fill="#F3F3F5"/>
<g clip-path="url(#clip0_2337_5733)">
<path d="M105.735 26.9556C102.005 26.9556 98.3169 28.5686 95.5117 31.7526V16.0838H89.9532V42.4673C89.9532 51.0349 96.8416 57.9791 105.34 57.9791C113.839 57.9791 120.727 51.0349 120.727 42.4673C120.727 33.8998 114.234 26.9556 105.735 26.9556ZM105.33 51.9985C100.104 51.9985 95.8753 47.7252 95.8753 42.4673C95.8753 37.2095 100.114 32.9362 105.33 32.9362C110.556 32.9362 114.784 37.2095 114.784 42.4673C114.784 47.7252 110.556 51.9985 105.33 51.9985Z" fill="black"/>
<path d="M140.197 26.9556C136.467 26.9556 132.779 28.5686 129.974 31.7526V16.0838H124.416V42.4673C124.416 51.0349 131.304 57.9791 139.803 57.9791C148.301 57.9791 155.19 51.0349 155.19 42.4673C155.19 33.8998 148.686 26.9556 140.197 26.9556ZM139.792 51.9985C134.566 51.9985 130.338 47.7252 130.338 42.4673C130.338 37.2095 134.577 32.9362 139.792 32.9362C145.018 32.9362 149.247 37.2095 149.247 42.4673C149.247 47.7252 145.018 51.9985 139.792 51.9985Z" fill="black"/>
<path d="M58.6597 45.1801V27.7935H64.6233V45.1277C64.6233 49.5581 67.1688 52.3965 71.4597 52.3965C75.8025 52.3965 78.296 49.6628 78.296 45.1277V27.7935H84.3116V45.1801C84.3116 53.2135 79.4804 57.9686 71.4597 57.9686C63.6467 57.9791 58.6597 53.0564 58.6597 45.1801Z" fill="black"/>
<path d="M165.943 57.2668H159.979V16.0838H165.943V57.2668Z" fill="black"/>
<path d="M199.709 44.8554H176.883C177.756 49.4429 180.945 52.5641 186.587 52.5641C189.891 52.5641 193.912 51.3072 196.509 49.3905L199.003 53.8209C196.021 56.0623 191.304 57.9162 186.369 57.9162C175.418 57.9162 170.701 50.2075 170.701 42.4464C170.701 38.016 172.052 34.3606 174.826 31.4594C177.59 28.5581 181.226 27.0813 185.621 27.0813C189.797 27.0813 193.268 28.3905 195.927 31.0718C198.587 33.7531 199.938 37.3561 199.938 41.9541C199.917 42.7815 199.865 43.7661 199.709 44.8554ZM176.873 39.9327H193.901C193.413 35.2823 189.995 32.2763 185.6 32.2763C181.101 32.2763 177.745 35.3451 176.873 39.9327Z" fill="black"/>
<path d="M39.7195 26.9556C35.9896 26.9556 32.3013 28.5686 29.4961 31.7526V16.0838H23.9272V42.4673C23.9272 51.0349 30.8156 57.9791 39.3143 57.9791C47.813 57.9791 54.7013 51.0349 54.7013 42.4673C54.7013 33.8998 48.2078 26.9556 39.7195 26.9556ZM39.3143 51.9985C34.0883 51.9985 29.8597 47.7252 29.8597 42.4673C29.8597 37.2095 34.0987 32.9362 39.3143 32.9362C44.5402 32.9362 48.7688 37.2095 48.7688 42.4673C48.7688 47.7252 44.5402 51.9985 39.3143 51.9985Z" fill="black"/>
<path d="M19.8857 57.9686C21.9858 57.9686 23.6883 56.2524 23.6883 54.1352C23.6883 52.018 21.9858 50.3018 19.8857 50.3018C17.7856 50.3018 16.0831 52.018 16.0831 54.1352C16.0831 56.2524 17.7856 57.9686 19.8857 57.9686Z" fill="#0000FF"/>
</g>
<defs>
<clipPath id="clip0_2337_5733">
<rect width="184" height="42" fill="white" transform="translate(16.0208 16)"/>
</clipPath>
</defs>
</svg>
