<svg width="136" height="74" viewBox="0 0 136 74" fill="none" xmlns="http://www.w3.org/2000/svg">
<rect x="0.020752" width="135" height="74" rx="8" fill="#F3F3F5"/>
<g clip-path="url(#clip0_2337_5737)">
<path fill-rule="evenodd" clip-rule="evenodd" d="M16.0208 16.048C16.0208 16.048 20.0769 15.514 22.781 18.013C24.4493 19.555 24.9353 22.012 24.9353 22.012L30.4582 44.44L35.0496 26.0815C35.4979 24.13 36.303 21.718 37.5782 20.086C39.2045 18.0085 42.5077 17.878 42.8602 17.878C43.2113 17.878 46.5146 18.0085 48.1393 20.086C49.416 21.718 50.2211 24.13 50.6694 26.0815L55.2608 44.44L60.7822 22.0105C60.7822 22.0105 61.2697 19.5535 62.938 18.0115C65.6421 15.514 69.6968 16.048 69.6968 16.048L59.1226 57.9655C59.1226 57.9655 55.6351 58.2295 53.8899 57.2965C51.5978 56.0725 50.5069 55.126 49.1186 49.423L48.9749 48.8305C48.4687 46.732 47.694 43.4455 46.9091 40.111L46.6741 39.1105L46.4391 38.1145C45.309 33.3175 44.2674 28.9 44.1006 28.339C43.9439 27.8125 43.7582 26.5585 42.8602 26.5585C41.9797 26.5585 41.778 27.814 41.617 28.339C41.4284 28.957 40.1808 34.2715 38.9245 39.61L38.6895 40.6105C38.0475 43.3521 37.399 46.0921 36.7441 48.8305L36.599 49.423C35.2121 55.126 34.1212 56.0725 31.8291 57.2965C30.0824 58.2295 26.5949 57.9655 26.5949 57.9655L16.0208 16.048ZM79.8488 23.5V24.9925L79.8517 24.991V49.933C79.8314 55.0525 79.3106 56.188 77.0475 57.367C75.2878 58.282 72.5982 57.9355 72.5982 57.9355V29.998C72.5982 28.5955 73.0552 27.676 74.7409 26.851C75.7462 26.3575 76.6848 25.981 77.6597 25.4215C79.1844 24.5545 79.8488 23.5 79.8488 23.5ZM82.7531 16.1875C82.7531 16.1875 88.3775 15.178 91.1629 17.848C92.9443 19.558 94.9376 22.633 94.9376 22.633L99.841 30.0805C100.079 30.4675 100.389 30.8905 100.885 30.8905C101.383 30.8905 101.695 30.4675 101.933 30.0805L106.836 22.633C106.836 22.633 108.83 19.558 110.611 17.848C113.396 15.178 119.021 16.1875 119.021 16.1875L105.695 37.072L118.984 57.8935L118.938 57.8995C118.387 57.967 113.083 58.534 110.444 56.0005C108.661 54.2935 106.836 51.5125 106.836 51.5125L101.933 44.0665C101.695 43.6765 101.383 43.2565 100.887 43.2565C100.389 43.2565 100.079 43.6765 99.841 44.0665L94.9376 51.5125C94.9376 51.5125 93.2113 54.2935 91.4298 56.0005C88.6445 58.675 82.788 57.8935 82.788 57.8935L96.0779 37.0735L82.7531 16.1875ZM79.7937 16H79.8517C79.8517 18.865 79.5819 20.563 77.8396 21.8845C77.0263 22.5029 76.135 23.0036 75.1906 23.3725C73.6413 23.956 72.5982 25 72.5982 25C72.5982 19.786 73.3671 17.899 75.4271 16.78C76.6819 16.102 78.7231 16.009 79.5181 16H79.7937Z" fill="black"/>
</g>
<defs>
<clipPath id="clip0_2337_5737">
<rect width="103" height="42" fill="white" transform="translate(16.0208 16)"/>
</clipPath>
</defs>
</svg>
