<svg width="169" height="74" viewBox="0 0 169 74" fill="none" xmlns="http://www.w3.org/2000/svg">
<rect x="0.020752" width="168" height="74" rx="8" fill="#F3F3F5"/>
<path d="M39.4596 62C44.1126 62 47.8898 58.2675 47.8898 53.6696V45.3392H39.4596C34.8067 45.3392 31.0295 49.0717 31.0295 53.6696C31.0295 58.2675 34.8067 62 39.4596 62Z" fill="#0ACF83"/>
<path d="M31.0208 37C31.0208 32.4021 34.7979 28.6696 39.4509 28.6696H47.881V45.3391H39.4509C34.7979 45.3391 31.0208 41.6066 31.0208 37.0087V37Z" fill="#A259FF"/>
<path d="M31.0208 20.3304C31.0208 15.7325 34.7979 12 39.4509 12H47.881V28.6696H39.4509C34.7979 28.6696 31.0208 24.9371 31.0208 20.3392V20.3304Z" fill="#F24E1E"/>
<path d="M47.8103 12H56.2404C60.8933 12 64.6705 15.7325 64.6705 20.3304C64.6705 24.9283 60.8933 28.6608 56.2404 28.6608H47.8103V12Z" fill="#FF7262"/>
<path d="M64.759 37C64.759 41.5979 60.9818 45.3304 56.3289 45.3304C51.6759 45.3304 47.8103 41.5979 47.8103 37C47.8103 32.4021 51.5875 28.6696 56.2404 28.6696C60.8933 28.6696 64.6705 32.4021 64.6705 37H64.759Z" fill="#1ABCFE"/>
<path d="M73.9763 25.8112V43.2762H76.2497V34.937H81.7164V32.7692H76.2497V27.9965H83.3529V25.8112H73.9763ZM87.4663 29.3601C88.2889 29.3601 88.9524 28.7045 88.9524 27.8916C88.9524 27.0786 88.2801 26.5105 87.4663 26.5105C86.6524 26.5105 85.9802 27.1661 85.9802 27.979C85.9802 28.3723 86.1394 28.7395 86.4225 29.0279C86.7055 29.3164 87.077 29.465 87.484 29.465L87.4663 29.3601ZM86.3163 31.5629V43.2762H88.5012V31.5629H86.2455H86.3163ZM97.0375 31.2133C94.0122 31.2133 91.9069 33.8356 91.9069 36.7377C91.9069 39.6398 94.0299 42.2447 97.0375 42.2447C97.6633 42.2556 98.2846 42.1376 98.8617 41.8983C99.4389 41.659 99.9594 41.3037 100.39 40.8549V42.4108C100.384 43.3457 100.017 44.2429 99.364 44.9196C99.0342 45.252 98.6405 45.5161 98.2061 45.6962C97.7716 45.8763 97.3052 45.9689 96.834 45.9685C96.1106 45.9459 95.4096 45.715 94.8172 45.3042L93.6672 47.2535C94.5503 47.8147 95.5703 48.1302 96.6196 48.1667C97.6689 48.2033 98.7088 47.9595 99.6297 47.4611C100.551 46.9627 101.318 46.2281 101.852 45.3347C102.386 44.4413 102.666 43.4221 102.663 42.3846V31.5454H100.39V32.5944C99.9594 32.1456 99.4389 31.7902 98.8617 31.5509C98.2846 31.3117 97.6633 31.1937 97.0375 31.2045V31.2133ZM94.1891 36.7377C94.1373 36.1694 94.2474 35.5981 94.5068 35.0884C94.7663 34.5787 95.1649 34.1508 95.6575 33.8531C96.666 33.2412 97.9309 33.2412 98.9305 33.8531C99.9301 34.465 100.496 35.5839 100.399 36.7377C100.451 37.306 100.341 37.8773 100.081 38.3871C99.8217 38.8968 99.4231 39.3247 98.9305 39.6224C97.9221 40.2342 96.6571 40.2342 95.6575 39.6224C94.6579 39.0105 94.0918 37.8916 94.1891 36.7377Z" fill="black"/>
<path d="M110.863 33.5035C110.21 33.5058 109.583 33.7635 109.121 34.2204C108.659 34.6772 108.398 35.2962 108.395 35.9423V43.3549H106.122V31.6416H108.395V32.6294C109.085 31.7203 110.182 31.1958 111.332 31.2133C112.783 31.1783 114.136 31.9476 114.853 33.1976C115.738 31.9738 117.011 31.2308 118.391 31.2133C120.983 31.2133 122.593 33.2762 122.602 35.8287V43.285H120.329V35.8549C120.395 35.3921 120.326 34.9201 120.13 34.4947C119.934 34.0693 119.618 33.7084 119.221 33.4547C118.824 33.2009 118.361 33.0649 117.888 33.0627C117.415 33.0605 116.951 33.1922 116.551 33.4423C116.154 33.6984 115.839 34.0619 115.645 34.4896C115.45 34.9173 115.384 35.3912 115.454 35.8549V43.2675H113.27V35.8637C113.267 35.2175 113.006 34.5986 112.544 34.1417C112.082 33.6848 111.455 33.4271 110.802 33.4248L110.863 33.5035ZM134.747 32.8916C134.23 32.3581 133.607 31.9347 132.918 31.6476C132.229 31.3605 131.488 31.2156 130.74 31.222C127.352 31.222 124.99 34.0542 124.99 37.3409C124.99 40.6276 127.379 43.4598 130.74 43.4598C131.488 43.4662 132.229 43.3214 132.918 43.0343C133.607 42.7472 134.23 42.3238 134.747 41.7902V43.1189H137.021V31.4056H134.747V32.8916ZM127.228 37.4371C127.113 36.0385 127.803 34.6923 129.015 33.9581C130.227 33.2238 131.669 33.2238 132.96 33.9581C133.552 34.3208 134.031 34.8371 134.346 35.4505C134.661 36.064 134.8 36.7511 134.747 37.4371C134.862 38.8357 134.172 40.1818 132.96 40.9161C131.749 41.6504 130.307 41.6504 129.015 40.9161C128.424 40.5533 127.944 40.0371 127.629 39.4236C127.314 38.8102 127.175 38.123 127.228 37.4371Z" fill="black"/>
</svg>
