<svg width="877" height="266" viewBox="0 0 877 266" fill="none" xmlns="http://www.w3.org/2000/svg">
<rect x="0.5" y="0.5" width="876" height="265" rx="16.5" fill="white"/>
<path d="M24.168 35.2598C24.168 35.0059 24.1452 34.7747 24.0996 34.5664C24.054 34.3581 23.9564 34.166 23.8066 33.9902C23.6634 33.8145 23.4518 33.6387 23.1719 33.4629C22.8984 33.2871 22.5404 33.1048 22.0977 32.916C21.5703 32.6947 21.0592 32.4603 20.5645 32.2129C20.0697 31.959 19.6237 31.666 19.2266 31.334C18.8294 31.002 18.5137 30.6113 18.2793 30.1621C18.0514 29.7064 17.9375 29.1725 17.9375 28.5605C17.9375 27.9616 18.0449 27.418 18.2598 26.9297C18.4811 26.4414 18.7936 26.0247 19.1973 25.6797C19.6009 25.3281 20.0729 25.0579 20.6133 24.8691C21.1602 24.6803 21.7689 24.5859 22.4395 24.5859C23.3509 24.5859 24.1387 24.7747 24.8027 25.1523C25.4733 25.5299 25.9909 26.0475 26.3555 26.7051C26.7266 27.3626 26.9121 28.1178 26.9121 28.9707H24.0605C24.0605 28.5671 24.002 28.2122 23.8848 27.9062C23.7741 27.5938 23.5951 27.3496 23.3477 27.1738C23.1003 26.998 22.7812 26.9102 22.3906 26.9102C22.026 26.9102 21.7233 26.985 21.4824 27.1348C21.248 27.278 21.0723 27.4766 20.9551 27.7305C20.8444 27.9779 20.7891 28.2578 20.7891 28.5703C20.7891 28.8047 20.8444 29.0163 20.9551 29.2051C21.0723 29.3874 21.2318 29.5534 21.4336 29.7031C21.6354 29.8464 21.873 29.9863 22.1465 30.123C22.4264 30.2598 22.7324 30.3932 23.0645 30.5234C23.709 30.7773 24.2786 31.0573 24.7734 31.3633C25.2682 31.6628 25.6816 32.0013 26.0137 32.3789C26.3457 32.75 26.5964 33.1699 26.7656 33.6387C26.9349 34.1074 27.0195 34.6413 27.0195 35.2402C27.0195 35.8327 26.9154 36.373 26.707 36.8613C26.5052 37.3431 26.209 37.7598 25.8184 38.1113C25.4277 38.4564 24.9557 38.7233 24.4023 38.9121C23.8555 39.1009 23.2435 39.1953 22.5664 39.1953C21.9089 39.1953 21.2871 39.1042 20.7012 38.9219C20.1152 38.7331 19.5977 38.4499 19.1484 38.0723C18.7057 37.6882 18.3574 37.2031 18.1035 36.6172C17.8496 36.0247 17.7227 35.3249 17.7227 34.5176H20.584C20.584 34.9473 20.6263 35.3151 20.7109 35.6211C20.7956 35.9206 20.9258 36.1615 21.1016 36.3438C21.2773 36.5195 21.4922 36.653 21.7461 36.7441C22.0065 36.8288 22.3027 36.8711 22.6348 36.8711C23.0124 36.8711 23.3118 36.7995 23.5332 36.6562C23.7611 36.513 23.9238 36.321 24.0215 36.0801C24.1191 35.8392 24.168 35.5658 24.168 35.2598ZM33.4746 36.5684V31.6855C33.4746 31.3665 33.4355 31.1126 33.3574 30.9238C33.2858 30.735 33.1751 30.5983 33.0254 30.5137C32.8822 30.4225 32.7064 30.377 32.498 30.377C32.2637 30.377 32.0684 30.4258 31.9121 30.5234C31.7559 30.6211 31.6387 30.7611 31.5605 30.9434C31.4889 31.1257 31.4531 31.3438 31.4531 31.5977H28.709C28.709 31.1419 28.7969 30.7122 28.9727 30.3086C29.1484 29.8984 29.4056 29.5404 29.7441 29.2344C30.0892 28.9219 30.4993 28.6777 30.9746 28.502C31.4499 28.3262 31.9837 28.2383 32.5762 28.2383C33.2793 28.2383 33.9043 28.3587 34.4512 28.5996C34.998 28.834 35.431 29.2083 35.75 29.7227C36.069 30.237 36.2285 30.9043 36.2285 31.7246V36.4316C36.2285 37.0241 36.2578 37.5059 36.3164 37.877C36.3815 38.248 36.4759 38.5671 36.5996 38.834V39H33.8457C33.722 38.707 33.6276 38.3424 33.5625 37.9062C33.5039 37.4635 33.4746 37.0176 33.4746 36.5684ZM33.8066 32.5449L33.8164 34.1855H32.8105C32.5501 34.1855 32.3223 34.2279 32.127 34.3125C31.9382 34.3971 31.7786 34.5176 31.6484 34.6738C31.5182 34.8236 31.4206 34.9993 31.3555 35.2012C31.2969 35.403 31.2676 35.6178 31.2676 35.8457C31.2676 36.0996 31.3034 36.3145 31.375 36.4902C31.4466 36.666 31.554 36.7995 31.6973 36.8906C31.8405 36.9818 32.0098 37.0273 32.2051 37.0273C32.5046 37.0273 32.765 36.9655 32.9863 36.8418C33.2077 36.7181 33.3704 36.5684 33.4746 36.3926C33.5853 36.2168 33.6211 36.054 33.582 35.9043L34.207 36.9688C34.1289 37.2096 34.0215 37.4603 33.8848 37.7207C33.7546 37.9811 33.5885 38.222 33.3867 38.4434C33.1849 38.6647 32.9342 38.847 32.6348 38.9902C32.3418 39.127 31.9935 39.1953 31.5898 39.1953C31.0234 39.1953 30.5059 39.0651 30.0371 38.8047C29.5684 38.5443 29.1973 38.1797 28.9238 37.7109C28.6569 37.2422 28.5234 36.6855 28.5234 36.041C28.5234 35.5072 28.6081 35.0254 28.7773 34.5957C28.9531 34.1595 29.2135 33.7917 29.5586 33.4922C29.9036 33.1862 30.3398 32.9518 30.8672 32.7891C31.3945 32.6263 32.013 32.5449 32.7227 32.5449H33.8066ZM41.1211 24V39H38.377V24H41.1211ZM47.5469 39.1953C46.8242 39.1953 46.1829 39.0846 45.623 38.8633C45.0697 38.6419 44.6009 38.3229 44.2168 37.9062C43.8327 37.4831 43.5397 36.972 43.3379 36.373C43.1361 35.7741 43.0352 35.0905 43.0352 34.3223V33.4531C43.0352 32.5938 43.1328 31.8418 43.3281 31.1973C43.5234 30.5462 43.8001 29.9993 44.1582 29.5566C44.5163 29.1139 44.9557 28.7852 45.4766 28.5703C46.0039 28.349 46.5996 28.2383 47.2637 28.2383C47.9277 28.2383 48.5104 28.349 49.0117 28.5703C49.5195 28.7852 49.9395 29.1107 50.2715 29.5469C50.6035 29.9766 50.8542 30.5104 51.0234 31.1484C51.1927 31.7865 51.2773 32.5286 51.2773 33.375V34.625H44.1973V32.7012H48.5918V32.457C48.5918 32.0273 48.5462 31.6693 48.4551 31.3828C48.3639 31.0898 48.2207 30.8717 48.0254 30.7285C47.8301 30.5853 47.5697 30.5137 47.2441 30.5137C46.9707 30.5137 46.7396 30.569 46.5508 30.6797C46.362 30.7904 46.2122 30.9629 46.1016 31.1973C45.9909 31.4316 45.9095 31.7376 45.8574 32.1152C45.8053 32.4863 45.7793 32.9323 45.7793 33.4531V34.3223C45.7793 34.8105 45.8216 35.2207 45.9062 35.5527C45.9909 35.8783 46.1146 36.1452 46.2773 36.3535C46.4466 36.5553 46.6517 36.7018 46.8926 36.793C47.1335 36.8776 47.4134 36.9199 47.7324 36.9199C48.2142 36.9199 48.6471 36.8353 49.0312 36.666C49.4219 36.4902 49.7539 36.2526 50.0273 35.9531L51.1211 37.6133C50.9323 37.8607 50.6719 38.1081 50.3398 38.3555C50.0078 38.6029 49.6107 38.8047 49.1484 38.9609C48.6862 39.1172 48.1523 39.1953 47.5469 39.1953ZM57.5469 36.1484C57.5469 35.9661 57.485 35.8034 57.3613 35.6602C57.2376 35.5169 57.0423 35.3704 56.7754 35.2207C56.5085 35.0645 56.1536 34.8919 55.7109 34.7031C55.2292 34.5078 54.8027 34.306 54.4316 34.0977C54.0605 33.8893 53.7448 33.6582 53.4844 33.4043C53.2305 33.1504 53.0384 32.8607 52.9082 32.5352C52.778 32.2096 52.7129 31.8385 52.7129 31.4219C52.7129 30.9727 52.7943 30.5592 52.957 30.1816C53.1263 29.7975 53.3672 29.4622 53.6797 29.1758C53.9922 28.8828 54.373 28.6549 54.8223 28.4922C55.278 28.3229 55.7891 28.2383 56.3555 28.2383C57.1497 28.2383 57.8301 28.3783 58.3965 28.6582C58.9694 28.9316 59.4089 29.3158 59.7148 29.8105C60.0208 30.3053 60.1738 30.8815 60.1738 31.5391H57.4395C57.4395 31.3047 57.4036 31.0964 57.332 30.9141C57.2604 30.7253 57.1432 30.5788 56.9805 30.4746C56.8242 30.3704 56.6126 30.3184 56.3457 30.3184C56.1504 30.3184 55.9746 30.3607 55.8184 30.4453C55.6686 30.5299 55.5482 30.6439 55.457 30.7871C55.3724 30.9238 55.3301 31.0866 55.3301 31.2754C55.3301 31.4186 55.3594 31.5456 55.418 31.6562C55.4831 31.7669 55.584 31.8743 55.7207 31.9785C55.8574 32.0827 56.0397 32.1934 56.2676 32.3105C56.502 32.4212 56.7884 32.5449 57.127 32.6816C57.8301 32.9421 58.4062 33.222 58.8555 33.5215C59.3112 33.821 59.6497 34.1725 59.8711 34.5762C60.0924 34.9733 60.2031 35.4648 60.2031 36.0508C60.2031 36.5195 60.112 36.946 59.9297 37.3301C59.7539 37.7142 59.4967 38.0462 59.1582 38.3262C58.8197 38.6061 58.4128 38.821 57.9375 38.9707C57.4688 39.1204 56.9447 39.1953 56.3652 39.1953C55.5124 39.1953 54.793 39.026 54.207 38.6875C53.6211 38.349 53.1784 37.916 52.8789 37.3887C52.5794 36.8548 52.4297 36.3014 52.4297 35.7285H55.0273C55.0404 36.0801 55.1055 36.3568 55.2227 36.5586C55.3464 36.7539 55.5124 36.8906 55.7207 36.9688C55.929 37.0469 56.1602 37.0859 56.4141 37.0859C56.668 37.0859 56.8763 37.0534 57.0391 36.9883C57.2083 36.9167 57.3353 36.8092 57.4199 36.666C57.5046 36.5163 57.5469 36.3438 57.5469 36.1484ZM73.4648 34.2637H76.3066C76.2676 35.3314 76.0527 36.2331 75.6621 36.9688C75.2715 37.6979 74.7148 38.2513 73.9922 38.6289C73.276 39.0065 72.4102 39.1953 71.3945 39.1953C70.6068 39.1953 69.9069 39.0651 69.2949 38.8047C68.6829 38.5378 68.1621 38.1471 67.7324 37.6328C67.3027 37.1185 66.9772 36.4837 66.7559 35.7285C66.541 34.9668 66.4336 34.0911 66.4336 33.1016V30.6895C66.4336 29.6999 66.5475 28.8242 66.7754 28.0625C67.0098 27.3008 67.3418 26.6628 67.7715 26.1484C68.2077 25.6276 68.7318 25.237 69.3438 24.9766C69.9622 24.7096 70.6589 24.5762 71.4336 24.5762C72.4688 24.5762 73.3346 24.7715 74.0312 25.1621C74.7279 25.5527 75.265 26.1224 75.6426 26.8711C76.0267 27.6133 76.2578 28.5215 76.3359 29.5957H73.4844C73.4648 28.9186 73.3867 28.388 73.25 28.0039C73.1198 27.6133 72.9115 27.3398 72.625 27.1836C72.3385 27.0208 71.9414 26.9395 71.4336 26.9395C71.056 26.9395 70.7305 27.0078 70.457 27.1445C70.1836 27.2747 69.959 27.4863 69.7832 27.7793C69.6074 28.0723 69.4772 28.4564 69.3926 28.9316C69.3145 29.4069 69.2754 29.9863 69.2754 30.6699V33.1016C69.2754 33.7721 69.3112 34.3451 69.3828 34.8203C69.4544 35.2891 69.5684 35.6732 69.7246 35.9727C69.8809 36.2721 70.0924 36.4902 70.3594 36.627C70.6328 36.7637 70.9779 36.832 71.3945 36.832C71.8763 36.832 72.2637 36.7604 72.5566 36.6172C72.8561 36.474 73.0775 36.2168 73.2207 35.8457C73.3639 35.4746 73.4453 34.9473 73.4648 34.2637ZM80.623 24V39H77.8887V24H80.623ZM80.2324 33.3555L79.4902 33.375C79.4902 32.6328 79.5651 31.9492 79.7148 31.3242C79.8711 30.6992 80.0957 30.1556 80.3887 29.6934C80.6816 29.2311 81.0365 28.873 81.4531 28.6191C81.8763 28.3652 82.3418 28.2383 82.8496 28.2383C83.2858 28.2383 83.6829 28.3132 84.041 28.4629C84.3991 28.6126 84.7083 28.847 84.9688 29.166C85.2357 29.485 85.4408 29.9049 85.584 30.4258C85.7272 30.9466 85.7988 31.5814 85.7988 32.3301V39H83.0547V32.3105C83.0547 31.8548 83.0091 31.4967 82.918 31.2363C82.8268 30.9759 82.6901 30.7936 82.5078 30.6895C82.3255 30.5788 82.0977 30.5234 81.8242 30.5234C81.5312 30.5234 81.2806 30.5983 81.0723 30.748C80.8704 30.8913 80.7077 31.0898 80.584 31.3438C80.4603 31.5977 80.3691 31.8971 80.3105 32.2422C80.2585 32.5872 80.2324 32.9583 80.2324 33.3555ZM92.459 36.5684V31.6855C92.459 31.3665 92.4199 31.1126 92.3418 30.9238C92.2702 30.735 92.1595 30.5983 92.0098 30.5137C91.8665 30.4225 91.6908 30.377 91.4824 30.377C91.248 30.377 91.0527 30.4258 90.8965 30.5234C90.7402 30.6211 90.623 30.7611 90.5449 30.9434C90.4733 31.1257 90.4375 31.3438 90.4375 31.5977H87.6934C87.6934 31.1419 87.7812 30.7122 87.957 30.3086C88.1328 29.8984 88.39 29.5404 88.7285 29.2344C89.0736 28.9219 89.4837 28.6777 89.959 28.502C90.4342 28.3262 90.9681 28.2383 91.5605 28.2383C92.2637 28.2383 92.8887 28.3587 93.4355 28.5996C93.9824 28.834 94.4154 29.2083 94.7344 29.7227C95.0534 30.237 95.2129 30.9043 95.2129 31.7246V36.4316C95.2129 37.0241 95.2422 37.5059 95.3008 37.877C95.3659 38.248 95.4603 38.5671 95.584 38.834V39H92.8301C92.7064 38.707 92.612 38.3424 92.5469 37.9062C92.4883 37.4635 92.459 37.0176 92.459 36.5684ZM92.791 32.5449L92.8008 34.1855H91.7949C91.5345 34.1855 91.3066 34.2279 91.1113 34.3125C90.9225 34.3971 90.763 34.5176 90.6328 34.6738C90.5026 34.8236 90.4049 34.9993 90.3398 35.2012C90.2812 35.403 90.252 35.6178 90.252 35.8457C90.252 36.0996 90.2878 36.3145 90.3594 36.4902C90.431 36.666 90.5384 36.7995 90.6816 36.8906C90.8249 36.9818 90.9941 37.0273 91.1895 37.0273C91.4889 37.0273 91.7493 36.9655 91.9707 36.8418C92.1921 36.7181 92.3548 36.5684 92.459 36.3926C92.5697 36.2168 92.6055 36.054 92.5664 35.9043L93.1914 36.9688C93.1133 37.2096 93.0059 37.4603 92.8691 37.7207C92.7389 37.9811 92.5729 38.222 92.3711 38.4434C92.1693 38.6647 91.9186 38.847 91.6191 38.9902C91.3262 39.127 90.9779 39.1953 90.5742 39.1953C90.0078 39.1953 89.4902 39.0651 89.0215 38.8047C88.5527 38.5443 88.1816 38.1797 87.9082 37.7109C87.6413 37.2422 87.5078 36.6855 87.5078 36.041C87.5078 35.5072 87.5924 35.0254 87.7617 34.5957C87.9375 34.1595 88.1979 33.7917 88.543 33.4922C88.888 33.1862 89.3242 32.9518 89.8516 32.7891C90.3789 32.6263 90.9974 32.5449 91.707 32.5449H92.791ZM99.9688 30.7871V39H97.2344V28.4336H99.8125L99.9688 30.7871ZM102.459 28.3555L102.42 31.0801C102.296 31.054 102.146 31.0345 101.971 31.0215C101.801 31.0085 101.652 31.002 101.521 31.002C101.215 31.002 100.955 31.0508 100.74 31.1484C100.525 31.2396 100.346 31.3796 100.203 31.5684C100.066 31.7507 99.9622 31.9785 99.8906 32.252C99.819 32.5254 99.7767 32.8346 99.7637 33.1797L99.2461 32.9844C99.2461 32.2943 99.2982 31.6628 99.4023 31.0898C99.513 30.5104 99.6758 30.0091 99.8906 29.5859C100.105 29.1562 100.363 28.8242 100.662 28.5898C100.968 28.3555 101.313 28.2383 101.697 28.2383C101.827 28.2383 101.964 28.2513 102.107 28.2773C102.257 28.2969 102.374 28.3229 102.459 28.3555ZM108.953 28.4336V30.4941H103.562V28.4336H108.953ZM104.803 25.8262H107.527V35.7773C107.527 36.0703 107.557 36.2949 107.615 36.4512C107.674 36.6074 107.762 36.7181 107.879 36.7832C108.003 36.8418 108.165 36.8711 108.367 36.8711C108.504 36.8711 108.631 36.8646 108.748 36.8516C108.865 36.832 108.953 36.8125 109.012 36.793V38.9316C108.797 39.0163 108.569 39.0814 108.328 39.127C108.094 39.1725 107.814 39.1953 107.488 39.1953C106.941 39.1953 106.466 39.0911 106.062 38.8828C105.665 38.6745 105.356 38.3424 105.135 37.8867C104.913 37.4245 104.803 36.819 104.803 36.0703V25.8262Z" fill="black"/>
<circle cx="816" cy="32.5" r="5" fill="#1900D5"/>
<path d="M834.428 34.9844C834.428 34.752 834.4 34.5469 834.346 34.3691C834.291 34.1868 834.195 34.0228 834.059 33.877C833.922 33.7311 833.73 33.5921 833.484 33.46C833.238 33.3278 832.926 33.1934 832.548 33.0566C832.138 32.9108 831.766 32.749 831.434 32.5713C831.101 32.389 830.816 32.1816 830.579 31.9492C830.347 31.7168 830.167 31.4502 830.039 31.1494C829.911 30.8486 829.848 30.5046 829.848 30.1172C829.848 29.7298 829.914 29.3721 830.046 29.0439C830.183 28.7158 830.374 28.431 830.62 28.1895C830.871 27.9434 831.172 27.752 831.522 27.6152C831.873 27.4785 832.265 27.4102 832.698 27.4102C833.345 27.4102 833.89 27.5537 834.332 27.8408C834.779 28.1234 835.116 28.4948 835.344 28.9551C835.572 29.4108 835.686 29.8984 835.686 30.418H834.428C834.428 30.0443 834.366 29.7139 834.243 29.4268C834.125 29.1351 833.938 28.9072 833.683 28.7432C833.432 28.5745 833.104 28.4902 832.698 28.4902C832.334 28.4902 832.033 28.5609 831.796 28.7021C831.563 28.8434 831.39 29.0348 831.276 29.2764C831.167 29.5179 831.112 29.7936 831.112 30.1035C831.112 30.3132 831.149 30.5046 831.222 30.6777C831.295 30.8464 831.406 31.0036 831.557 31.1494C831.712 31.2952 831.903 31.4297 832.131 31.5527C832.363 31.6758 832.637 31.7943 832.951 31.9082C833.439 32.0677 833.856 32.2454 834.202 32.4414C834.549 32.6374 834.831 32.8584 835.05 33.1045C835.269 33.346 835.428 33.6217 835.528 33.9316C835.633 34.237 835.686 34.5833 835.686 34.9707C835.686 35.3763 835.617 35.7432 835.48 36.0713C835.348 36.3994 835.155 36.6797 834.899 36.9121C834.644 37.1445 834.337 37.3245 833.977 37.4521C833.617 37.5752 833.211 37.6367 832.76 37.6367C832.368 37.6367 831.983 37.5729 831.604 37.4453C831.231 37.3177 830.891 37.1263 830.586 36.8711C830.281 36.6159 830.037 36.3014 829.854 35.9277C829.672 35.5495 829.581 35.112 829.581 34.6152H830.839C830.839 34.957 830.889 35.251 830.989 35.4971C831.09 35.7386 831.229 35.9391 831.406 36.0986C831.584 36.2581 831.787 36.3766 832.015 36.4541C832.247 36.527 832.495 36.5635 832.76 36.5635C833.124 36.5635 833.43 36.4997 833.676 36.3721C833.926 36.2445 834.113 36.0622 834.236 35.8252C834.364 35.5882 834.428 35.3079 834.428 34.9844ZM840.792 36.2354V32.2227C840.792 31.931 840.746 31.6963 840.655 31.5186C840.569 31.3408 840.437 31.2109 840.259 31.1289C840.086 31.0469 839.867 31.0059 839.603 31.0059C839.347 31.0059 839.126 31.0583 838.939 31.1631C838.757 31.2679 838.616 31.4069 838.516 31.5801C838.42 31.7533 838.372 31.9447 838.372 32.1543H837.162C837.162 31.89 837.219 31.6279 837.333 31.3682C837.451 31.1084 837.62 30.8737 837.839 30.6641C838.058 30.4499 838.32 30.2812 838.625 30.1582C838.935 30.0306 839.281 29.9668 839.664 29.9668C840.12 29.9668 840.523 30.042 840.874 30.1924C841.225 30.3382 841.501 30.5775 841.701 30.9102C841.902 31.2428 842.002 31.6849 842.002 32.2363V35.8867C842.002 36.1328 842.02 36.3949 842.057 36.6729C842.098 36.9508 842.155 37.1901 842.228 37.3906V37.5H840.977C840.917 37.3542 840.872 37.1605 840.84 36.9189C840.808 36.6729 840.792 36.445 840.792 36.2354ZM840.983 33.0156L840.997 33.9043H840.156C839.869 33.9043 839.607 33.9362 839.37 34C839.138 34.0638 838.937 34.1572 838.769 34.2803C838.6 34.3988 838.47 34.5469 838.379 34.7246C838.292 34.9023 838.249 35.1051 838.249 35.333C838.249 35.6292 838.29 35.8662 838.372 36.0439C838.454 36.2171 838.577 36.3424 838.741 36.4199C838.905 36.4974 839.113 36.5361 839.363 36.5361C839.669 36.5361 839.938 36.4655 840.17 36.3242C840.402 36.1829 840.582 36.012 840.71 35.8115C840.842 35.611 840.904 35.4242 840.895 35.251L841.161 35.8184C841.143 35.9961 841.084 36.1898 840.983 36.3994C840.888 36.6045 840.753 36.8027 840.58 36.9941C840.407 37.181 840.202 37.3359 839.965 37.459C839.732 37.5775 839.47 37.6367 839.179 37.6367C838.75 37.6367 838.374 37.5547 838.051 37.3906C837.732 37.2266 837.483 36.985 837.306 36.666C837.128 36.347 837.039 35.9528 837.039 35.4834C837.039 35.1279 837.101 34.7998 837.224 34.499C837.347 34.1982 837.529 33.9385 837.771 33.7197C838.012 33.4964 838.315 33.3232 838.68 33.2002C839.049 33.0771 839.475 33.0156 839.958 33.0156H840.983ZM845.181 27V37.5H843.978V27H845.181ZM849.74 37.6367C849.298 37.6367 848.899 37.5706 848.544 37.4385C848.188 37.3063 847.885 37.1058 847.635 36.8369C847.384 36.5635 847.193 36.2194 847.061 35.8047C846.928 35.39 846.862 34.9001 846.862 34.335V33.501C846.862 32.8493 846.938 32.2979 847.088 31.8467C847.243 31.3955 847.45 31.0332 847.71 30.7598C847.97 30.4818 848.264 30.2812 848.592 30.1582C848.92 30.0306 849.257 29.9668 849.604 29.9668C850.068 29.9668 850.465 30.042 850.793 30.1924C851.121 30.3428 851.388 30.5661 851.593 30.8623C851.798 31.1585 851.948 31.5231 852.044 31.9561C852.144 32.389 852.194 32.888 852.194 33.4531V34.1572H847.573V33.125H850.984V32.9541C850.966 32.5713 850.914 32.234 850.827 31.9424C850.745 31.6507 850.608 31.4229 850.417 31.2588C850.226 31.0902 849.954 31.0059 849.604 31.0059C849.38 31.0059 849.173 31.0446 848.981 31.1221C848.795 31.195 848.633 31.3249 848.496 31.5117C848.364 31.694 848.259 31.9469 848.182 32.2705C848.109 32.5941 848.072 33.0042 848.072 33.501V34.335C848.072 34.7314 848.109 35.0732 848.182 35.3604C848.259 35.6429 848.371 35.8776 848.517 36.0645C848.667 36.2467 848.849 36.3835 849.063 36.4746C849.282 36.5612 849.531 36.6045 849.809 36.6045C850.214 36.6045 850.549 36.527 850.813 36.3721C851.078 36.2126 851.308 36.0098 851.504 35.7637L852.14 36.5225C852.007 36.7093 851.834 36.8893 851.62 37.0625C851.41 37.2311 851.151 37.3701 850.841 37.4795C850.535 37.5843 850.169 37.6367 849.74 37.6367ZM857.246 35.6064C857.246 35.4196 857.201 35.2555 857.109 35.1143C857.018 34.973 856.868 34.8363 856.658 34.7041C856.453 34.5719 856.175 34.4307 855.824 34.2803C855.482 34.139 855.175 34 854.901 33.8633C854.632 33.722 854.405 33.5693 854.218 33.4053C854.031 33.2412 853.887 33.0521 853.787 32.8379C853.691 32.6191 853.644 32.3617 853.644 32.0654C853.644 31.7692 853.698 31.4958 853.808 31.2451C853.922 30.9899 854.081 30.7666 854.286 30.5752C854.491 30.3838 854.737 30.2357 855.024 30.1309C855.312 30.0215 855.633 29.9668 855.988 29.9668C856.494 29.9668 856.925 30.0648 857.28 30.2607C857.636 30.4567 857.907 30.7256 858.094 31.0674C858.285 31.4046 858.381 31.7852 858.381 32.209H857.178C857.178 32.0039 857.132 31.8102 857.041 31.6279C856.95 31.4456 856.815 31.2975 856.638 31.1836C856.46 31.0651 856.243 31.0059 855.988 31.0059C855.719 31.0059 855.501 31.0537 855.332 31.1494C855.163 31.2451 855.04 31.3704 854.963 31.5254C854.89 31.6758 854.854 31.8421 854.854 32.0244C854.854 32.1611 854.872 32.2796 854.908 32.3799C854.949 32.4756 855.018 32.5667 855.113 32.6533C855.209 32.7354 855.339 32.8219 855.503 32.9131C855.672 32.9997 855.886 33.0999 856.146 33.2139C856.647 33.4098 857.068 33.6081 857.41 33.8086C857.752 34.0091 858.012 34.2438 858.189 34.5127C858.367 34.7816 858.456 35.1143 858.456 35.5107C858.456 35.8343 858.397 36.1283 858.278 36.3926C858.164 36.6523 858 36.8757 857.786 37.0625C857.572 37.2493 857.314 37.3929 857.014 37.4932C856.717 37.5889 856.385 37.6367 856.016 37.6367C855.46 37.6367 854.988 37.5273 854.601 37.3086C854.218 37.0853 853.926 36.7959 853.726 36.4404C853.53 36.0804 853.432 35.6953 853.432 35.2852H854.642C854.655 35.6315 854.733 35.9004 854.874 36.0918C855.02 36.2832 855.195 36.4154 855.4 36.4883C855.605 36.5612 855.811 36.5977 856.016 36.5977C856.285 36.5977 856.51 36.5589 856.692 36.4814C856.875 36.3994 857.011 36.2832 857.103 36.1328C857.198 35.9824 857.246 35.807 857.246 35.6064Z" fill="#99969E"/>
<line x1="500.5" y1="223.5" x2="500.5" y2="181.5" stroke="black" stroke-linecap="round" stroke-linejoin="round" stroke-dasharray="4 4"/>
<path d="M69.8555 223.978H860.003" stroke="#99969E"/>
<path d="M69.8555 229.984V223.978" stroke="#99969E"/>
<path d="M65.698 238.494V232.453H66.7703V238.494C66.7703 239.056 66.6727 239.531 66.4773 239.918C66.282 240.304 66.0105 240.599 65.6629 240.802C65.3191 241.002 64.9227 241.101 64.4734 241.101C64.032 241.101 63.6375 241.011 63.2898 240.832C62.9422 240.652 62.6687 240.379 62.4695 240.011C62.2742 239.644 62.1766 239.181 62.1766 238.623H63.2547C63.2547 238.982 63.3074 239.277 63.4129 239.508C63.5223 239.738 63.6687 239.908 63.8523 240.017C64.0359 240.127 64.243 240.181 64.4734 240.181C64.7078 240.181 64.9168 240.119 65.1004 239.994C65.284 239.865 65.4285 239.676 65.534 239.426C65.6434 239.172 65.698 238.861 65.698 238.494ZM71.5164 239.9V236.461C71.5164 236.211 71.4773 236.009 71.3992 235.857C71.325 235.705 71.2117 235.593 71.0594 235.523C70.9109 235.453 70.7234 235.418 70.4969 235.418C70.2781 235.418 70.0887 235.463 69.9285 235.552C69.7723 235.642 69.6512 235.761 69.5652 235.91C69.4832 236.058 69.4422 236.222 69.4422 236.402H68.4051C68.4051 236.176 68.4539 235.951 68.5516 235.728C68.6531 235.506 68.7977 235.304 68.9852 235.125C69.1727 234.941 69.3973 234.797 69.659 234.691C69.9246 234.582 70.2215 234.527 70.5496 234.527C70.9402 234.527 71.2859 234.592 71.5867 234.72C71.8875 234.845 72.1238 235.051 72.2957 235.336C72.4676 235.621 72.5535 236 72.5535 236.472V239.601C72.5535 239.812 72.5691 240.037 72.6004 240.275C72.6355 240.513 72.6844 240.718 72.7469 240.89V240.984H71.6746C71.6238 240.859 71.5848 240.693 71.5574 240.486C71.5301 240.275 71.5164 240.08 71.5164 239.9ZM71.6805 237.14L71.6922 237.902H70.9715C70.7254 237.902 70.5008 237.929 70.2977 237.984C70.0984 238.039 69.9266 238.119 69.782 238.224C69.6375 238.326 69.5262 238.453 69.448 238.605C69.3738 238.758 69.3367 238.931 69.3367 239.127C69.3367 239.381 69.3719 239.584 69.4422 239.736C69.5125 239.884 69.618 239.992 69.7586 240.058C69.8992 240.125 70.0769 240.158 70.2918 240.158C70.5535 240.158 70.784 240.097 70.9832 239.976C71.1824 239.855 71.3367 239.709 71.4461 239.537C71.5594 239.365 71.6121 239.205 71.6043 239.056L71.8328 239.543C71.8172 239.695 71.7664 239.861 71.6805 240.041C71.5984 240.217 71.4832 240.386 71.3348 240.551C71.1863 240.711 71.0105 240.843 70.8074 240.949C70.6082 241.051 70.3836 241.101 70.1336 241.101C69.7664 241.101 69.4441 241.031 69.1668 240.89C68.8934 240.75 68.6805 240.543 68.5281 240.269C68.3758 239.996 68.2996 239.658 68.2996 239.256C68.2996 238.951 68.3523 238.67 68.4578 238.412C68.5633 238.154 68.7195 237.931 68.9266 237.744C69.1336 237.552 69.3934 237.404 69.7059 237.299C70.0223 237.193 70.3875 237.14 70.8016 237.14H71.6805ZM75.202 235.998V240.984H74.1648V234.644H75.1434L75.202 235.998ZM74.95 237.574L74.5281 237.556C74.5242 237.123 74.573 236.722 74.6746 236.355C74.7801 235.984 74.9285 235.662 75.1199 235.388C75.3152 235.115 75.5477 234.904 75.8172 234.756C76.0867 234.603 76.3855 234.527 76.7137 234.527C76.9715 234.527 77.2059 234.57 77.4168 234.656C77.6277 234.738 77.8074 234.871 77.9559 235.054C78.1043 235.238 78.2176 235.476 78.2957 235.769C78.3777 236.058 78.4187 236.412 78.4187 236.83V240.984H77.3816V236.818C77.3816 236.486 77.3445 236.22 77.2703 236.021C77.2 235.818 77.0906 235.672 76.9422 235.582C76.7977 235.488 76.6141 235.441 76.3914 235.441C76.1883 235.441 75.9988 235.498 75.823 235.611C75.6473 235.724 75.493 235.881 75.3602 236.08C75.2312 236.279 75.1297 236.508 75.0555 236.765C74.9852 237.019 74.95 237.289 74.95 237.574Z" fill="#99969E"/>
<path d="M141.688 229.984V223.978" stroke="#99969E"/>
<path d="M135.749 232.453V240.984H134.671V232.453H135.749ZM138.626 236.291V237.217H135.544V236.291H138.626ZM139.112 232.453V233.379H135.544V232.453H139.112ZM142.446 241.101C142.067 241.101 141.725 241.045 141.421 240.931C141.116 240.818 140.856 240.646 140.641 240.416C140.427 240.181 140.262 239.886 140.149 239.531C140.036 239.176 139.979 238.756 139.979 238.271V237.556C139.979 236.998 140.044 236.525 140.173 236.138C140.305 235.752 140.483 235.441 140.706 235.207C140.929 234.968 141.18 234.797 141.462 234.691C141.743 234.582 142.032 234.527 142.329 234.527C142.727 234.527 143.067 234.592 143.348 234.72C143.63 234.849 143.858 235.041 144.034 235.295C144.21 235.549 144.339 235.861 144.421 236.232C144.507 236.603 144.55 237.031 144.55 237.515V238.119H140.589V237.234H143.512V237.088C143.497 236.759 143.452 236.47 143.378 236.22C143.307 235.97 143.19 235.775 143.026 235.634C142.862 235.49 142.63 235.418 142.329 235.418C142.137 235.418 141.96 235.451 141.796 235.517C141.636 235.58 141.497 235.691 141.38 235.851C141.266 236.008 141.177 236.224 141.11 236.502C141.048 236.779 141.016 237.131 141.016 237.556V238.271C141.016 238.611 141.048 238.904 141.11 239.15C141.177 239.392 141.272 239.593 141.397 239.754C141.526 239.91 141.682 240.027 141.866 240.105C142.054 240.179 142.266 240.217 142.505 240.217C142.852 240.217 143.139 240.15 143.366 240.017C143.593 239.881 143.79 239.707 143.958 239.496L144.503 240.146C144.389 240.306 144.241 240.461 144.057 240.609C143.878 240.754 143.655 240.873 143.389 240.967C143.128 241.056 142.813 241.101 142.446 241.101ZM145.804 231.984H146.841V239.754L146.753 240.984H145.804V231.984ZM150.397 237.527V238.119C150.397 238.619 150.35 239.056 150.257 239.431C150.167 239.802 150.032 240.113 149.852 240.363C149.673 240.609 149.454 240.795 149.196 240.92C148.938 241.041 148.643 241.101 148.311 241.101C147.983 241.101 147.7 241.035 147.462 240.902C147.223 240.769 147.024 240.578 146.864 240.328C146.704 240.078 146.577 239.775 146.483 239.42C146.393 239.064 146.331 238.664 146.296 238.218V237.427C146.331 236.978 146.393 236.576 146.483 236.22C146.573 235.861 146.698 235.556 146.858 235.306C147.018 235.052 147.218 234.859 147.456 234.726C147.694 234.593 147.977 234.527 148.305 234.527C148.641 234.527 148.938 234.586 149.196 234.703C149.458 234.82 149.677 235.002 149.852 235.248C150.032 235.49 150.167 235.801 150.257 236.179C150.35 236.554 150.397 237.004 150.397 237.527ZM149.36 238.119V237.527C149.36 237.176 149.337 236.869 149.29 236.607C149.247 236.345 149.175 236.129 149.073 235.957C148.971 235.785 148.835 235.656 148.663 235.57C148.495 235.484 148.286 235.441 148.036 235.441C147.825 235.441 147.639 235.484 147.479 235.57C147.323 235.656 147.188 235.773 147.075 235.922C146.962 236.066 146.868 236.232 146.794 236.42C146.72 236.603 146.665 236.795 146.63 236.994V238.658C146.68 238.912 146.761 239.156 146.87 239.39C146.983 239.621 147.136 239.81 147.327 239.959C147.518 240.107 147.757 240.181 148.042 240.181C148.28 240.181 148.481 240.14 148.645 240.058C148.813 239.976 148.95 239.851 149.055 239.683C149.161 239.511 149.237 239.297 149.284 239.039C149.335 238.777 149.36 238.47 149.36 238.119Z" fill="#99969E"/>
<path d="M213.52 229.984V223.978" stroke="#99969E"/>
<path d="M205.538 232.453H206.581L208.814 239.408L211.04 232.453H212.083L209.218 240.984H208.398L205.538 232.453ZM205.199 232.453H206.113L206.271 237.656V240.984H205.199V232.453ZM211.503 232.453H212.417V240.984H211.345V237.656L211.503 232.453ZM217.234 239.9V236.461C217.234 236.211 217.195 236.009 217.117 235.857C217.042 235.705 216.929 235.593 216.777 235.523C216.628 235.453 216.441 235.418 216.214 235.418C215.995 235.418 215.806 235.463 215.646 235.552C215.49 235.642 215.368 235.761 215.283 235.91C215.2 236.058 215.159 236.222 215.159 236.402H214.122C214.122 236.176 214.171 235.951 214.269 235.728C214.37 235.506 214.515 235.304 214.702 235.125C214.89 234.941 215.115 234.797 215.376 234.691C215.642 234.582 215.939 234.527 216.267 234.527C216.658 234.527 217.003 234.592 217.304 234.72C217.605 234.845 217.841 235.051 218.013 235.336C218.185 235.621 218.271 236 218.271 236.472V239.601C218.271 239.812 218.286 240.037 218.318 240.275C218.353 240.513 218.402 240.718 218.464 240.89V240.984H217.392C217.341 240.859 217.302 240.693 217.275 240.486C217.247 240.275 217.234 240.08 217.234 239.9ZM217.398 237.14L217.409 237.902H216.689C216.443 237.902 216.218 237.929 216.015 237.984C215.816 238.039 215.644 238.119 215.499 238.224C215.355 238.326 215.243 238.453 215.165 238.605C215.091 238.758 215.054 238.931 215.054 239.127C215.054 239.381 215.089 239.584 215.159 239.736C215.23 239.884 215.335 239.992 215.476 240.058C215.617 240.125 215.794 240.158 216.009 240.158C216.271 240.158 216.501 240.097 216.7 239.976C216.9 239.855 217.054 239.709 217.163 239.537C217.277 239.365 217.329 239.205 217.322 239.056L217.55 239.543C217.534 239.695 217.484 239.861 217.398 240.041C217.316 240.217 217.2 240.386 217.052 240.551C216.904 240.711 216.728 240.843 216.525 240.949C216.325 241.051 216.101 241.101 215.851 241.101C215.484 241.101 215.161 241.031 214.884 240.89C214.611 240.75 214.398 240.543 214.245 240.269C214.093 239.996 214.017 239.658 214.017 239.256C214.017 238.951 214.07 238.67 214.175 238.412C214.281 238.154 214.437 237.931 214.644 237.744C214.851 237.552 215.111 237.404 215.423 237.299C215.74 237.193 216.105 237.14 216.519 237.14H217.398ZM220.919 235.64V240.984H219.882V234.644H220.884L220.919 235.64ZM222.495 234.609L222.501 235.617C222.415 235.597 222.337 235.586 222.267 235.582C222.2 235.574 222.122 235.57 222.033 235.57C221.837 235.57 221.665 235.609 221.517 235.687C221.372 235.765 221.247 235.875 221.142 236.015C221.036 236.156 220.952 236.324 220.89 236.519C220.827 236.711 220.784 236.922 220.761 237.152L220.492 237.328C220.492 236.945 220.521 236.586 220.579 236.25C220.642 235.914 220.738 235.617 220.867 235.359C220.995 235.097 221.159 234.894 221.359 234.75C221.562 234.601 221.804 234.527 222.085 234.527C222.148 234.527 222.224 234.537 222.314 234.556C222.408 234.572 222.468 234.59 222.495 234.609Z" fill="#99969E"/>
<path d="M285.352 229.984V223.978" stroke="#99969E"/>
<path d="M280.785 233.209L278.453 240.984H277.352L280.1 232.453H280.791L280.785 233.209ZM282.672 240.984L280.34 233.209L280.328 232.453H281.026L283.774 240.984H282.672ZM282.672 237.826V238.752H278.559V237.826H282.672ZM285.842 235.863V243.422H284.805V234.644H285.748L285.842 235.863ZM289.387 237.527V238.119C289.387 238.619 289.34 239.056 289.246 239.431C289.157 239.802 289.022 240.113 288.842 240.363C288.666 240.609 288.449 240.795 288.192 240.92C287.934 241.041 287.639 241.101 287.307 241.101C286.975 241.101 286.686 241.039 286.44 240.914C286.198 240.785 285.992 240.599 285.824 240.357C285.66 240.115 285.53 239.824 285.432 239.484C285.338 239.14 285.274 238.756 285.239 238.33V237.427C285.274 236.978 285.338 236.576 285.432 236.22C285.526 235.861 285.655 235.556 285.819 235.306C285.987 235.052 286.192 234.859 286.434 234.726C286.68 234.593 286.967 234.527 287.295 234.527C287.635 234.527 287.934 234.586 288.192 234.703C288.453 234.82 288.672 235.002 288.848 235.248C289.028 235.49 289.162 235.801 289.252 236.179C289.342 236.554 289.387 237.004 289.387 237.527ZM288.35 238.119V237.527C288.35 237.176 288.323 236.869 288.268 236.607C288.217 236.345 288.135 236.129 288.022 235.957C287.908 235.785 287.766 235.656 287.594 235.57C287.422 235.484 287.215 235.441 286.973 235.441C286.766 235.441 286.582 235.484 286.422 235.57C286.266 235.656 286.131 235.773 286.018 235.922C285.905 236.066 285.811 236.232 285.737 236.42C285.662 236.603 285.608 236.795 285.573 236.994V238.769C285.639 239.019 285.727 239.256 285.836 239.478C285.946 239.697 286.092 239.875 286.276 240.011C286.463 240.148 286.699 240.217 286.985 240.217C287.223 240.217 287.428 240.174 287.6 240.088C287.772 240.002 287.912 239.873 288.022 239.701C288.135 239.525 288.217 239.306 288.268 239.045C288.323 238.779 288.35 238.47 288.35 238.119ZM291.76 235.64V240.984H290.723V234.644H291.725L291.76 235.64ZM293.336 234.609L293.342 235.617C293.256 235.597 293.178 235.586 293.108 235.582C293.041 235.574 292.963 235.57 292.873 235.57C292.678 235.57 292.506 235.609 292.358 235.687C292.213 235.765 292.088 235.875 291.983 236.015C291.877 236.156 291.793 236.324 291.731 236.519C291.668 236.711 291.625 236.922 291.602 237.152L291.332 237.328C291.332 236.945 291.362 236.586 291.42 236.25C291.483 235.914 291.578 235.617 291.707 235.359C291.836 235.097 292 234.894 292.199 234.75C292.403 234.601 292.645 234.527 292.926 234.527C292.989 234.527 293.065 234.537 293.155 234.556C293.248 234.572 293.309 234.59 293.336 234.609Z" fill="#99969E"/>
<path d="M357.18 229.984V223.978" stroke="#99969E"/>
<path d="M348.573 232.453H349.616L351.848 239.408L354.075 232.453H355.118L352.252 240.984H351.432L348.573 232.453ZM348.233 232.453H349.147L349.305 237.656V240.984H348.233V232.453ZM354.537 232.453H355.452V240.984H354.379V237.656L354.537 232.453ZM360.268 239.9V236.461C360.268 236.211 360.229 236.009 360.151 235.857C360.077 235.705 359.963 235.593 359.811 235.523C359.662 235.453 359.475 235.418 359.248 235.418C359.03 235.418 358.84 235.463 358.68 235.552C358.524 235.642 358.403 235.761 358.317 235.91C358.235 236.058 358.194 236.222 358.194 236.402H357.157C357.157 236.176 357.205 235.951 357.303 235.728C357.405 235.506 357.549 235.304 357.737 235.125C357.924 234.941 358.149 234.797 358.41 234.691C358.676 234.582 358.973 234.527 359.301 234.527C359.692 234.527 360.037 234.592 360.338 234.72C360.639 234.845 360.875 235.051 361.047 235.336C361.219 235.621 361.305 236 361.305 236.472V239.601C361.305 239.812 361.321 240.037 361.352 240.275C361.387 240.513 361.436 240.718 361.498 240.89V240.984H360.426C360.375 240.859 360.336 240.693 360.309 240.486C360.282 240.275 360.268 240.08 360.268 239.9ZM360.432 237.14L360.444 237.902H359.723C359.477 237.902 359.252 237.929 359.049 237.984C358.85 238.039 358.678 238.119 358.534 238.224C358.389 238.326 358.278 238.453 358.2 238.605C358.125 238.758 358.088 238.931 358.088 239.127C358.088 239.381 358.123 239.584 358.194 239.736C358.264 239.884 358.369 239.992 358.51 240.058C358.651 240.125 358.828 240.158 359.043 240.158C359.305 240.158 359.535 240.097 359.735 239.976C359.934 239.855 360.088 239.709 360.198 239.537C360.311 239.365 360.364 239.205 360.356 239.056L360.584 239.543C360.569 239.695 360.518 239.861 360.432 240.041C360.35 240.217 360.235 240.386 360.086 240.551C359.938 240.711 359.762 240.843 359.559 240.949C359.36 241.051 359.135 241.101 358.885 241.101C358.518 241.101 358.196 241.031 357.918 240.89C357.645 240.75 357.432 240.543 357.28 240.269C357.127 239.996 357.051 239.658 357.051 239.256C357.051 238.951 357.104 238.67 357.209 238.412C357.315 238.154 357.471 237.931 357.678 237.744C357.885 237.552 358.145 237.404 358.457 237.299C358.774 237.193 359.139 237.14 359.553 237.14H360.432ZM364.293 240.328L365.705 234.644H366.807L364.715 241.963C364.664 242.119 364.596 242.287 364.51 242.467C364.428 242.65 364.323 242.824 364.194 242.988C364.065 243.152 363.91 243.285 363.731 243.386C363.551 243.492 363.34 243.545 363.098 243.545C363.024 243.545 362.928 243.533 362.811 243.509C362.698 243.486 362.616 243.467 362.565 243.451V242.572C362.588 242.576 362.625 242.58 362.676 242.584C362.727 242.592 362.764 242.595 362.787 242.595C362.991 242.595 363.162 242.562 363.303 242.496C363.448 242.433 363.571 242.326 363.672 242.174C363.774 242.025 363.86 241.82 363.93 241.558L364.293 240.328ZM363.379 234.644L364.639 239.566L364.909 240.709L364.17 241.107L362.248 234.644H363.379Z" fill="#99969E"/>
<path d="M429.012 229.984V223.978" stroke="#99969E"/>
<path d="M424.831 238.494V232.453H425.903V238.494C425.903 239.056 425.805 239.531 425.61 239.918C425.415 240.304 425.143 240.599 424.796 240.802C424.452 241.002 424.055 241.101 423.606 241.101C423.165 241.101 422.77 241.011 422.423 240.832C422.075 240.652 421.802 240.379 421.602 240.011C421.407 239.644 421.309 239.181 421.309 238.623H422.387C422.387 238.982 422.44 239.277 422.546 239.508C422.655 239.738 422.802 239.908 422.985 240.017C423.169 240.127 423.376 240.181 423.606 240.181C423.841 240.181 424.05 240.119 424.233 239.994C424.417 239.865 424.561 239.676 424.667 239.426C424.776 239.172 424.831 238.861 424.831 238.494ZM430.749 239.519V234.644H431.786V240.984H430.802L430.749 239.519ZM430.942 238.183L431.352 238.172C431.352 238.593 431.315 238.984 431.241 239.343C431.171 239.699 431.054 240.008 430.889 240.269C430.729 240.531 430.516 240.736 430.251 240.884C429.985 241.029 429.659 241.101 429.272 241.101C429.011 241.101 428.772 241.056 428.557 240.967C428.346 240.877 428.163 240.738 428.007 240.551C427.854 240.363 427.735 240.119 427.649 239.818C427.567 239.517 427.526 239.156 427.526 238.734V234.644H428.557V238.746C428.557 239.031 428.583 239.267 428.634 239.455C428.684 239.638 428.753 239.785 428.839 239.894C428.925 240 429.02 240.074 429.126 240.117C429.231 240.16 429.339 240.181 429.448 240.181C429.815 240.181 430.108 240.093 430.327 239.918C430.546 239.738 430.702 239.498 430.796 239.197C430.893 238.892 430.942 238.554 430.942 238.183ZM434.382 235.998V240.984H433.345V234.644H434.323L434.382 235.998ZM434.13 237.574L433.708 237.556C433.704 237.123 433.753 236.722 433.854 236.355C433.96 235.984 434.108 235.662 434.3 235.388C434.495 235.115 434.727 234.904 434.997 234.756C435.266 234.603 435.565 234.527 435.893 234.527C436.151 234.527 436.386 234.57 436.596 234.656C436.807 234.738 436.987 234.871 437.136 235.054C437.284 235.238 437.397 235.476 437.475 235.769C437.557 236.058 437.598 236.412 437.598 236.83V240.984H436.561V236.818C436.561 236.486 436.524 236.22 436.45 236.021C436.38 235.818 436.27 235.672 436.122 235.582C435.977 235.488 435.794 235.441 435.571 235.441C435.368 235.441 435.179 235.498 435.003 235.611C434.827 235.724 434.673 235.881 434.54 236.08C434.411 236.279 434.309 236.508 434.235 236.765C434.165 237.019 434.13 237.289 434.13 237.574Z" fill="#99969E"/>
<path d="M500.844 229.984V223.978" stroke="#99969E"/>
<path d="M498.194 238.494V232.453H499.266V238.494C499.266 239.056 499.169 239.531 498.973 239.918C498.778 240.304 498.507 240.599 498.159 240.802C497.815 241.002 497.419 241.101 496.969 241.101C496.528 241.101 496.134 241.011 495.786 240.832C495.438 240.652 495.165 240.379 494.966 240.011C494.77 239.644 494.673 239.181 494.673 238.623H495.751C495.751 238.982 495.803 239.277 495.909 239.508C496.018 239.738 496.165 239.908 496.348 240.017C496.532 240.127 496.739 240.181 496.969 240.181C497.204 240.181 497.413 240.119 497.596 239.994C497.78 239.865 497.925 239.676 498.03 239.426C498.139 239.172 498.194 238.861 498.194 238.494ZM504.112 239.519V234.644H505.149V240.984H504.165L504.112 239.519ZM504.305 238.183L504.716 238.172C504.716 238.593 504.678 238.984 504.604 239.343C504.534 239.699 504.417 240.008 504.253 240.269C504.093 240.531 503.88 240.736 503.614 240.884C503.348 241.029 503.022 241.101 502.635 241.101C502.374 241.101 502.135 241.056 501.921 240.967C501.71 240.877 501.526 240.738 501.37 240.551C501.218 240.363 501.098 240.119 501.012 239.818C500.93 239.517 500.889 239.156 500.889 238.734V234.644H501.921V238.746C501.921 239.031 501.946 239.267 501.997 239.455C502.048 239.638 502.116 239.785 502.202 239.894C502.288 240 502.384 240.074 502.489 240.117C502.594 240.16 502.702 240.181 502.811 240.181C503.178 240.181 503.471 240.093 503.69 239.918C503.909 239.738 504.065 239.498 504.159 239.197C504.257 238.892 504.305 238.554 504.305 238.183ZM507.821 231.984V240.984H506.79V231.984H507.821Z" fill="#99969E"/>
<path d="M572.676 229.984V223.978" stroke="#99969E"/>
<path d="M567.734 233.209L565.402 240.984H564.301L567.049 232.453H567.74L567.734 233.209ZM569.621 240.984L567.289 233.209L567.277 232.453H567.974L570.722 240.984H569.621ZM569.621 237.826V238.752H565.508V237.826H569.621ZM574.889 239.519V234.644H575.926V240.984H574.941L574.889 239.519ZM575.082 238.183L575.492 238.172C575.492 238.593 575.455 238.984 575.381 239.343C575.31 239.699 575.193 240.008 575.029 240.269C574.869 240.531 574.656 240.736 574.39 240.884C574.125 241.029 573.799 241.101 573.412 241.101C573.15 241.101 572.912 241.056 572.697 240.967C572.486 240.877 572.303 240.738 572.146 240.551C571.994 240.363 571.875 240.119 571.789 239.818C571.707 239.517 571.666 239.156 571.666 238.734V234.644H572.697V238.746C572.697 239.031 572.722 239.267 572.773 239.455C572.824 239.638 572.892 239.785 572.978 239.894C573.064 240 573.16 240.074 573.265 240.117C573.371 240.16 573.478 240.181 573.588 240.181C573.955 240.181 574.248 240.093 574.467 239.918C574.685 239.738 574.842 239.498 574.935 239.197C575.033 238.892 575.082 238.554 575.082 238.183ZM580.918 234.644H581.849V241.037C581.849 241.595 581.752 242.056 581.556 242.42C581.365 242.783 581.097 243.051 580.754 243.222C580.41 243.398 580.014 243.486 579.564 243.486C579.404 243.486 579.203 243.457 578.961 243.398C578.719 243.34 578.476 243.25 578.234 243.129C577.992 243.011 577.793 242.863 577.637 242.683L578.064 241.963C578.287 242.189 578.523 242.351 578.773 242.449C579.023 242.547 579.262 242.595 579.488 242.595C579.758 242.595 579.992 242.547 580.191 242.449C580.39 242.351 580.545 242.191 580.654 241.968C580.764 241.75 580.818 241.457 580.818 241.09V236.039L580.918 234.644ZM577.273 238.119V237.527C577.273 237.004 577.322 236.554 577.42 236.179C577.517 235.801 577.658 235.49 577.842 235.248C578.029 235.002 578.254 234.82 578.515 234.703C578.777 234.586 579.07 234.527 579.394 234.527C579.722 234.527 580.006 234.593 580.244 234.726C580.482 234.859 580.68 235.052 580.836 235.306C580.996 235.556 581.121 235.861 581.211 236.22C581.305 236.576 581.369 236.978 581.404 237.427V238.218C581.369 238.664 581.305 239.064 581.211 239.42C581.121 239.775 580.994 240.078 580.83 240.328C580.67 240.578 580.471 240.769 580.232 240.902C579.994 241.035 579.711 241.101 579.383 241.101C579.062 241.101 578.773 241.041 578.515 240.92C578.258 240.795 578.035 240.609 577.847 240.363C577.664 240.113 577.521 239.802 577.42 239.431C577.322 239.056 577.273 238.619 577.273 238.119ZM578.31 237.527V238.119C578.31 238.47 578.336 238.777 578.387 239.039C578.437 239.297 578.515 239.511 578.621 239.683C578.73 239.851 578.869 239.976 579.037 240.058C579.209 240.14 579.414 240.181 579.652 240.181C579.941 240.181 580.178 240.111 580.361 239.97C580.545 239.83 580.691 239.644 580.801 239.414C580.914 239.179 581.004 238.927 581.07 238.658V236.994C581.031 236.795 580.974 236.603 580.9 236.42C580.83 236.232 580.738 236.066 580.625 235.922C580.512 235.773 580.375 235.656 580.215 235.57C580.058 235.484 579.875 235.441 579.664 235.441C579.426 235.441 579.221 235.484 579.049 235.57C578.877 235.656 578.736 235.785 578.627 235.957C578.517 236.129 578.437 236.345 578.387 236.607C578.336 236.869 578.31 237.176 578.31 237.527Z" fill="#99969E"/>
<path d="M644.508 229.984V223.978" stroke="#99969E"/>
<path d="M640.277 238.828C640.277 238.629 640.253 238.453 640.206 238.301C640.159 238.144 640.077 238.004 639.96 237.879C639.843 237.754 639.679 237.634 639.468 237.521C639.257 237.408 638.99 237.293 638.665 237.176C638.314 237.051 637.995 236.912 637.71 236.759C637.425 236.603 637.181 236.426 636.978 236.226C636.779 236.027 636.624 235.799 636.515 235.541C636.406 235.283 636.351 234.988 636.351 234.656C636.351 234.324 636.408 234.017 636.521 233.736C636.638 233.455 636.802 233.211 637.013 233.004C637.228 232.793 637.486 232.629 637.786 232.511C638.087 232.394 638.423 232.336 638.794 232.336C639.349 232.336 639.816 232.459 640.195 232.705C640.577 232.947 640.867 233.265 641.062 233.66C641.257 234.051 641.355 234.468 641.355 234.914H640.277C640.277 234.593 640.224 234.31 640.118 234.064C640.017 233.814 639.857 233.619 639.638 233.478C639.423 233.334 639.142 233.261 638.794 233.261C638.482 233.261 638.224 233.322 638.021 233.443C637.822 233.564 637.673 233.728 637.575 233.935C637.482 234.142 637.435 234.379 637.435 234.644C637.435 234.824 637.466 234.988 637.529 235.136C637.591 235.281 637.687 235.416 637.816 235.541C637.949 235.666 638.113 235.781 638.308 235.886C638.507 235.992 638.742 236.093 639.011 236.191C639.429 236.328 639.786 236.48 640.083 236.648C640.38 236.816 640.622 237.006 640.81 237.217C640.997 237.424 641.134 237.66 641.22 237.926C641.31 238.187 641.355 238.484 641.355 238.816C641.355 239.164 641.296 239.478 641.179 239.759C641.066 240.041 640.9 240.281 640.681 240.48C640.462 240.679 640.199 240.834 639.89 240.943C639.581 241.049 639.234 241.101 638.847 241.101C638.511 241.101 638.181 241.047 637.857 240.937C637.536 240.828 637.245 240.664 636.984 240.445C636.722 240.226 636.513 239.957 636.357 239.636C636.2 239.312 636.122 238.937 636.122 238.511H637.2C637.2 238.804 637.243 239.056 637.329 239.267C637.415 239.474 637.534 239.646 637.687 239.783C637.839 239.92 638.013 240.021 638.208 240.088C638.408 240.15 638.62 240.181 638.847 240.181C639.159 240.181 639.421 240.127 639.632 240.017C639.847 239.908 640.007 239.752 640.113 239.549C640.222 239.345 640.277 239.105 640.277 238.828ZM644.894 241.101C644.515 241.101 644.173 241.045 643.868 240.931C643.564 240.818 643.304 240.646 643.089 240.416C642.874 240.181 642.71 239.886 642.597 239.531C642.484 239.176 642.427 238.756 642.427 238.271V237.556C642.427 236.998 642.492 236.525 642.62 236.138C642.753 235.752 642.931 235.441 643.154 235.207C643.376 234.968 643.628 234.797 643.909 234.691C644.191 234.582 644.48 234.527 644.777 234.527C645.175 234.527 645.515 234.592 645.796 234.72C646.077 234.849 646.306 235.041 646.482 235.295C646.658 235.549 646.786 235.861 646.868 236.232C646.954 236.603 646.997 237.031 646.997 237.515V238.119H643.036V237.234H645.96V237.088C645.945 236.759 645.9 236.47 645.825 236.22C645.755 235.97 645.638 235.775 645.474 235.634C645.31 235.49 645.077 235.418 644.777 235.418C644.585 235.418 644.408 235.451 644.243 235.517C644.083 235.58 643.945 235.691 643.827 235.851C643.714 236.008 643.624 236.224 643.558 236.502C643.495 236.779 643.464 237.131 643.464 237.556V238.271C643.464 238.611 643.495 238.904 643.558 239.15C643.624 239.392 643.72 239.593 643.845 239.754C643.974 239.91 644.13 240.027 644.314 240.105C644.501 240.179 644.714 240.217 644.952 240.217C645.3 240.217 645.587 240.15 645.814 240.017C646.04 239.881 646.238 239.707 646.406 239.496L646.95 240.146C646.837 240.306 646.689 240.461 646.505 240.609C646.325 240.754 646.103 240.873 645.837 240.967C645.575 241.056 645.261 241.101 644.894 241.101ZM649.288 235.863V243.422H648.251V234.644H649.195L649.288 235.863ZM652.833 237.527V238.119C652.833 238.619 652.786 239.056 652.693 239.431C652.603 239.802 652.468 240.113 652.288 240.363C652.113 240.609 651.896 240.795 651.638 240.92C651.38 241.041 651.085 241.101 650.753 241.101C650.421 241.101 650.132 241.039 649.886 240.914C649.644 240.785 649.439 240.599 649.271 240.357C649.107 240.115 648.976 239.824 648.878 239.484C648.784 239.14 648.72 238.756 648.685 238.33V237.427C648.72 236.978 648.784 236.576 648.878 236.22C648.972 235.861 649.101 235.556 649.265 235.306C649.433 235.052 649.638 234.859 649.88 234.726C650.126 234.593 650.413 234.527 650.742 234.527C651.081 234.527 651.38 234.586 651.638 234.703C651.9 234.82 652.118 235.002 652.294 235.248C652.474 235.49 652.609 235.801 652.699 236.179C652.788 236.554 652.833 237.004 652.833 237.527ZM651.796 238.119V237.527C651.796 237.176 651.769 236.869 651.714 236.607C651.663 236.345 651.581 236.129 651.468 235.957C651.355 235.785 651.212 235.656 651.04 235.57C650.868 235.484 650.661 235.441 650.419 235.441C650.212 235.441 650.029 235.484 649.868 235.57C649.712 235.656 649.577 235.773 649.464 235.922C649.351 236.066 649.257 236.232 649.183 236.42C649.109 236.603 649.054 236.795 649.019 236.994V238.769C649.085 239.019 649.173 239.256 649.283 239.478C649.392 239.697 649.538 239.875 649.722 240.011C649.909 240.148 650.146 240.217 650.431 240.217C650.669 240.217 650.874 240.174 651.046 240.088C651.218 240.002 651.359 239.873 651.468 239.701C651.581 239.525 651.663 239.306 651.714 239.045C651.769 238.779 651.796 238.47 651.796 238.119Z" fill="#99969E"/>
<path d="M716.34 229.984V223.978" stroke="#99969E"/>
<path d="M715.311 235.98V237.463C715.311 238.064 715.245 238.593 715.112 239.051C714.983 239.504 714.794 239.883 714.544 240.187C714.294 240.492 713.993 240.72 713.641 240.873C713.29 241.025 712.893 241.101 712.452 241.101C712.026 241.101 711.637 241.025 711.286 240.873C710.934 240.72 710.632 240.492 710.378 240.187C710.124 239.883 709.927 239.504 709.786 239.051C709.649 238.593 709.581 238.064 709.581 237.463V235.98C709.581 235.379 709.649 234.851 709.786 234.398C709.923 233.941 710.118 233.56 710.372 233.256C710.626 232.951 710.929 232.722 711.28 232.57C711.632 232.414 712.02 232.336 712.446 232.336C712.887 232.336 713.284 232.414 713.636 232.57C713.991 232.722 714.292 232.951 714.538 233.256C714.788 233.56 714.979 233.941 715.112 234.398C715.245 234.851 715.311 235.379 715.311 235.98ZM714.245 237.463V235.968C714.245 235.5 714.206 235.097 714.128 234.761C714.05 234.422 713.934 234.144 713.782 233.929C713.63 233.715 713.442 233.556 713.22 233.455C712.997 233.349 712.739 233.297 712.446 233.297C712.169 233.297 711.919 233.349 711.696 233.455C711.477 233.556 711.29 233.715 711.134 233.929C710.977 234.144 710.856 234.422 710.77 234.761C710.688 235.097 710.647 235.5 710.647 235.968V237.463C710.647 237.935 710.688 238.342 710.77 238.681C710.856 239.017 710.977 239.295 711.134 239.513C711.294 239.728 711.485 239.888 711.708 239.994C711.93 240.095 712.179 240.146 712.452 240.146C712.745 240.146 713.003 240.095 713.225 239.994C713.452 239.888 713.639 239.728 713.788 239.513C713.94 239.295 714.054 239.017 714.128 238.681C714.206 238.342 714.245 237.935 714.245 237.463ZM719.038 240.217C719.245 240.217 719.432 240.176 719.6 240.093C719.772 240.008 719.913 239.875 720.022 239.695C720.132 239.511 720.194 239.273 720.21 238.98H721.182C721.167 239.402 721.059 239.773 720.86 240.093C720.665 240.41 720.407 240.658 720.087 240.838C719.77 241.013 719.421 241.101 719.038 241.101C718.628 241.101 718.27 241.035 717.966 240.902C717.665 240.769 717.415 240.578 717.216 240.328C717.02 240.074 716.874 239.767 716.776 239.408C716.679 239.045 716.63 238.633 716.63 238.172V237.457C716.63 236.996 716.679 236.586 716.776 236.226C716.874 235.863 717.02 235.556 717.216 235.306C717.415 235.052 717.665 234.859 717.966 234.726C718.27 234.593 718.628 234.527 719.038 234.527C719.468 234.527 719.839 234.619 720.151 234.802C720.468 234.982 720.714 235.244 720.889 235.588C721.069 235.927 721.167 236.34 721.182 236.824H720.21C720.194 236.511 720.137 236.252 720.04 236.045C719.942 235.834 719.809 235.677 719.641 235.576C719.473 235.47 719.272 235.418 719.038 235.418C718.764 235.418 718.538 235.467 718.358 235.564C718.182 235.658 718.044 235.795 717.942 235.974C717.841 236.154 717.768 236.369 717.725 236.619C717.686 236.869 717.667 237.148 717.667 237.457V238.172C717.667 238.48 717.686 238.761 717.725 239.015C717.768 239.265 717.839 239.48 717.936 239.66C718.038 239.84 718.179 239.978 718.358 240.076C718.538 240.17 718.764 240.217 719.038 240.217ZM724.698 234.644V235.476H721.739V234.644H724.698ZM722.706 233.103H723.743V239.414C723.743 239.629 723.768 239.791 723.819 239.9C723.874 240.009 723.942 240.082 724.024 240.117C724.106 240.152 724.194 240.17 724.288 240.17C724.358 240.17 724.436 240.162 724.522 240.146C724.608 240.127 724.667 240.111 724.698 240.099L724.692 240.984C724.622 241.011 724.528 241.037 724.411 241.06C724.294 241.088 724.145 241.101 723.966 241.101C723.743 241.101 723.536 241.049 723.345 240.943C723.153 240.838 722.999 240.662 722.882 240.416C722.764 240.166 722.706 239.83 722.706 239.408V233.103Z" fill="#99969E"/>
<path d="M788.172 229.984V223.978" stroke="#99969E"/>
<path d="M786.078 232.453V240.984H784.994L781.578 234.404V240.984H780.5V232.453H781.578L785.012 239.051V232.453H786.078ZM787.584 238.119V237.515C787.584 237.023 787.646 236.592 787.771 236.22C787.896 235.845 788.07 235.533 788.293 235.283C788.515 235.033 788.775 234.845 789.072 234.72C789.369 234.592 789.687 234.527 790.027 234.527C790.375 234.527 790.697 234.592 790.994 234.72C791.291 234.845 791.551 235.033 791.773 235.283C792 235.533 792.176 235.845 792.301 236.22C792.426 236.592 792.488 237.023 792.488 237.515V238.119C792.488 238.611 792.426 239.045 792.301 239.42C792.176 239.791 792.002 240.101 791.779 240.351C791.556 240.601 791.297 240.789 791 240.914C790.703 241.039 790.383 241.101 790.039 241.101C789.695 241.101 789.375 241.039 789.078 240.914C788.781 240.789 788.519 240.601 788.293 240.351C788.07 240.101 787.896 239.791 787.771 239.42C787.646 239.045 787.584 238.611 787.584 238.119ZM788.621 237.515V238.119C788.621 238.467 788.656 238.771 788.726 239.033C788.797 239.295 788.896 239.513 789.025 239.689C789.154 239.865 789.305 239.998 789.476 240.088C789.648 240.174 789.836 240.217 790.039 240.217C790.273 240.217 790.478 240.174 790.654 240.088C790.834 239.998 790.982 239.865 791.099 239.689C791.217 239.513 791.305 239.295 791.363 239.033C791.422 238.771 791.451 238.467 791.451 238.119V237.515C791.451 237.168 791.416 236.865 791.346 236.607C791.275 236.345 791.176 236.127 791.047 235.951C790.918 235.771 790.765 235.638 790.59 235.552C790.418 235.463 790.23 235.418 790.027 235.418C789.828 235.418 789.642 235.463 789.471 235.552C789.299 235.638 789.148 235.771 789.019 235.951C788.894 236.127 788.797 236.345 788.726 236.607C788.656 236.865 788.621 237.168 788.621 237.515ZM795.371 240.006L796.73 234.644H797.785L795.904 240.984H795.219L795.371 240.006ZM794.275 234.644L795.693 240.035L795.805 240.984H795.125L793.221 234.644H794.275Z" fill="#99969E"/>
<path d="M860 229.984V223.978" stroke="#99969E"/>
<path d="M838.646 240.984H837.193L837.205 240.064H838.646C839.158 240.064 839.574 239.967 839.894 239.771C840.215 239.572 840.451 239.279 840.603 238.892C840.756 238.502 840.832 238.019 840.832 237.445V235.986C840.832 235.533 840.789 235.142 840.703 234.814C840.617 234.486 840.488 234.217 840.316 234.006C840.144 233.795 839.928 233.638 839.666 233.537C839.404 233.431 839.097 233.379 838.746 233.379H837.164V232.453H838.746C839.226 232.453 839.66 232.529 840.047 232.681C840.433 232.83 840.765 233.054 841.043 233.355C841.32 233.652 841.531 234.021 841.676 234.463C841.824 234.904 841.898 235.416 841.898 235.998V237.445C841.898 238.027 841.824 238.539 841.676 238.98C841.531 239.422 841.318 239.791 841.037 240.088C840.756 240.384 840.414 240.609 840.012 240.761C839.613 240.91 839.158 240.984 838.646 240.984ZM837.791 232.453V240.984H836.713V232.453H837.791ZM845.695 241.101C845.316 241.101 844.974 241.045 844.67 240.931C844.365 240.818 844.105 240.646 843.89 240.416C843.676 240.181 843.512 239.886 843.398 239.531C843.285 239.176 843.228 238.756 843.228 238.271V237.556C843.228 236.998 843.293 236.525 843.422 236.138C843.555 235.752 843.732 235.441 843.955 235.207C844.178 234.968 844.43 234.797 844.711 234.691C844.992 234.582 845.281 234.527 845.578 234.527C845.976 234.527 846.316 234.592 846.597 234.72C846.879 234.849 847.107 235.041 847.283 235.295C847.459 235.549 847.588 235.861 847.67 236.232C847.756 236.603 847.799 237.031 847.799 237.515V238.119H843.838V237.234H846.762V237.088C846.746 236.759 846.701 236.47 846.627 236.22C846.556 235.97 846.439 235.775 846.275 235.634C846.111 235.49 845.879 235.418 845.578 235.418C845.387 235.418 845.209 235.451 845.045 235.517C844.885 235.58 844.746 235.691 844.629 235.851C844.515 236.008 844.426 236.224 844.359 236.502C844.297 236.779 844.265 237.131 844.265 237.556V238.271C844.265 238.611 844.297 238.904 844.359 239.15C844.426 239.392 844.521 239.593 844.646 239.754C844.775 239.91 844.931 240.027 845.115 240.105C845.303 240.179 845.515 240.217 845.754 240.217C846.101 240.217 846.389 240.15 846.615 240.017C846.842 239.881 847.039 239.707 847.207 239.496L847.752 240.146C847.639 240.306 847.49 240.461 847.306 240.609C847.127 240.754 846.904 240.873 846.639 240.967C846.377 241.056 846.062 241.101 845.695 241.101ZM851.25 240.217C851.457 240.217 851.644 240.176 851.812 240.093C851.984 240.008 852.125 239.875 852.234 239.695C852.344 239.511 852.406 239.273 852.422 238.98H853.394C853.379 239.402 853.271 239.773 853.072 240.093C852.877 240.41 852.619 240.658 852.299 240.838C851.982 241.013 851.633 241.101 851.25 241.101C850.84 241.101 850.482 241.035 850.178 240.902C849.877 240.769 849.627 240.578 849.428 240.328C849.232 240.074 849.086 239.767 848.988 239.408C848.89 239.045 848.842 238.633 848.842 238.172V237.457C848.842 236.996 848.89 236.586 848.988 236.226C849.086 235.863 849.232 235.556 849.428 235.306C849.627 235.052 849.877 234.859 850.178 234.726C850.482 234.593 850.84 234.527 851.25 234.527C851.68 234.527 852.051 234.619 852.363 234.802C852.68 234.982 852.926 235.244 853.101 235.588C853.281 235.927 853.379 236.34 853.394 236.824H852.422C852.406 236.511 852.349 236.252 852.252 236.045C852.154 235.834 852.021 235.677 851.853 235.576C851.685 235.47 851.484 235.418 851.25 235.418C850.976 235.418 850.75 235.467 850.57 235.564C850.394 235.658 850.256 235.795 850.154 235.974C850.053 236.154 849.98 236.369 849.937 236.619C849.898 236.869 849.879 237.148 849.879 237.457V238.172C849.879 238.48 849.898 238.761 849.937 239.015C849.98 239.265 850.051 239.48 850.148 239.66C850.25 239.84 850.39 239.978 850.57 240.076C850.75 240.17 850.976 240.217 851.25 240.217Z" fill="#99969E"/>
<path d="M54.6311 218.02V219.32C54.6311 220.02 54.5764 220.61 54.467 221.09C54.3615 221.57 54.2092 221.957 54.01 222.25C53.8108 222.543 53.5705 222.756 53.2893 222.889C53.0119 223.018 52.6994 223.082 52.3518 223.082C52.0783 223.082 51.8225 223.041 51.5842 222.959C51.3498 222.877 51.1389 222.746 50.9514 222.567C50.7639 222.383 50.6037 222.145 50.4709 221.852C50.3381 221.559 50.2365 221.203 50.1662 220.785C50.0959 220.367 50.0608 219.879 50.0608 219.32V218.02C50.0608 217.32 50.1155 216.735 50.2248 216.262C50.3342 215.789 50.4885 215.41 50.6877 215.125C50.8908 214.836 51.1311 214.629 51.4084 214.504C51.6897 214.379 52.0022 214.317 52.3459 214.317C52.6233 214.317 52.8791 214.358 53.1135 214.44C53.3518 214.518 53.5627 214.645 53.7463 214.82C53.9338 214.992 54.094 215.223 54.2268 215.512C54.3596 215.797 54.4592 216.147 54.5256 216.561C54.5959 216.975 54.6311 217.461 54.6311 218.02ZM53.5998 219.496V217.838C53.5998 217.455 53.5823 217.119 53.5471 216.83C53.5119 216.537 53.4612 216.287 53.3948 216.08C53.3283 215.873 53.2424 215.705 53.1369 215.576C53.0354 215.447 52.9182 215.354 52.7854 215.295C52.6526 215.233 52.5061 215.201 52.3459 215.201C52.1467 215.201 51.969 215.25 51.8127 215.348C51.6604 215.442 51.5295 215.592 51.4201 215.799C51.3147 216.006 51.2346 216.278 51.1799 216.613C51.1252 216.949 51.0979 217.358 51.0979 217.838V219.496C51.0979 219.879 51.1155 220.217 51.1506 220.51C51.1897 220.803 51.2424 221.057 51.3088 221.272C51.3791 221.483 51.4651 221.656 51.5666 221.793C51.6682 221.93 51.7854 222.031 51.9182 222.098C52.051 222.16 52.1955 222.192 52.3518 222.192C52.5588 222.192 52.7385 222.141 52.8908 222.039C53.0471 221.938 53.178 221.779 53.2834 221.565C53.3889 221.346 53.467 221.067 53.5178 220.727C53.5725 220.383 53.5998 219.973 53.5998 219.496Z" fill="#99969E"/>
<path d="M42.986 182.032V182.923H38.2165V182.143L40.5661 179.032C40.8551 178.649 41.0758 178.325 41.2282 178.059C41.3805 177.79 41.486 177.55 41.5446 177.339C41.6032 177.124 41.6325 176.905 41.6325 176.682C41.6325 176.401 41.5875 176.147 41.4977 175.921C41.4079 175.69 41.277 175.507 41.1051 175.37C40.9333 175.233 40.7262 175.165 40.484 175.165C40.1676 175.165 39.9079 175.239 39.7047 175.387C39.5055 175.532 39.359 175.735 39.2653 175.997C39.1715 176.259 39.1247 176.559 39.1247 176.899H38.0875C38.0875 176.419 38.1754 175.979 38.3512 175.581C38.5309 175.182 38.7985 174.866 39.154 174.632C39.5094 174.393 39.9528 174.274 40.484 174.274C40.9411 174.274 41.3317 174.37 41.6559 174.561C41.984 174.749 42.234 175.014 42.4059 175.358C42.5817 175.698 42.6696 176.096 42.6696 176.553C42.6696 176.803 42.6344 177.057 42.5641 177.315C42.4977 177.569 42.404 177.823 42.2829 178.077C42.1657 178.331 42.027 178.581 41.8668 178.827C41.7067 179.073 41.5348 179.315 41.3512 179.553L39.4586 182.032H42.986ZM45.4 178.862L44.5739 178.639L44.9372 174.391H48.652V175.393H45.8102L45.611 177.714C45.7438 177.624 45.904 177.54 46.0915 177.462C46.279 177.384 46.4977 177.345 46.7477 177.345C47.0836 177.345 47.3825 177.413 47.6442 177.55C47.9098 177.682 48.1344 177.874 48.318 178.124C48.5016 178.374 48.6422 178.675 48.7399 179.026C48.8375 179.378 48.8864 179.77 48.8864 180.204C48.8864 180.614 48.8375 180.991 48.7399 181.335C48.6461 181.678 48.5016 181.979 48.3063 182.237C48.1149 182.491 47.8727 182.688 47.5797 182.829C47.2907 182.97 46.9528 183.04 46.5661 183.04C46.277 183.04 46.0036 182.993 45.7458 182.899C45.4879 182.802 45.2555 182.655 45.0485 182.46C44.8454 182.261 44.6793 182.014 44.5504 181.721C44.4215 181.425 44.3415 181.077 44.3102 180.678H45.2887C45.3278 180.999 45.402 181.268 45.5114 181.487C45.6247 181.706 45.7692 181.872 45.945 181.985C46.1247 182.095 46.3317 182.149 46.5661 182.149C46.7653 182.149 46.945 182.104 47.1051 182.014C47.2653 181.925 47.4 181.796 47.5094 181.628C47.6188 181.46 47.7028 181.257 47.7614 181.018C47.82 180.78 47.8493 180.512 47.8493 180.216C47.8493 179.946 47.82 179.696 47.7614 179.466C47.7028 179.235 47.6149 179.034 47.4977 178.862C47.3805 178.69 47.2379 178.557 47.07 178.464C46.9059 178.366 46.7145 178.317 46.4958 178.317C46.2028 178.317 45.986 178.366 45.8454 178.464C45.7086 178.561 45.5602 178.694 45.4 178.862ZM54.6344 177.977V179.278C54.6344 179.977 54.5797 180.567 54.4704 181.048C54.3649 181.528 54.2125 181.915 54.0133 182.208C53.8141 182.501 53.5739 182.714 53.2926 182.846C53.0153 182.975 52.7028 183.04 52.3551 183.04C52.0817 183.04 51.8258 182.999 51.5875 182.917C51.3532 182.835 51.1422 182.704 50.9547 182.524C50.7672 182.341 50.6071 182.102 50.4743 181.809C50.3415 181.516 50.2399 181.161 50.1696 180.743C50.0993 180.325 50.0641 179.837 50.0641 179.278V177.977C50.0641 177.278 50.1188 176.692 50.2282 176.22C50.3375 175.747 50.4918 175.368 50.6911 175.083C50.8942 174.794 51.1344 174.587 51.4118 174.462C51.693 174.337 52.0055 174.274 52.3493 174.274C52.6266 174.274 52.8825 174.315 53.1168 174.397C53.3551 174.475 53.5661 174.602 53.7497 174.778C53.9372 174.95 54.0973 175.18 54.2301 175.47C54.3629 175.755 54.4625 176.104 54.529 176.518C54.5993 176.932 54.6344 177.419 54.6344 177.977ZM53.6032 179.454V177.796C53.6032 177.413 53.5856 177.077 53.5504 176.788C53.5153 176.495 53.4645 176.245 53.3981 176.038C53.3317 175.831 53.2458 175.663 53.1403 175.534C53.0387 175.405 52.9215 175.311 52.7887 175.253C52.6559 175.19 52.5094 175.159 52.3493 175.159C52.15 175.159 51.9723 175.208 51.8161 175.305C51.6637 175.399 51.5329 175.55 51.4235 175.757C51.318 175.964 51.2379 176.235 51.1833 176.571C51.1286 176.907 51.1012 177.315 51.1012 177.796V179.454C51.1012 179.837 51.1188 180.175 51.154 180.468C51.193 180.761 51.2458 181.014 51.3122 181.229C51.3825 181.44 51.4684 181.614 51.57 181.751C51.6715 181.887 51.7887 181.989 51.9215 182.055C52.0543 182.118 52.1989 182.149 52.3551 182.149C52.5622 182.149 52.7418 182.098 52.8942 181.997C53.0504 181.895 53.1813 181.737 53.2868 181.522C53.3922 181.303 53.4704 181.024 53.5211 180.684C53.5758 180.341 53.6032 179.93 53.6032 179.454Z" fill="#99969E"/>
<path d="M39.4704 138.82L38.6442 138.597L39.0075 134.349H42.7223V135.351H39.8805L39.6813 137.671C39.8141 137.581 39.9743 137.497 40.1618 137.419C40.3493 137.341 40.568 137.302 40.818 137.302C41.154 137.302 41.4528 137.371 41.7145 137.507C41.9801 137.64 42.2047 137.831 42.3883 138.081C42.5719 138.331 42.7125 138.632 42.8102 138.984C42.9079 139.335 42.9567 139.728 42.9567 140.162C42.9567 140.572 42.9079 140.949 42.8102 141.292C42.7165 141.636 42.5719 141.937 42.3766 142.195C42.1852 142.449 41.943 142.646 41.65 142.787C41.361 142.927 41.0231 142.997 40.6364 142.997C40.3473 142.997 40.0739 142.951 39.8161 142.857C39.5583 142.759 39.3258 142.613 39.1188 142.417C38.9157 142.218 38.7497 141.972 38.6208 141.679C38.4918 141.382 38.4118 141.035 38.3805 140.636H39.359C39.3981 140.956 39.4723 141.226 39.5817 141.445C39.695 141.663 39.8395 141.829 40.0153 141.943C40.195 142.052 40.402 142.107 40.6364 142.107C40.8356 142.107 41.0153 142.062 41.1754 141.972C41.3356 141.882 41.4704 141.753 41.5797 141.585C41.6891 141.417 41.7731 141.214 41.8317 140.976C41.8903 140.738 41.9196 140.47 41.9196 140.173C41.9196 139.904 41.8903 139.654 41.8317 139.423C41.7731 139.193 41.6852 138.992 41.568 138.82C41.4508 138.648 41.3083 138.515 41.1403 138.421C40.9762 138.324 40.7848 138.275 40.5661 138.275C40.2731 138.275 40.0563 138.324 39.9157 138.421C39.779 138.519 39.6305 138.652 39.4704 138.82ZM48.7047 137.935V139.236C48.7047 139.935 48.65 140.525 48.5407 141.005C48.4352 141.486 48.2829 141.872 48.0836 142.165C47.8844 142.458 47.6442 142.671 47.3629 142.804C47.0856 142.933 46.7731 142.997 46.4254 142.997C46.152 142.997 45.8961 142.956 45.6579 142.874C45.4235 142.792 45.2125 142.662 45.025 142.482C44.8375 142.298 44.6774 142.06 44.5446 141.767C44.4118 141.474 44.3102 141.119 44.2399 140.701C44.1696 140.283 44.1344 139.794 44.1344 139.236V137.935C44.1344 137.236 44.1891 136.65 44.2985 136.177C44.4079 135.704 44.5622 135.326 44.7614 135.04C44.9645 134.751 45.2047 134.544 45.4821 134.419C45.7633 134.294 46.0758 134.232 46.4196 134.232C46.6969 134.232 46.9528 134.273 47.1872 134.355C47.4254 134.433 47.6364 134.56 47.82 134.736C48.0075 134.908 48.1676 135.138 48.3004 135.427C48.4333 135.712 48.5329 136.062 48.5993 136.476C48.6696 136.89 48.7047 137.376 48.7047 137.935ZM47.6735 139.412V137.753C47.6735 137.371 47.6559 137.035 47.6208 136.746C47.5856 136.453 47.5348 136.203 47.4684 135.996C47.402 135.788 47.3161 135.621 47.2106 135.492C47.109 135.363 46.9918 135.269 46.859 135.21C46.7262 135.148 46.5797 135.117 46.4196 135.117C46.2204 135.117 46.0426 135.165 45.8864 135.263C45.734 135.357 45.6032 135.507 45.4938 135.714C45.3883 135.921 45.3083 136.193 45.2536 136.529C45.1989 136.865 45.1715 137.273 45.1715 137.753V139.412C45.1715 139.794 45.1891 140.132 45.2243 140.425C45.2633 140.718 45.3161 140.972 45.3825 141.187C45.4528 141.398 45.5387 141.572 45.6403 141.708C45.7418 141.845 45.859 141.947 45.9918 142.013C46.1247 142.076 46.2692 142.107 46.4254 142.107C46.6325 142.107 46.8122 142.056 46.9645 141.954C47.1208 141.853 47.2516 141.695 47.3571 141.48C47.4625 141.261 47.5407 140.982 47.5915 140.642C47.6461 140.298 47.6735 139.888 47.6735 139.412ZM54.6344 137.935V139.236C54.6344 139.935 54.5797 140.525 54.4704 141.005C54.3649 141.486 54.2125 141.872 54.0133 142.165C53.8141 142.458 53.5739 142.671 53.2926 142.804C53.0153 142.933 52.7028 142.997 52.3551 142.997C52.0817 142.997 51.8258 142.956 51.5875 142.874C51.3532 142.792 51.1422 142.662 50.9547 142.482C50.7672 142.298 50.6071 142.06 50.4743 141.767C50.3415 141.474 50.2399 141.119 50.1696 140.701C50.0993 140.283 50.0641 139.794 50.0641 139.236V137.935C50.0641 137.236 50.1188 136.65 50.2282 136.177C50.3375 135.704 50.4918 135.326 50.6911 135.04C50.8942 134.751 51.1344 134.544 51.4118 134.419C51.693 134.294 52.0055 134.232 52.3493 134.232C52.6266 134.232 52.8825 134.273 53.1168 134.355C53.3551 134.433 53.5661 134.56 53.7497 134.736C53.9372 134.908 54.0973 135.138 54.2301 135.427C54.3629 135.712 54.4625 136.062 54.529 136.476C54.5993 136.89 54.6344 137.376 54.6344 137.935ZM53.6032 139.412V137.753C53.6032 137.371 53.5856 137.035 53.5504 136.746C53.5153 136.453 53.4645 136.203 53.3981 135.996C53.3317 135.788 53.2458 135.621 53.1403 135.492C53.0387 135.363 52.9215 135.269 52.7887 135.21C52.6559 135.148 52.5094 135.117 52.3493 135.117C52.15 135.117 51.9723 135.165 51.8161 135.263C51.6637 135.357 51.5329 135.507 51.4235 135.714C51.318 135.921 51.2379 136.193 51.1833 136.529C51.1286 136.865 51.1012 137.273 51.1012 137.753V139.412C51.1012 139.794 51.1188 140.132 51.154 140.425C51.193 140.718 51.2458 140.972 51.3122 141.187C51.3825 141.398 51.4684 141.572 51.57 141.708C51.6715 141.845 51.7887 141.947 51.9215 142.013C52.0543 142.076 52.1989 142.107 52.3551 142.107C52.5622 142.107 52.7418 142.056 52.8942 141.954C53.0504 141.853 53.1813 141.695 53.2868 141.48C53.3922 141.261 53.4704 140.982 53.5211 140.642C53.5758 140.298 53.6032 139.888 53.6032 139.412Z" fill="#99969E"/>
<path d="M42.9264 94.3067V94.916L39.9908 102.838H38.901L41.8365 95.1973H38.0338V94.3067H42.9264ZM45.399 98.7774L44.5729 98.5547L44.9362 94.3067H48.651V95.3086H45.8092L45.61 97.6289C45.7428 97.5391 45.903 97.4551 46.0905 97.377C46.278 97.2989 46.4967 97.2598 46.7467 97.2598C47.0826 97.2598 47.3815 97.3282 47.6432 97.4649C47.9088 97.5977 48.1334 97.7891 48.317 98.0391C48.5006 98.2891 48.6412 98.5899 48.7389 98.9414C48.8365 99.293 48.8854 99.6856 48.8854 100.119C48.8854 100.529 48.8365 100.906 48.7389 101.25C48.6451 101.594 48.5006 101.895 48.3053 102.152C48.1139 102.406 47.8717 102.604 47.5787 102.744C47.2897 102.885 46.9518 102.955 46.5651 102.955C46.276 102.955 46.0026 102.908 45.7447 102.814C45.4869 102.717 45.2545 102.57 45.0475 102.375C44.8444 102.176 44.6783 101.93 44.5494 101.637C44.4205 101.34 44.3405 100.992 44.3092 100.594H45.2877C45.3268 100.914 45.401 101.184 45.5104 101.402C45.6237 101.621 45.7682 101.787 45.944 101.9C46.1237 102.01 46.3307 102.064 46.5651 102.064C46.7643 102.064 46.944 102.02 47.1041 101.93C47.2643 101.84 47.399 101.711 47.5084 101.543C47.6178 101.375 47.7018 101.172 47.7604 100.934C47.819 100.695 47.8483 100.428 47.8483 100.131C47.8483 99.8614 47.819 99.6114 47.7604 99.3809C47.7018 99.1504 47.6139 98.9492 47.4967 98.7774C47.3795 98.6055 47.2369 98.4727 47.069 98.3789C46.9049 98.2813 46.7135 98.2325 46.4947 98.2325C46.2018 98.2325 45.985 98.2813 45.8444 98.3789C45.7076 98.4766 45.5592 98.6094 45.399 98.7774ZM54.6334 97.8926V99.1934C54.6334 99.8926 54.5787 100.482 54.4694 100.963C54.3639 101.443 54.2115 101.83 54.0123 102.123C53.8131 102.416 53.5729 102.629 53.2916 102.762C53.0143 102.891 52.7018 102.955 52.3541 102.955C52.0807 102.955 51.8248 102.914 51.5865 102.832C51.3522 102.75 51.1412 102.619 50.9537 102.439C50.7662 102.256 50.6061 102.018 50.4733 101.725C50.3405 101.432 50.2389 101.076 50.1686 100.658C50.0983 100.24 50.0631 99.752 50.0631 99.1934V97.8926C50.0631 97.1934 50.1178 96.6075 50.2272 96.1348C50.3365 95.6621 50.4908 95.2832 50.6901 94.9981C50.8932 94.709 51.1334 94.502 51.4108 94.377C51.692 94.252 52.0045 94.1895 52.3483 94.1895C52.6256 94.1895 52.8815 94.2305 53.1158 94.3125C53.3541 94.3907 53.5651 94.5176 53.7487 94.6934C53.9362 94.8653 54.0963 95.0957 54.2291 95.3848C54.3619 95.67 54.4615 96.0196 54.528 96.4336C54.5983 96.8477 54.6334 97.334 54.6334 97.8926ZM53.6022 99.3692V97.711C53.6022 97.3282 53.5846 96.9922 53.5494 96.7032C53.5143 96.4102 53.4635 96.1602 53.3971 95.9532C53.3307 95.7461 53.2447 95.5782 53.1393 95.4492C53.0377 95.3203 52.9205 95.2266 52.7877 95.168C52.6549 95.1055 52.5084 95.0742 52.3483 95.0742C52.149 95.0742 51.9713 95.1231 51.8151 95.2207C51.6627 95.3145 51.5319 95.4649 51.4225 95.6719C51.317 95.8789 51.2369 96.1504 51.1822 96.4864C51.1276 96.8223 51.1002 97.2305 51.1002 97.711V99.3692C51.1002 99.752 51.1178 100.09 51.153 100.383C51.192 100.676 51.2447 100.93 51.3112 101.145C51.3815 101.355 51.4674 101.529 51.569 101.666C51.6705 101.803 51.7877 101.904 51.9205 101.971C52.0533 102.033 52.1979 102.064 52.3541 102.064C52.5612 102.064 52.7408 102.014 52.8932 101.912C53.0494 101.811 53.1803 101.652 53.2858 101.438C53.3912 101.219 53.4694 100.939 53.5201 100.6C53.5748 100.256 53.6022 99.8457 53.6022 99.3692Z" fill="#99969E"/>
<path d="M35.3729 58.4219V67H34.3358V59.7754L32.5428 60.5723V59.5938L35.2147 58.4219H35.3729ZM42.7733 62.0547V63.3555C42.7733 64.0547 42.7186 64.6445 42.6092 65.125C42.5037 65.6055 42.3514 65.9922 42.1522 66.2852C41.9529 66.5781 41.7127 66.791 41.4315 66.9238C41.1541 67.0527 40.8416 67.1172 40.494 67.1172C40.2205 67.1172 39.9647 67.0762 39.7264 66.9941C39.492 66.9121 39.2811 66.7812 39.0936 66.6016C38.9061 66.418 38.7459 66.1797 38.6131 65.8867C38.4803 65.5938 38.3787 65.2383 38.3084 64.8203C38.2381 64.4023 38.2029 63.9141 38.2029 63.3555V62.0547C38.2029 61.3555 38.2576 60.7695 38.367 60.2969C38.4764 59.8242 38.6307 59.4453 38.8299 59.1602C39.033 58.8711 39.2733 58.6641 39.5506 58.5391C39.8319 58.4141 40.1444 58.3516 40.4881 58.3516C40.7654 58.3516 41.0213 58.3926 41.2557 58.4746C41.494 58.5527 41.7049 58.6797 41.8885 58.8555C42.076 59.0273 42.2361 59.2578 42.369 59.5469C42.5018 59.832 42.6014 60.1816 42.6678 60.5957C42.7381 61.0098 42.7733 61.4961 42.7733 62.0547ZM41.742 63.5312V61.873C41.742 61.4902 41.7244 61.1543 41.6893 60.8652C41.6541 60.5723 41.6033 60.3223 41.5369 60.1152C41.4705 59.9082 41.3846 59.7402 41.2791 59.6113C41.1776 59.4824 41.0604 59.3887 40.9276 59.3301C40.7947 59.2676 40.6483 59.2363 40.4881 59.2363C40.2889 59.2363 40.1111 59.2852 39.9549 59.3828C39.8026 59.4766 39.6717 59.627 39.5623 59.834C39.4569 60.041 39.3768 60.3125 39.3221 60.6484C39.2674 60.9844 39.2401 61.3926 39.2401 61.873V63.5312C39.2401 63.9141 39.2576 64.252 39.2928 64.5449C39.3319 64.8379 39.3846 65.0918 39.451 65.3066C39.5213 65.5176 39.6072 65.6914 39.7088 65.8281C39.8104 65.9648 39.9276 66.0664 40.0604 66.1328C40.1932 66.1953 40.3377 66.2266 40.494 66.2266C40.701 66.2266 40.8807 66.1758 41.033 66.0742C41.1893 65.9727 41.3201 65.8145 41.4256 65.5996C41.5311 65.3809 41.6092 65.1016 41.66 64.7617C41.7147 64.418 41.742 64.0078 41.742 63.5312ZM48.7029 62.0547V63.3555C48.7029 64.0547 48.6483 64.6445 48.5389 65.125C48.4334 65.6055 48.2811 65.9922 48.0819 66.2852C47.8826 66.5781 47.6424 66.791 47.3611 66.9238C47.0838 67.0527 46.7713 67.1172 46.4236 67.1172C46.1502 67.1172 45.8944 67.0762 45.6561 66.9941C45.4217 66.9121 45.2108 66.7812 45.0233 66.6016C44.8358 66.418 44.6756 66.1797 44.5428 65.8867C44.41 65.5938 44.3084 65.2383 44.2381 64.8203C44.1678 64.4023 44.1326 63.9141 44.1326 63.3555V62.0547C44.1326 61.3555 44.1873 60.7695 44.2967 60.2969C44.4061 59.8242 44.5604 59.4453 44.7596 59.1602C44.9627 58.8711 45.2029 58.6641 45.4803 58.5391C45.7615 58.4141 46.074 58.3516 46.4178 58.3516C46.6951 58.3516 46.951 58.3926 47.1854 58.4746C47.4236 58.5527 47.6346 58.6797 47.8182 58.8555C48.0057 59.0273 48.1658 59.2578 48.2986 59.5469C48.4315 59.832 48.5311 60.1816 48.5975 60.5957C48.6678 61.0098 48.7029 61.4961 48.7029 62.0547ZM47.6717 63.5312V61.873C47.6717 61.4902 47.6541 61.1543 47.619 60.8652C47.5838 60.5723 47.533 60.3223 47.4666 60.1152C47.4002 59.9082 47.3143 59.7402 47.2088 59.6113C47.1072 59.4824 46.9901 59.3887 46.8572 59.3301C46.7244 59.2676 46.5779 59.2363 46.4178 59.2363C46.2186 59.2363 46.0408 59.2852 45.8846 59.3828C45.7322 59.4766 45.6014 59.627 45.492 59.834C45.3865 60.041 45.3065 60.3125 45.2518 60.6484C45.1971 60.9844 45.1697 61.3926 45.1697 61.873V63.5312C45.1697 63.9141 45.1873 64.252 45.2225 64.5449C45.2615 64.8379 45.3143 65.0918 45.3807 65.3066C45.451 65.5176 45.5369 65.6914 45.6385 65.8281C45.7401 65.9648 45.8572 66.0664 45.9901 66.1328C46.1229 66.1953 46.2674 66.2266 46.4236 66.2266C46.6307 66.2266 46.8104 66.1758 46.9627 66.0742C47.119 65.9727 47.2498 65.8145 47.3553 65.5996C47.4608 65.3809 47.5389 65.1016 47.5897 64.7617C47.6444 64.418 47.6717 64.0078 47.6717 63.5312ZM54.6326 62.0547V63.3555C54.6326 64.0547 54.5779 64.6445 54.4686 65.125C54.3631 65.6055 54.2108 65.9922 54.0115 66.2852C53.8123 66.5781 53.5721 66.791 53.2908 66.9238C53.0135 67.0527 52.701 67.1172 52.3533 67.1172C52.0799 67.1172 51.824 67.0762 51.5858 66.9941C51.3514 66.9121 51.1404 66.7812 50.9529 66.6016C50.7654 66.418 50.6053 66.1797 50.4725 65.8867C50.3397 65.5938 50.2381 65.2383 50.1678 64.8203C50.0975 64.4023 50.0623 63.9141 50.0623 63.3555V62.0547C50.0623 61.3555 50.117 60.7695 50.2264 60.2969C50.3358 59.8242 50.4901 59.4453 50.6893 59.1602C50.8924 58.8711 51.1326 58.6641 51.41 58.5391C51.6912 58.4141 52.0037 58.3516 52.3475 58.3516C52.6248 58.3516 52.8807 58.3926 53.1151 58.4746C53.3533 58.5527 53.5643 58.6797 53.7479 58.8555C53.9354 59.0273 54.0955 59.2578 54.2283 59.5469C54.3611 59.832 54.4608 60.1816 54.5272 60.5957C54.5975 61.0098 54.6326 61.4961 54.6326 62.0547ZM53.6014 63.5312V61.873C53.6014 61.4902 53.5838 61.1543 53.5486 60.8652C53.5135 60.5723 53.4627 60.3223 53.3963 60.1152C53.3299 59.9082 53.244 59.7402 53.1385 59.6113C53.0369 59.4824 52.9197 59.3887 52.7869 59.3301C52.6541 59.2676 52.5076 59.2363 52.3475 59.2363C52.1483 59.2363 51.9705 59.2852 51.8143 59.3828C51.6619 59.4766 51.5311 59.627 51.4217 59.834C51.3162 60.041 51.2361 60.3125 51.1815 60.6484C51.1268 60.9844 51.0994 61.3926 51.0994 61.873V63.5312C51.0994 63.9141 51.117 64.252 51.1522 64.5449C51.1912 64.8379 51.244 65.0918 51.3104 65.3066C51.3807 65.5176 51.4666 65.6914 51.5682 65.8281C51.6697 65.9648 51.7869 66.0664 51.9197 66.1328C52.0526 66.1953 52.1971 66.2266 52.3533 66.2266C52.5604 66.2266 52.7401 66.1758 52.8924 66.0742C53.0486 65.9727 53.1795 65.8145 53.285 65.5996C53.3904 65.3809 53.4686 65.1016 53.5194 64.7617C53.574 64.418 53.6014 64.0078 53.6014 63.5312Z" fill="#99969E"/>
<path d="M69.8516 223.978H859.999" stroke="#D1D1D1"/>
<path d="M69.8516 183.935H859.999" stroke="#D1D1D1"/>
<path d="M69.8516 143.893H859.999" stroke="#D1D1D1"/>
<path d="M69.8516 103.851H859.999" stroke="#D1D1D1"/>
<path d="M69.8516 63.8083H859.999" stroke="#D1D1D1"/>
<path d="M69.8516 151.261L141.683 220.294L213.515 168.399L285.346 88.7947L357.178 63.8083L429.009 104.812L500.841 180.892L572.673 107.695L644.504 183.775L716.336 212.606L788.167 70.0549L859.999 100.167" stroke="#1900D5"/>
<circle cx="501" cy="179" r="7" fill="white" stroke="black" stroke-width="2"/>
<g filter="url(#filter0_d_3081_13647)">
<rect x="456" y="101" width="89" height="48" rx="8" fill="white" shape-rendering="crispEdges"/>
<path d="M475.867 117.51V111.469H476.939V117.51C476.939 118.072 476.842 118.547 476.646 118.934C476.451 119.32 476.18 119.615 475.832 119.818C475.488 120.018 475.092 120.117 474.643 120.117C474.201 120.117 473.807 120.027 473.459 119.848C473.111 119.668 472.838 119.395 472.639 119.027C472.443 118.66 472.346 118.197 472.346 117.639H473.424C473.424 117.998 473.477 118.293 473.582 118.523C473.691 118.754 473.838 118.924 474.021 119.033C474.205 119.143 474.412 119.197 474.643 119.197C474.877 119.197 475.086 119.135 475.27 119.01C475.453 118.881 475.598 118.691 475.703 118.441C475.812 118.188 475.867 117.877 475.867 117.51ZM481.785 118.535V113.66H482.822V120H481.838L481.785 118.535ZM481.979 117.199L482.389 117.188C482.389 117.609 482.352 118 482.277 118.359C482.207 118.715 482.09 119.023 481.926 119.285C481.766 119.547 481.553 119.752 481.287 119.9C481.021 120.045 480.695 120.117 480.309 120.117C480.047 120.117 479.809 120.072 479.594 119.982C479.383 119.893 479.199 119.754 479.043 119.566C478.891 119.379 478.771 119.135 478.686 118.834C478.604 118.533 478.562 118.172 478.562 117.75V113.66H479.594V117.762C479.594 118.047 479.619 118.283 479.67 118.471C479.721 118.654 479.789 118.801 479.875 118.91C479.961 119.016 480.057 119.09 480.162 119.133C480.268 119.176 480.375 119.197 480.484 119.197C480.852 119.197 481.145 119.109 481.363 118.934C481.582 118.754 481.738 118.514 481.832 118.213C481.93 117.908 481.979 117.57 481.979 117.199ZM485.494 111V120H484.463V111H485.494ZM488.166 118.711V119.584C488.166 119.939 488.076 120.314 487.896 120.709C487.717 121.107 487.465 121.439 487.141 121.705L486.525 121.277C486.65 121.105 486.756 120.93 486.842 120.75C486.928 120.574 486.992 120.391 487.035 120.199C487.082 120.012 487.105 119.812 487.105 119.602V118.711H488.166ZM496.932 119.109V120H492.162V119.221L494.512 116.109C494.801 115.727 495.021 115.402 495.174 115.137C495.326 114.867 495.432 114.627 495.49 114.416C495.549 114.201 495.578 113.982 495.578 113.76C495.578 113.479 495.533 113.225 495.443 112.998C495.354 112.768 495.223 112.584 495.051 112.447C494.879 112.311 494.672 112.242 494.43 112.242C494.113 112.242 493.854 112.316 493.65 112.465C493.451 112.609 493.305 112.812 493.211 113.074C493.117 113.336 493.07 113.637 493.07 113.977H492.033C492.033 113.496 492.121 113.057 492.297 112.658C492.477 112.26 492.744 111.943 493.1 111.709C493.455 111.471 493.898 111.352 494.43 111.352C494.887 111.352 495.277 111.447 495.602 111.639C495.93 111.826 496.18 112.092 496.352 112.436C496.527 112.775 496.615 113.174 496.615 113.631C496.615 113.881 496.58 114.135 496.51 114.393C496.443 114.646 496.35 114.9 496.229 115.154C496.111 115.408 495.973 115.658 495.812 115.904C495.652 116.15 495.48 116.393 495.297 116.631L493.404 119.109H496.932ZM502.65 115.055V116.355C502.65 117.055 502.596 117.645 502.486 118.125C502.381 118.605 502.229 118.992 502.029 119.285C501.83 119.578 501.59 119.791 501.309 119.924C501.031 120.053 500.719 120.117 500.371 120.117C500.098 120.117 499.842 120.076 499.604 119.994C499.369 119.912 499.158 119.781 498.971 119.602C498.783 119.418 498.623 119.18 498.49 118.887C498.357 118.594 498.256 118.238 498.186 117.82C498.115 117.402 498.08 116.914 498.08 116.355V115.055C498.08 114.355 498.135 113.77 498.244 113.297C498.354 112.824 498.508 112.445 498.707 112.16C498.91 111.871 499.15 111.664 499.428 111.539C499.709 111.414 500.021 111.352 500.365 111.352C500.643 111.352 500.898 111.393 501.133 111.475C501.371 111.553 501.582 111.68 501.766 111.855C501.953 112.027 502.113 112.258 502.246 112.547C502.379 112.832 502.479 113.182 502.545 113.596C502.615 114.01 502.65 114.496 502.65 115.055ZM501.619 116.531V114.873C501.619 114.49 501.602 114.154 501.566 113.865C501.531 113.572 501.48 113.322 501.414 113.115C501.348 112.908 501.262 112.74 501.156 112.611C501.055 112.482 500.938 112.389 500.805 112.33C500.672 112.268 500.525 112.236 500.365 112.236C500.166 112.236 499.988 112.285 499.832 112.383C499.68 112.477 499.549 112.627 499.439 112.834C499.334 113.041 499.254 113.312 499.199 113.648C499.145 113.984 499.117 114.393 499.117 114.873V116.531C499.117 116.914 499.135 117.252 499.17 117.545C499.209 117.838 499.262 118.092 499.328 118.307C499.398 118.518 499.484 118.691 499.586 118.828C499.688 118.965 499.805 119.066 499.938 119.133C500.07 119.195 500.215 119.227 500.371 119.227C500.578 119.227 500.758 119.176 500.91 119.074C501.066 118.973 501.197 118.814 501.303 118.6C501.408 118.381 501.486 118.102 501.537 117.762C501.592 117.418 501.619 117.008 501.619 116.531ZM508.791 119.109V120H504.021V119.221L506.371 116.109C506.66 115.727 506.881 115.402 507.033 115.137C507.186 114.867 507.291 114.627 507.35 114.416C507.408 114.201 507.438 113.982 507.438 113.76C507.438 113.479 507.393 113.225 507.303 112.998C507.213 112.768 507.082 112.584 506.91 112.447C506.738 112.311 506.531 112.242 506.289 112.242C505.973 112.242 505.713 112.316 505.51 112.465C505.311 112.609 505.164 112.812 505.07 113.074C504.977 113.336 504.93 113.637 504.93 113.977H503.893C503.893 113.496 503.98 113.057 504.156 112.658C504.336 112.26 504.604 111.943 504.959 111.709C505.314 111.471 505.758 111.352 506.289 111.352C506.746 111.352 507.137 111.447 507.461 111.639C507.789 111.826 508.039 112.092 508.211 112.436C508.387 112.775 508.475 113.174 508.475 113.631C508.475 113.881 508.439 114.135 508.369 114.393C508.303 114.646 508.209 114.9 508.088 115.154C507.971 115.408 507.832 115.658 507.672 115.904C507.512 116.15 507.34 116.393 507.156 116.631L505.264 119.109H508.791ZM514.721 119.109V120H509.951V119.221L512.301 116.109C512.59 115.727 512.811 115.402 512.963 115.137C513.115 114.867 513.221 114.627 513.279 114.416C513.338 114.201 513.367 113.982 513.367 113.76C513.367 113.479 513.322 113.225 513.232 112.998C513.143 112.768 513.012 112.584 512.84 112.447C512.668 112.311 512.461 112.242 512.219 112.242C511.902 112.242 511.643 112.316 511.439 112.465C511.24 112.609 511.094 112.812 511 113.074C510.906 113.336 510.859 113.637 510.859 113.977H509.822C509.822 113.496 509.91 113.057 510.086 112.658C510.266 112.26 510.533 111.943 510.889 111.709C511.244 111.471 511.688 111.352 512.219 111.352C512.676 111.352 513.066 111.447 513.391 111.639C513.719 111.826 513.969 112.092 514.141 112.436C514.316 112.775 514.404 113.174 514.404 113.631C514.404 113.881 514.369 114.135 514.299 114.393C514.232 114.646 514.139 114.9 514.018 115.154C513.9 115.408 513.762 115.658 513.602 115.904C513.441 116.15 513.27 116.393 513.086 116.631L511.193 119.109H514.721Z" fill="#99969E"/>
<circle cx="477" cy="133" r="5.5" fill="#1900D5" stroke="black"/>
<path d="M494.266 126.461V128.491H493.24V126.461H494.266ZM494.122 137.624V139.477H493.097V137.624H494.122ZM494.505 135.375C494.505 135.124 494.471 134.91 494.402 134.732C494.334 134.555 494.227 134.395 494.081 134.254C493.935 134.113 493.739 133.978 493.493 133.851C492.992 133.623 492.55 133.379 492.167 133.119C491.784 132.859 491.486 132.538 491.271 132.155C491.062 131.768 490.957 131.276 490.957 130.679C490.957 130.114 491.071 129.624 491.299 129.209C491.531 128.794 491.853 128.473 492.263 128.245C492.677 128.017 493.154 127.903 493.691 127.903C494.102 127.903 494.475 127.976 494.812 128.122C495.15 128.263 495.439 128.473 495.681 128.751C495.922 129.024 496.107 129.362 496.234 129.763C496.367 130.159 496.433 130.613 496.433 131.123H494.519C494.519 130.854 494.498 130.617 494.457 130.412C494.416 130.207 494.357 130.036 494.279 129.899C494.202 129.763 494.111 129.66 494.006 129.592C493.901 129.523 493.787 129.489 493.664 129.489C493.482 129.489 493.331 129.542 493.213 129.646C493.094 129.751 493.008 129.895 492.953 130.077C492.898 130.255 492.871 130.455 492.871 130.679C492.871 130.907 492.903 131.105 492.967 131.273C493.035 131.442 493.145 131.597 493.295 131.738C493.45 131.88 493.653 132.023 493.903 132.169C494.4 132.401 494.838 132.652 495.216 132.921C495.594 133.185 495.888 133.511 496.098 133.898C496.312 134.281 496.419 134.769 496.419 135.361C496.419 135.954 496.3 136.457 496.063 136.872C495.826 137.287 495.496 137.604 495.072 137.822C494.653 138.036 494.161 138.144 493.596 138.144C493.236 138.144 492.88 138.089 492.529 137.979C492.183 137.866 491.866 137.683 491.579 137.433C491.292 137.177 491.062 136.842 490.889 136.428C490.72 136.008 490.636 135.489 490.636 134.869H492.55C492.55 135.197 492.577 135.471 492.632 135.689C492.691 135.904 492.771 136.075 492.871 136.202C492.971 136.33 493.083 136.421 493.206 136.476C493.329 136.53 493.461 136.558 493.603 136.558C493.808 136.558 493.976 136.505 494.108 136.4C494.241 136.296 494.339 136.154 494.402 135.977C494.471 135.799 494.505 135.598 494.505 135.375ZM499.468 133.488L497.937 133.105L498.436 128.047H503.241V129.688H500.008L499.823 131.827C499.928 131.754 500.083 131.674 500.288 131.588C500.498 131.501 500.73 131.458 500.985 131.458C501.396 131.458 501.76 131.533 502.079 131.684C502.398 131.834 502.667 132.053 502.886 132.34C503.104 132.627 503.271 132.978 503.385 133.393C503.499 133.807 503.556 134.277 503.556 134.801C503.556 135.243 503.494 135.664 503.371 136.065C503.253 136.466 503.073 136.822 502.831 137.132C502.59 137.442 502.286 137.688 501.922 137.87C501.557 138.048 501.131 138.137 500.644 138.137C500.274 138.137 499.917 138.073 499.57 137.945C499.229 137.818 498.921 137.629 498.647 137.378C498.374 137.123 498.155 136.817 497.991 136.462C497.827 136.102 497.745 135.692 497.745 135.231H499.639C499.657 135.5 499.709 135.735 499.796 135.936C499.887 136.132 500.001 136.282 500.138 136.387C500.279 136.492 500.443 136.544 500.63 136.544C500.812 136.544 500.969 136.498 501.102 136.407C501.234 136.312 501.339 136.179 501.416 136.011C501.493 135.842 501.55 135.646 501.587 135.423C501.623 135.195 501.642 134.951 501.642 134.691C501.642 134.427 501.617 134.188 501.566 133.974C501.521 133.759 501.448 133.577 501.348 133.427C501.252 133.272 501.129 133.153 500.979 133.071C500.828 132.985 500.65 132.941 500.445 132.941C500.167 132.941 499.958 133.001 499.816 133.119C499.68 133.233 499.563 133.356 499.468 133.488ZM506.789 136.318V137.665C506.789 138.18 506.661 138.697 506.406 139.217C506.151 139.741 505.827 140.169 505.436 140.502L504.41 139.969C504.524 139.759 504.636 139.547 504.745 139.333C504.854 139.119 504.946 138.884 505.019 138.629C505.091 138.374 505.128 138.084 505.128 137.761V136.318H506.789ZM509.981 133.488L508.45 133.105L508.949 128.047H513.755V129.688H510.521L510.337 131.827C510.442 131.754 510.597 131.674 510.802 131.588C511.011 131.501 511.244 131.458 511.499 131.458C511.909 131.458 512.274 131.533 512.593 131.684C512.912 131.834 513.181 132.053 513.399 132.34C513.618 132.627 513.785 132.978 513.898 133.393C514.012 133.807 514.069 134.277 514.069 134.801C514.069 135.243 514.008 135.664 513.885 136.065C513.766 136.466 513.586 136.822 513.345 137.132C513.103 137.442 512.8 137.688 512.436 137.87C512.071 138.048 511.645 138.137 511.157 138.137C510.788 138.137 510.43 138.073 510.084 137.945C509.742 137.818 509.435 137.629 509.161 137.378C508.888 137.123 508.669 136.817 508.505 136.462C508.341 136.102 508.259 135.692 508.259 135.231H510.152C510.171 135.5 510.223 135.735 510.31 135.936C510.401 136.132 510.515 136.282 510.651 136.387C510.793 136.492 510.957 136.544 511.144 136.544C511.326 136.544 511.483 136.498 511.615 136.407C511.747 136.312 511.852 136.179 511.93 136.011C512.007 135.842 512.064 135.646 512.101 135.423C512.137 135.195 512.155 134.951 512.155 134.691C512.155 134.427 512.13 134.188 512.08 133.974C512.035 133.759 511.962 133.577 511.861 133.427C511.766 133.272 511.643 133.153 511.492 133.071C511.342 132.985 511.164 132.941 510.959 132.941C510.681 132.941 510.471 133.001 510.33 133.119C510.193 133.233 510.077 133.356 509.981 133.488ZM519.682 127.938H519.935V129.564H519.846C519.413 129.564 519.035 129.64 518.711 129.79C518.392 129.936 518.125 130.15 517.911 130.433C517.701 130.711 517.544 131.048 517.439 131.444C517.335 131.836 517.282 132.276 517.282 132.764V134.438C517.282 134.785 517.305 135.09 517.351 135.354C517.401 135.619 517.471 135.84 517.562 136.018C517.658 136.191 517.768 136.321 517.891 136.407C518.018 136.494 518.157 136.537 518.308 136.537C518.463 136.537 518.604 136.492 518.731 136.4C518.859 136.309 518.968 136.184 519.06 136.024C519.151 135.86 519.219 135.669 519.265 135.45C519.315 135.231 519.34 134.992 519.34 134.732C519.34 134.468 519.315 134.227 519.265 134.008C519.215 133.789 519.144 133.6 519.053 133.44C518.962 133.276 518.85 133.151 518.718 133.064C518.59 132.973 518.447 132.928 518.287 132.928C518.055 132.928 517.856 132.998 517.692 133.14C517.528 133.276 517.403 133.454 517.316 133.673C517.23 133.887 517.182 134.113 517.173 134.35L516.599 133.939C516.617 133.593 516.681 133.267 516.79 132.962C516.904 132.652 517.059 132.374 517.255 132.128C517.451 131.882 517.686 131.69 517.959 131.554C518.232 131.412 518.54 131.342 518.882 131.342C519.278 131.342 519.625 131.431 519.921 131.608C520.217 131.786 520.463 132.03 520.659 132.34C520.86 132.65 521.008 133.01 521.104 133.42C521.204 133.826 521.254 134.258 521.254 134.719C521.254 135.202 521.186 135.651 521.049 136.065C520.912 136.48 520.718 136.842 520.468 137.152C520.217 137.462 519.912 137.704 519.552 137.877C519.196 138.05 518.795 138.137 518.349 138.137C517.893 138.137 517.48 138.041 517.111 137.85C516.747 137.658 516.432 137.387 516.168 137.036C515.908 136.681 515.71 136.261 515.573 135.778C515.437 135.295 515.368 134.762 515.368 134.179V133.406C515.368 132.604 515.462 131.87 515.648 131.205C515.835 130.535 516.111 129.956 516.476 129.469C516.845 128.981 517.296 128.605 517.829 128.341C518.367 128.072 518.984 127.938 519.682 127.938ZM524.146 133.488L522.614 133.105L523.113 128.047H527.919V129.688H524.686L524.501 131.827C524.606 131.754 524.761 131.674 524.966 131.588C525.175 131.501 525.408 131.458 525.663 131.458C526.073 131.458 526.438 131.533 526.757 131.684C527.076 131.834 527.345 132.053 527.563 132.34C527.782 132.627 527.949 132.978 528.062 133.393C528.176 133.807 528.233 134.277 528.233 134.801C528.233 135.243 528.172 135.664 528.049 136.065C527.93 136.466 527.75 136.822 527.509 137.132C527.267 137.442 526.964 137.688 526.6 137.87C526.235 138.048 525.809 138.137 525.321 138.137C524.952 138.137 524.594 138.073 524.248 137.945C523.906 137.818 523.599 137.629 523.325 137.378C523.052 137.123 522.833 136.817 522.669 136.462C522.505 136.102 522.423 135.692 522.423 135.231H524.316C524.335 135.5 524.387 135.735 524.474 135.936C524.565 136.132 524.679 136.282 524.815 136.387C524.957 136.492 525.121 136.544 525.308 136.544C525.49 136.544 525.647 136.498 525.779 136.407C525.911 136.312 526.016 136.179 526.094 136.011C526.171 135.842 526.228 135.646 526.265 135.423C526.301 135.195 526.319 134.951 526.319 134.691C526.319 134.427 526.294 134.188 526.244 133.974C526.199 133.759 526.126 133.577 526.025 133.427C525.93 133.272 525.807 133.153 525.656 133.071C525.506 132.985 525.328 132.941 525.123 132.941C524.845 132.941 524.635 133.001 524.494 133.119C524.357 133.233 524.241 133.356 524.146 133.488Z" fill="black"/>
<rect x="509.363" y="173" width="9" height="9" transform="rotate(45 509.363 173)" fill="white"/>
</g>
<rect x="0.5" y="0.5" width="876" height="265" rx="16.5" stroke="#D1D1D1"/>
<defs>
<filter id="filter0_d_3081_13647" x="448" y="93" width="105" height="100.728" filterUnits="userSpaceOnUse" color-interpolation-filters="sRGB">
<feFlood flood-opacity="0" result="BackgroundImageFix"/>
<feColorMatrix in="SourceAlpha" type="matrix" values="0 0 0 0 0 0 0 0 0 0 0 0 0 0 0 0 0 0 127 0" result="hardAlpha"/>
<feOffset/>
<feGaussianBlur stdDeviation="4"/>
<feComposite in2="hardAlpha" operator="out"/>
<feColorMatrix type="matrix" values="0 0 0 0 0 0 0 0 0 0 0 0 0 0 0 0 0 0 0.35 0"/>
<feBlend mode="normal" in2="BackgroundImageFix" result="effect1_dropShadow_3081_13647"/>
<feBlend mode="normal" in="SourceGraphic" in2="effect1_dropShadow_3081_13647" result="shape"/>
</filter>
</defs>
</svg>
