<svg width="254" height="74" viewBox="0 0 254 74" fill="none" xmlns="http://www.w3.org/2000/svg">
<rect x="0.020752" y="0.204163" width="253.958" height="73.5917" rx="8" fill="#F3F3F5"/>
<rect x="16.0208" y="16.2042" width="41.5917" height="41.5917" rx="20.7958" fill="#4353FF"/>
<path d="M44.4858 32.9463C44.4858 32.9463 42.1925 40.1382 42.0052 40.7322C41.4277 36.2248 40.8448 31.718 40.2564 27.212C36.3487 27.212 34.2593 29.9931 33.1551 32.9286L30.1325 40.7499C30.1148 40.1889 29.7082 33.0135 29.7082 33.0135C29.4678 29.4169 26.1729 27.2274 23.5073 27.2274L26.735 46.7893C30.8289 46.7716 33.0361 44.007 34.1922 41.0716C34.1922 41.0716 36.6551 34.7104 36.7564 34.4217C36.7741 34.6927 38.5241 46.7881 38.5241 46.7881C42.6344 46.7881 44.8428 44.1932 46.0307 41.3603L51.7897 27.2285C47.73 27.2285 45.5899 29.9931 44.4858 32.9451V32.9463Z" fill="white"/>
<g clip-path="url(#clip0_2337_5741)">
<path d="M125.332 32.4685C125.332 29.502 122.43 26.3515 117.408 26.3515C111.769 26.3515 105.573 30.4636 104.627 38.6674C103.659 46.953 108.846 50.6355 114.074 50.6355C119.302 50.6355 122.039 48.6101 124.838 45.9096C122.43 42.9022 119.322 44.2934 118.725 44.6003C118.067 44.9276 117.223 45.3777 115.494 45.3777C113.477 45.3777 111.419 44.4775 111.419 40.7336C124.344 39.4652 125.332 35.435 125.332 32.4685ZM118.931 32.9595C118.849 33.8801 118.478 35.4554 111.933 36.3351C113.312 31.466 115.947 31.0978 117.161 31.0978C118.293 31.0978 119.014 31.9775 118.931 32.9595ZM97.0317 33.7574C97.0317 33.7574 94.2531 42.4317 94.0267 43.1477C93.9444 42.4112 91.9067 26.8425 91.9067 26.8425C87.1728 26.8425 84.6411 30.1976 83.3033 33.7369C83.3033 33.7369 79.9278 42.4317 79.6396 43.1682C79.6191 42.4931 79.1251 33.8392 79.1251 33.8392C78.8369 29.502 74.844 26.8629 71.6125 26.8629L75.5232 50.4513C80.4835 50.4309 83.1592 47.0962 84.5588 43.5569C84.5588 43.5569 87.5433 35.885 87.6667 35.5372C87.6873 35.8646 89.8073 50.4513 89.8073 50.4513C94.7882 50.4513 97.4639 47.3212 98.9047 43.9047L105.882 26.8629C100.963 26.8629 98.3695 30.1976 97.0317 33.7574ZM143.609 26.3106C140.543 26.3106 138.196 27.9677 136.22 30.4022V30.3818L137.99 16.2042C133.915 16.2042 130.601 19.723 129.963 24.9603L126.876 50.2672C129.222 50.2672 131.713 49.5921 133.051 47.8736C134.245 49.408 136.035 50.6355 138.69 50.6355C145.565 50.6355 150.278 42.6976 150.278 35.2508C150.237 28.4587 146.923 26.3106 143.609 26.3106ZM142.971 38.4832C142.251 42.6363 139.925 45.4595 137.682 45.4595C135.418 45.4595 134.45 44.4571 134.45 44.4571C134.883 40.8155 135.15 38.5855 135.973 36.6624C136.797 34.7394 138.752 31.6706 140.79 31.6706C142.786 31.6706 143.692 34.3097 142.971 38.4832ZM167.444 26.8629H162.648L162.669 26.6174C162.998 23.5078 163.739 21.8711 166.188 21.6051C167.855 21.4415 168.596 20.5822 168.782 19.6412C168.926 18.9047 169.379 16.3474 169.379 16.3474C159.746 16.286 156.72 20.4186 155.938 26.7197L155.918 26.8629H155.815C154.251 26.8629 152.522 28.6223 152.233 30.8523L152.131 31.6706H155.341L152.645 53.8065L151.822 57.7754C151.925 57.7754 152.048 57.7959 152.151 57.7959C156.659 57.6322 159.54 54.0929 160.178 48.9579L162.278 31.6706H163.78C165.262 31.6706 166.991 30.1976 167.3 27.7426L167.444 26.8629ZM192.39 26.4538C186.853 26.4538 181.625 30.5045 180.02 36.867C178.414 43.2296 180.843 50.7582 188.993 50.7582C197.123 50.7582 201.816 42.9227 201.816 36.3965C201.816 29.9112 197.391 26.4538 192.39 26.4538ZM194.633 38.2787C194.345 41.1633 193.069 45.5413 189.57 45.5413C186.05 45.5413 186.544 40.4268 186.894 37.9922C187.265 35.394 188.726 31.6911 191.875 31.6911C194.695 31.6911 194.962 35.0258 194.633 38.2787ZM229.17 33.7574C229.17 33.7574 226.391 42.4317 226.165 43.1477C226.083 42.4112 224.045 26.8425 224.045 26.8425C219.311 26.8425 216.78 30.1976 215.442 33.7369C215.442 33.7369 212.066 42.4317 211.778 43.1682C211.757 42.4931 211.264 33.8392 211.264 33.8392C210.975 29.502 206.982 26.8629 203.751 26.8629L207.641 50.4513C212.601 50.4309 215.277 47.0962 216.677 43.5569C216.677 43.5569 219.661 35.885 219.764 35.5372C219.805 35.8646 221.905 50.4513 221.905 50.4513C226.885 50.4513 229.561 47.3212 231.002 43.9047L237.979 26.8629C233.081 26.8629 230.487 30.1976 229.17 33.7574ZM171.972 16.3474L167.938 48.6919L167.114 52.6813C167.217 52.6813 167.341 52.7017 167.444 52.7017C171.787 52.6404 174.874 48.8556 175.45 44.0888L177.776 25.5331C178.476 19.8662 175.08 16.3474 171.972 16.3474Z" fill="black"/>
</g>
<defs>
<clipPath id="clip0_2337_5741">
<rect width="166.367" height="41.5917" fill="white" transform="translate(71.6125 16.2042)"/>
</clipPath>
</defs>
</svg>
