<svg width="89" height="82" viewBox="0 0 89 82" fill="none" xmlns="http://www.w3.org/2000/svg">
<path d="M26.041 76.8472C18.041 72.8472 7.70765 53.1806 3.54098 43.8472C-1.92121 32.8473 1.54098 28.3472 2.04098 24.8472C2.44098 22.0472 7.20765 17.0138 9.54098 14.8472C12.2076 11.8472 21.041 5.04725 35.041 1.84725C52.541 -2.15275 71.041 8.84725 80.541 17.3472C88.141 24.1472 88.041 33.8472 87.041 37.8472C85.2076 43.0139 79.141 56.6472 69.541 69.8472C57.541 86.3472 36.041 81.8472 26.041 76.8472Z" fill="#F6F7FA" stroke="#F6F7FA"/>
<circle cx="44" cy="39.5" r="32.5" fill="#009946"/>
<path d="M20.811 46.5001L33.811 57.5001C35.2293 58.7002 36.735 57.0001 37.3105 56L41.8105 50C41.3105 50.1667 42.3105 48.2 50.3105 39C60.3105 27.5 61.3105 29 66.3105 26C67.5105 22 64.4772 21 62.8105 21C62.1439 21.3333 60.3105 22.3 58.3105 23.5C53.1105 26.7 45.1439 35.1667 41.8105 39L33.811 49C32.9775 48.1667 30.1106 45.5001 25.311 41.5001C20.111 40.7001 20.1443 44.5001 20.811 46.5001Z" fill="white" stroke="#151875" stroke-opacity="0.1"/>
</svg>
