<svg width="104" height="32" viewBox="0 0 104 32" fill="none" xmlns="http://www.w3.org/2000/svg">
<path d="M13.7112 11.4182V14.8364H21.9603C21.7413 16.7273 21.0843 18.1818 20.0623 19.1273C18.8943 20.2909 16.9963 21.6 13.7112 21.6C8.67421 21.6 4.73218 17.5273 4.73218 12.5091C4.73218 7.49091 8.60121 3.41818 13.7112 3.41818C16.4123 3.41818 18.4563 4.50909 19.9163 5.89091L22.3253 3.49091C20.2813 1.52727 17.5073 0 13.7112 0C6.7762 0 0.936157 5.6 0.936157 12.5091C0.936157 19.4182 6.7762 25.0182 13.7112 25.0182C17.4343 25.0182 20.2813 23.7818 22.4713 21.5273C24.7343 19.2727 25.4643 16.0727 25.4643 13.5273C25.4643 12.7273 25.3913 12 25.3183 11.4182H13.7112Z" fill="#4285F4"/>
<path d="M35.6844 8.58182C31.2314 8.58182 27.5084 12 27.5084 16.6545C27.5084 21.3091 31.1584 24.7273 35.6844 24.7273C40.2104 24.7273 43.8605 21.3818 43.8605 16.7273C43.8605 12 40.2104 8.58182 35.6844 8.58182ZM35.6844 21.6C33.2024 21.6 31.0854 19.5636 31.0854 16.7273C31.0854 13.8182 33.2024 11.8545 35.6844 11.8545C38.1664 11.8545 40.2834 13.8182 40.2834 16.7273C40.2834 19.5636 38.1664 21.6 35.6844 21.6Z" fill="#EA4335"/>
<path d="M75.6156 10.4H75.4696C74.6666 9.45454 73.1336 8.58182 71.1626 8.58182C67.0746 8.58182 63.5706 12.0727 63.5706 16.6545C63.5706 21.1636 67.0746 24.7273 71.1626 24.7273C73.1336 24.7273 74.6666 23.8545 75.4696 22.9091H75.6156V24.0727C75.6156 27.1273 73.9366 28.8 71.3086 28.8C69.1186 28.8 67.8046 27.2727 67.2206 25.8909L64.1546 27.2C65.0306 29.3091 67.4396 32 71.3816 32C75.5426 32 79.1197 29.5273 79.1197 23.5636V9.01818H75.7616V10.4H75.6156ZM71.5276 21.6C69.0456 21.6 67.2206 19.4909 67.2206 16.7273C67.2206 13.8909 69.1186 11.8545 71.5276 11.8545C73.9366 11.8545 75.8346 13.9636 75.8346 16.8C75.9076 19.5636 74.0096 21.6 71.5276 21.6Z" fill="#4285F4"/>
<path d="M53.8615 8.58182C49.4084 8.58182 45.6854 12 45.6854 16.6545C45.6854 21.3091 49.3354 24.7273 53.8615 24.7273C58.3875 24.7273 62.0375 21.3818 62.0375 16.7273C62.0375 12 58.3875 8.58182 53.8615 8.58182ZM53.8615 21.6C51.3795 21.6 49.2624 19.5636 49.2624 16.7273C49.2624 13.8182 51.3795 11.8545 53.8615 11.8545C56.3435 11.8545 58.4605 13.8182 58.4605 16.7273C58.4605 19.5636 56.3435 21.6 53.8615 21.6Z" fill="#FBBC05"/>
<path d="M81.8207 0.363647H85.3247V24.8H81.8207V0.363647Z" fill="#34A853"/>
<path d="M96.1288 21.6C94.3038 21.6 93.0628 20.8 92.1868 19.1273L103.064 14.6909L102.699 13.7455C102.042 11.9273 99.9248 8.58182 95.7638 8.58182C91.6028 8.58182 88.0988 11.8545 88.0988 16.6545C88.0988 21.1636 91.5298 24.7273 96.1288 24.7273C99.8518 24.7273 101.969 22.4727 102.918 21.1636L100.144 19.3455C99.1948 20.7273 97.9538 21.6 96.1288 21.6ZM95.9098 11.6364C97.3698 11.6364 98.6108 12.3636 98.9758 13.3818L91.6758 16.4364C91.6028 13.0909 94.0848 11.6364 95.9098 11.6364Z" fill="#EA4335"/>
</svg>
