<svg width="120" height="120" viewBox="0 0 120 120" fill="none" xmlns="http://www.w3.org/2000/svg">
<path d="M79.8588 3.38174C70.9487 0.256516 61.4267 -0.721677 52.0673 0.52671C42.7079 1.7751 33.7752 5.21482 25.9957 10.5662C18.2162 15.9175 11.8095 23.0293 7.29656 31.3234C2.78366 39.6175 0.291982 48.8595 0.0241433 58.2981L29.1599 59.1248C29.2976 54.2715 30.5789 49.5191 32.8994 45.2542C35.22 40.9894 38.5144 37.3324 42.5147 34.5807C46.515 31.829 51.1082 30.0603 55.9209 29.4183C60.7336 28.7764 65.6299 29.2794 70.2116 30.8864L79.8588 3.38174Z" fill="#E4E8EF"/>
<path d="M0.486054 52.3783C-0.970821 63.7543 0.86326 75.3095 5.77106 85.6753C10.6789 96.0411 18.4547 104.783 28.1777 110.866C37.9006 116.949 49.1632 120.117 60.6315 119.997C72.0998 119.876 83.2932 116.471 92.8859 110.185C102.479 103.899 110.069 94.9949 114.757 84.5282C119.446 74.0614 121.036 62.4701 119.34 51.1273C117.644 39.7845 112.733 29.1654 105.188 20.5278C97.6428 11.8902 87.7802 5.59601 76.7683 2.39077L68.6224 30.3768C74.2848 32.025 79.3563 35.2615 83.236 39.703C87.1157 44.1446 89.6412 49.605 90.5133 55.4376C91.3854 61.2701 90.5676 67.2305 88.1567 72.6126C85.7458 77.9947 81.8429 82.5731 76.9102 85.8055C71.9776 89.0378 66.2218 90.7887 60.3247 90.8508C54.4276 90.9129 48.6363 89.2835 43.6367 86.1557C38.6371 83.0279 34.6386 78.5326 32.115 73.2025C29.5914 67.8723 28.6483 61.9305 29.3974 56.0809L0.486054 52.3783Z" fill="#F2B827"/>
</svg>
