<svg width="38" height="43" viewBox="0 0 38 43" fill="none" xmlns="http://www.w3.org/2000/svg">
<g clip-path="url(#clip0_2409_15528)">
<path d="M37.5295 27.9807C37.5295 29.3401 36.604 31.0692 35.4731 31.8234L21.0566 41.4343C19.9257 42.1884 18.0746 42.1884 16.9437 41.4343L2.52716 31.8231C1.39625 31.0692 0.470703 29.3401 0.470703 27.9807V14.3943C0.470703 13.0349 1.39625 11.3058 2.52716 10.5516L16.9437 0.940732C18.0746 0.186585 19.9257 0.186585 21.0566 0.940732L35.4731 10.5516C36.604 11.3058 37.5295 13.0349 37.5295 14.3943V27.9807Z" fill="#56A4CA"/>
<path d="M4.48535 20.8787H11.8971V30.1434H4.48535V20.8787Z" fill="white"/>
<path d="M5.46045 21.8539H10.9705V23.6581H5.46045V21.8539Z" fill="#56A4CA"/>
<path d="M5.46045 24.5846H10.9705M5.46045 25.8199H10.044M5.46045 27.0552H10.9705M5.46045 28.2904H8.80871" stroke="#56A4CA" stroke-width="0.617647" stroke-miterlimit="10" stroke-linejoin="round"/>
<path d="M26.103 20.8787H33.5148V30.1434H26.103V20.8787Z" fill="white"/>
<path d="M27.0781 21.8539H32.5882V23.6581H27.0781V21.8539Z" fill="#56A4CA"/>
<path d="M27.0781 24.5846H32.5882M27.0781 25.8199H31.6617M27.0781 27.0552H32.5882M27.0781 28.2904H30.4264" stroke="#56A4CA" stroke-width="0.617647" stroke-miterlimit="10" stroke-linejoin="round"/>
<path d="M16.6837 1.11398H21.3161L21.0564 0.940735C20.7503 0.736911 20.3908 0.589911 20.0079 0.496338H17.9919C17.609 0.589911 17.2495 0.736911 16.9434 0.940735L16.6837 1.11398ZM7.33008 30.9513C7.38876 31.026 7.47832 31.0699 7.57343 31.0699H30.4264C30.5215 31.0699 30.6111 31.026 30.6697 30.9513C30.7284 30.8765 30.7491 30.779 30.7262 30.6869L23.8225 2.78503L23.0606 2.27701L30.032 30.4522H7.9678L14.9392 2.27701L14.1773 2.78503L7.27357 30.6869C7.25102 30.779 7.27171 30.8765 7.33008 30.9513Z" fill="white"/>
<path d="M30.032 30.4522L23.0607 2.27701L21.3161 1.11398H16.6838L14.9392 2.27701L7.96784 30.4522H30.032ZM18.9999 32.614C18.8826 32.614 7.26465 32.5927 7.26465 30.761C7.26465 28.9294 18.8826 28.9081 18.9999 28.9081C19.1173 28.9081 30.7352 28.9294 30.7352 30.761C30.7352 32.5927 19.1173 32.614 18.9999 32.614Z" fill="#56A4CA"/>
<path d="M19.0002 29.2169C24.9697 29.2169 30.4266 29.9084 30.4266 30.761C30.4266 31.6137 24.9697 32.3051 19.0002 32.3051C13.0306 32.3051 7.5737 31.6137 7.5737 30.761C7.5737 29.9084 13.0306 29.2169 19.0002 29.2169ZM19.0002 28.5993C16.0917 28.5993 13.1637 28.766 10.9674 29.0569C8.49091 29.3846 6.95605 29.7842 6.95605 30.761C6.95605 31.7378 8.49091 32.1375 10.9674 32.4651C13.1637 32.756 16.0917 32.9228 19.0002 32.9228C21.9087 32.9228 24.8366 32.756 27.033 32.4651C29.5094 32.1375 31.0443 31.7378 31.0443 30.761C31.0443 29.7842 29.5094 29.3846 27.033 29.0569C24.8366 28.766 21.9087 28.5993 19.0002 28.5993ZM14.3678 31.2243C14.1118 31.2243 13.9046 31.017 13.9046 30.761V19.0257C13.9046 18.7697 14.1118 18.5625 14.3678 18.5625H23.6325C23.8885 18.5625 24.0958 18.7697 24.0958 19.0257V30.761C24.0958 31.017 23.8885 31.2243 23.6325 31.2243H14.3678Z" fill="white"/>
<path d="M23.6326 19.0257V30.761H14.3679V19.0257H23.6326ZM23.6326 18.0993H14.3679C13.8562 18.0993 13.4414 18.514 13.4414 19.0257V30.761C13.4414 31.2728 13.8562 31.6875 14.3679 31.6875H23.6326C24.1443 31.6875 24.5591 31.2728 24.5591 30.761V19.0257C24.5591 18.514 24.1443 18.0993 23.6326 18.0993ZM15.6032 20.261H22.3973V22.7316H15.6032V20.261Z" fill="#56A4CA"/>
<path d="M15.603 23.9669H22.3971M15.603 25.511H21.1619M15.603 27.0552H22.3971M15.603 28.5993H19.9266" stroke="#56A4CA" stroke-width="0.617647" stroke-miterlimit="10" stroke-linejoin="round"/>
<path opacity="0.08" d="M35.473 10.5519L21.0565 0.940731C20.491 0.563966 19.7455 0.375275 19 0.375275V21.1875V41.9997C19.7455 41.9997 20.491 41.8114 21.0565 41.4343L35.473 31.8234C36.6039 31.0692 37.5294 29.3401 37.5294 27.9807V14.3943C37.5294 13.0349 36.6039 11.3058 35.473 10.5519Z" fill="black"/>
<path d="M19.0001 1.61057C19.5304 1.61057 20.03 1.7412 20.3713 1.9685L34.7878 11.5794C35.5762 12.105 36.2942 13.4465 36.2942 14.394V27.9804C36.2942 28.9279 35.5762 30.2694 34.7878 30.795L20.3713 40.4062C20.03 40.6338 19.5301 40.7641 19.0001 40.7641C18.4702 40.7641 17.9702 40.6335 17.6289 40.4062L3.21244 30.7953C2.42401 30.2697 1.706 28.9282 1.706 27.9807V14.3943C1.706 13.4468 2.42401 12.1053 3.21244 11.5797L17.6289 1.9688C17.9702 1.7412 18.4699 1.61057 19.0001 1.61057ZM19.0001 0.375275C18.2546 0.375275 17.5091 0.563657 16.9437 0.940731L2.52716 10.5519C1.39625 11.3058 0.470703 13.0349 0.470703 14.3943V27.9807C0.470703 29.3401 1.39625 31.0692 2.52716 31.8234L16.9437 41.4343C17.5091 41.8114 18.2546 41.9997 19.0001 41.9997C19.7456 41.9997 20.4911 41.8114 21.0566 41.4343L35.4731 31.8234C36.604 31.0692 37.5295 29.3401 37.5295 27.9807V14.3943C37.5295 13.0349 36.604 11.3058 35.4731 10.5516L21.0566 0.940731C20.4911 0.563966 19.7456 0.375275 19.0001 0.375275Z" fill="#56A4CA"/>
</g>
<defs>
<clipPath id="clip0_2409_15528">
<rect width="37.0588" height="42" fill="white" transform="translate(0.470703 0.1875)"/>
</clipPath>
</defs>
</svg>
