<svg width="65" height="65" viewBox="0 0 65 65" fill="none" xmlns="http://www.w3.org/2000/svg">
<path fill-rule="evenodd" clip-rule="evenodd" d="M16.7139 20.8991L11.7393 16.4771C10.9439 15.7704 10.4879 14.7548 10.4879 13.6902V13.568C10.4879 12.6504 10.8451 11.7881 11.4942 11.139C12.0568 10.5763 12.8055 10.2666 13.6009 10.2666C14.3963 10.2666 15.145 10.5763 15.7076 11.139L16.7139 12.1453L17.7202 11.139C18.8456 10.0144 20.8083 10.0144 21.9337 11.139C22.5828 11.7881 22.94 12.6504 22.94 13.568V13.6901C22.94 14.754 22.4839 15.7704 21.6885 16.4771L16.7139 20.8991ZM24.4965 13.6901V13.568C24.4965 12.2348 23.9774 10.9818 23.0342 10.0386C22.1781 9.1817 21.0387 8.71008 19.827 8.71008C18.6596 8.71008 17.5591 9.14824 16.7139 9.94673C15.8688 9.14824 14.7683 8.71008 13.6009 8.71008C12.3892 8.71008 11.2498 9.1817 10.3937 10.0386C9.45049 10.9818 8.9314 12.2348 8.9314 13.568V13.6901C8.9314 15.1984 9.57813 16.6382 10.705 17.6398L16.714 22.9817L22.7221 17.6406C23.8498 16.639 24.4965 15.1992 24.4965 13.6902L24.4965 13.6901Z" fill="white"/>
<path fill-rule="evenodd" clip-rule="evenodd" d="M62.6774 34.4726C62.6774 35.0492 62.2084 35.5172 61.6328 35.5172H49.6531L44.5428 41.6481C44.3359 41.8946 43.8742 41.7285 43.8742 41.4068V35.5172H30.2941C29.7185 35.5172 29.2495 35.0492 29.2495 34.4726V29.2495H30.2941C32.0219 29.2495 33.428 27.8434 33.428 26.1156V10.4462H61.6328C62.2084 10.4462 62.6774 10.9142 62.6774 11.4909L62.6774 34.4726ZM37.6065 55.3651C37.6065 55.9417 37.1374 56.4097 36.5618 56.4097H22.9817V62.2993C22.9817 62.6221 22.52 62.7892 22.3132 62.5406L17.2029 56.4097H5.22312C4.64753 56.4097 4.1785 55.9417 4.1785 55.3651V34.4726C4.1785 33.896 4.64754 33.428 5.22312 33.428H15.5283L16.5301 34.6293C17.0002 35.1934 17.6907 35.5172 18.4251 35.5172C19.6556 35.5172 20.67 34.6084 20.8538 33.428H27.1602V34.4726C27.1602 36.2004 28.5663 37.6065 30.2941 37.6065H37.6065L37.6065 55.3651ZM27.1602 31.3387H20.8925V29.2495H27.1602V31.3387ZM3.13387 27.1602C2.55828 27.1602 2.08925 26.6922 2.08925 26.1156V3.13387C2.08925 2.55724 2.55829 2.08925 3.13387 2.08925H30.2941C30.8697 2.08925 31.3387 2.55724 31.3387 3.13387V26.1156C31.3387 26.6922 30.8697 27.1602 30.2941 27.1602H18.8032V33.0498C18.8032 33.3726 18.3415 33.5397 18.1347 33.2911L13.0244 27.1602H3.13387ZM61.6328 8.35699H33.428V3.13387C33.428 1.40606 32.0219 0 30.2941 0H3.13387C1.40606 0 0 1.40606 0 3.13387V26.1156C0 27.8434 1.40606 29.2495 3.13387 29.2495H12.0466L13.788 31.3387H5.22312C3.49531 31.3387 2.08925 32.7448 2.08925 34.4726V55.3651C2.08925 57.0929 3.49531 58.4989 5.22312 58.4989H16.2251L20.7086 63.8787C21.1787 64.4428 21.8692 64.7667 22.6036 64.7667C23.9637 64.7667 25.071 63.6594 25.071 62.2993V58.4989H36.5618C38.2896 58.4989 39.6957 57.0929 39.6957 55.3651V37.6065H41.785V41.4068C41.785 42.7669 42.8923 43.8742 44.2524 43.8742C44.9867 43.8742 45.6772 43.5504 46.1473 42.9863L50.6308 37.6065H61.6328C63.3606 37.6065 64.7667 36.2004 64.7667 34.4726V11.4909C64.7667 9.76305 63.3606 8.35699 61.6328 8.35699Z" fill="#1FFF35"/>
<path fill-rule="evenodd" clip-rule="evenodd" d="M28.4874 44.4602C28.4874 45.2979 27.8061 45.9792 26.9684 45.9792C26.1307 45.9792 25.4494 45.2979 25.4494 44.4602C25.4494 43.6225 26.1307 42.9412 26.9684 42.9412C27.8061 42.9412 28.4874 43.6225 28.4874 44.4602ZM19.3735 42.9412C19.3735 42.1035 20.0547 41.4222 20.8925 41.4222C21.7302 41.4222 22.4115 42.1035 22.4115 42.9412C22.4115 43.7789 21.7302 44.4602 20.8925 44.4602C20.0547 44.4602 19.3735 43.7789 19.3735 42.9412ZM13.2975 44.4602C13.2975 43.6225 13.9788 42.9412 14.8165 42.9412C15.6542 42.9412 16.3355 43.6225 16.3355 44.4602C16.3355 45.2979 15.6542 45.9792 14.8165 45.9792C13.9788 45.9792 13.2975 45.2979 13.2975 44.4602ZM23.9304 44.4602C23.9304 44.9106 24.0353 45.3344 24.2115 45.7187C23.8841 45.4285 23.5196 45.1809 23.1254 44.9842C23.6206 44.4435 23.9304 43.7303 23.9304 42.9412C23.9304 41.2657 22.5679 39.9032 20.8925 39.9032C19.217 39.9032 17.8545 41.2657 17.8545 42.9412C17.8545 43.7303 18.1644 44.4435 18.6595 44.9842C18.2654 45.1809 17.9008 45.4285 17.5735 45.7186C17.7497 45.3343 17.8545 44.9105 17.8545 44.4602C17.8545 42.7847 16.4919 41.4222 14.8165 41.4222C13.141 41.4222 11.7785 42.7847 11.7785 44.4602C11.7785 45.2698 12.1013 46.0012 12.6193 46.5465C11.2142 47.3235 10.2595 48.8197 10.2595 50.5361V52.0551H11.7785V50.5361C11.7785 48.8607 13.141 47.4981 14.8165 47.4981C15.295 47.4981 15.7537 47.6121 16.1714 47.8209C16.0514 48.168 15.9633 48.5311 15.9208 48.91L15.5806 51.9708L17.0897 52.1387L17.4299 49.0779C17.6266 47.3113 19.1152 45.9792 20.8925 45.9792C22.6697 45.9792 24.1583 47.3113 24.355 49.0779L24.6952 52.1387L26.2044 51.9708L25.8641 48.91C25.8223 48.5311 25.7335 48.168 25.6135 47.8209C26.0312 47.6121 26.4899 47.4981 26.9684 47.4981C28.6439 47.4981 30.0064 48.8607 30.0064 50.5361V52.0551H31.5254V50.5361C31.5254 48.8197 30.5707 47.3235 29.1656 46.5465C29.6836 46.0012 30.0064 45.2698 30.0064 44.4602C30.0064 42.7847 28.6439 41.4222 26.9684 41.4222C25.293 41.4222 23.9304 42.7847 23.9304 44.4602V44.4602Z" fill="white"/>
<path fill-rule="evenodd" clip-rule="evenodd" d="M53.4303 27.2633C53.4303 28.0503 52.7902 28.6904 52.0032 28.6904H48.867C47.4505 28.6904 46.0769 28.3044 44.8674 27.5787V21.85L45.5067 21.2107C46.4437 20.2737 47.1094 19.0985 47.4305 17.8133C47.5097 17.4958 47.7945 17.2731 48.1227 17.2731C48.5245 17.2731 48.9041 17.4487 49.1638 17.7562C49.4236 18.063 49.5349 18.4662 49.4685 18.863L49.0204 21.5546H52.0032C52.7902 21.5546 53.4303 22.1947 53.4303 22.9818V27.2633ZM40.5859 28.6904V21.5546H43.4402L43.4409 28.6904H40.5859ZM52.0032 20.1274H50.7044L50.8764 19.097C51.0113 18.2857 50.7844 17.4608 50.2527 16.8335C49.7211 16.2056 48.9448 15.8459 48.1227 15.8459C47.1387 15.8459 46.2845 16.5131 46.0455 17.4672C45.7872 18.5019 45.252 19.4467 44.4977 20.2016L44.2872 20.4122C44.0496 20.2359 43.7584 20.1274 43.4402 20.1274H40.5859C39.7988 20.1274 39.1587 20.7675 39.1587 21.5546V28.6904C39.1587 29.4775 39.7988 30.1176 40.5859 30.1176H43.4402C44.0631 30.1176 44.5876 29.7144 44.7824 29.1571C46.0483 29.785 47.4391 30.1176 48.867 30.1176H52.0032C53.5773 30.1176 54.8575 28.8374 54.8575 27.2632V22.9818C54.8575 21.4076 53.5773 20.1274 52.0032 20.1274L52.0032 20.1274Z" fill="white"/>
</svg>
