<svg width="74" height="68" viewBox="0 0 74 68" fill="none" xmlns="http://www.w3.org/2000/svg">
<path fill-rule="evenodd" clip-rule="evenodd" d="M60.4333 65.3644V19.6861H70.3V65.3644H60.4333ZM41.9333 65.3644V29.5625H51.8V65.3644H41.9333ZM23.4333 65.3644V39.4389H33.3V65.3644H23.4333ZM4.93333 65.3644V50.5498H14.8V65.3644H4.93333ZM72.7666 65.3644V17.217H57.9667V65.3644H54.2667V27.0934H39.4667V65.3644H35.7667V36.9698H20.9667V65.3644H17.2667V48.0807H2.46666V65.3644H1.23333C0.55253 65.3644 0 65.9162 0 66.5989C0 67.2817 0.55253 67.8335 1.23333 67.8335H2.46666H17.2667H20.9667H35.7667H39.4667H54.2667H57.9667H72.7666C73.4475 67.8335 74 67.2817 74 66.5989C74 65.9162 73.4475 65.3644 72.7666 65.3644Z" fill="#1FFF35"/>
<path fill-rule="evenodd" clip-rule="evenodd" d="M9.87893 31.1508C10.0868 31.1508 10.2995 31.0979 10.4926 30.986L55.096 5.2341L52.3044 11.3708C52.0227 11.9894 52.2958 12.7186 52.9143 12.999C53.0791 13.0753 53.2525 13.1097 53.4235 13.1097C53.8908 13.1097 54.3372 12.8416 54.5438 12.389L58.9244 2.75976C58.9379 2.72902 58.9354 2.69581 58.9465 2.66384C58.9699 2.59866 58.9883 2.53594 59.0006 2.46707C59.0068 2.43264 59.0264 2.40435 59.0289 2.36869C59.0301 2.35393 59.024 2.34164 59.0252 2.32688C59.0277 2.28015 59.0228 2.23711 59.0203 2.19037C59.0166 2.12273 59.0055 2.05878 58.9908 1.99115C58.9809 1.94442 58.9785 1.89646 58.9625 1.85096C58.9477 1.80669 58.9219 1.76978 58.9022 1.72674C58.8862 1.69846 58.8862 1.66525 58.869 1.63574C58.8518 1.60623 58.8223 1.58901 58.8026 1.56072C58.7768 1.5226 58.7571 1.48201 58.7264 1.44758C58.6944 1.41069 58.6538 1.38486 58.6169 1.35166C58.5665 1.30616 58.5161 1.26435 58.4595 1.22745C58.4214 1.20285 58.387 1.1758 58.3451 1.15489C58.3316 1.14874 58.3242 1.13644 58.3107 1.13029C58.28 1.11676 58.2468 1.11922 58.216 1.10814C58.1484 1.08354 58.082 1.06633 58.0119 1.05403C57.9799 1.04788 57.9541 1.02943 57.9209 1.02697L47.3914 0.00624906C46.7088 -0.0626219 46.1136 0.436675 46.0484 1.11061C45.982 1.78699 46.4776 2.38836 47.1528 2.45354L53.8626 3.1041L9.26283 28.856C8.67376 29.1954 8.4733 29.9481 8.81272 30.5359C9.04023 30.9307 9.45344 31.1508 9.87896 31.1508H9.87893Z" fill="white"/>
</svg>
