<svg width="18" height="21" viewBox="0 0 18 21" fill="none" xmlns="http://www.w3.org/2000/svg">
<path d="M1.125 1.2702H2.875L3.225 3.35354M4.625 11.6869H13.375L16.875 3.35354H3.225M4.625 11.6869L3.225 3.35354M4.625 11.6869L2.61872 14.0753C2.0675 14.7315 2.4579 15.8535 3.23744 15.8535H13.375M13.375 15.8535C12.4085 15.8535 11.625 16.7863 11.625 17.9369C11.625 19.0875 12.4085 20.0202 13.375 20.0202C14.3415 20.0202 15.125 19.0875 15.125 17.9369C15.125 16.7863 14.3415 15.8535 13.375 15.8535ZM6.375 17.9369C6.375 19.0875 5.5915 20.0202 4.625 20.0202C3.6585 20.0202 2.875 19.0875 2.875 17.9369C2.875 16.7863 3.6585 15.8535 4.625 15.8535C5.5915 15.8535 6.375 16.7863 6.375 17.9369Z" stroke="#BABDB9" stroke-linecap="round" stroke-linejoin="round"/>
</svg>
