<svg width="92" height="92" viewBox="0 0 92 92" fill="none" xmlns="http://www.w3.org/2000/svg">
<path d="M31.0001 46L41.0001 56L61.0001 36M25.1738 9.48523C28.7615 9.19894 32.1674 7.78816 34.9067 5.45374C41.2991 0.00614321 50.7011 0.00614321 57.0935 5.45374C59.8328 7.78816 63.2388 9.19894 66.8264 9.48524C75.1986 10.1533 81.8468 16.8015 82.5149 25.1737C82.8012 28.7614 84.212 32.1673 86.5464 34.9066C91.994 41.299 91.994 50.701 86.5464 57.0934C84.212 59.8327 82.8012 63.2386 82.5149 66.8263C81.8468 75.1985 75.1986 81.8467 66.8264 82.5148C63.2388 82.8011 59.8328 84.2118 57.0935 86.5463C50.7011 91.9939 41.2991 91.9939 34.9067 86.5463C32.1674 84.2118 28.7615 82.8011 25.1738 82.5148C16.8016 81.8467 10.1535 75.1985 9.48536 66.8263C9.19906 63.2386 7.78828 59.8327 5.45386 57.0934C0.00626528 50.701 0.00626528 41.299 5.45386 34.9066C7.78828 32.1673 9.19906 28.7614 9.48536 25.1737C10.1535 16.8015 16.8016 10.1533 25.1738 9.48523Z" stroke="#1FFF35" stroke-width="2" stroke-linecap="round" stroke-linejoin="round"/>
</svg>
