<svg width="41" height="60" viewBox="0 0 41 60" fill="none" xmlns="http://www.w3.org/2000/svg">
<path fill-rule="evenodd" clip-rule="evenodd" d="M26.4248 22.1075C27.3755 22.3814 28.3746 21.8497 28.6646 20.8992C28.9708 19.852 29.1319 18.7565 29.1319 17.6449C29.1319 11.3296 23.9916 6.1742 17.659 6.1742C11.3424 6.1742 6.18605 11.3135 6.18605 17.6449C6.18605 19.0465 6.42776 20.4159 6.92729 21.7047C7.20122 22.4297 7.87799 22.8647 8.60309 22.8647C8.81256 22.8647 9.02207 22.8325 9.23153 22.7519C10.1661 22.3975 10.6334 21.3664 10.2789 20.432C9.94053 19.5459 9.76327 18.6115 9.76327 17.6449C9.76327 13.3111 13.2922 9.76684 17.6428 9.76684C21.9774 9.76684 25.5224 13.295 25.5224 17.6449C25.5224 18.4021 25.4096 19.1593 25.2002 19.8842C24.9262 20.8348 25.4741 21.8336 26.4248 22.1075L26.4248 22.1075Z" fill="white"/>
<path fill-rule="evenodd" clip-rule="evenodd" d="M40.0404 36.024C40.0404 35.9463 40.0275 35.8686 40.0016 35.7909C39.4191 33.2663 37.7361 31.6868 35.613 31.6868C34.9916 31.6868 34.3961 31.8163 33.8524 32.0493C33.2699 30.2886 31.6128 29.0068 29.658 29.0068C28.9331 29.0068 28.247 29.1881 27.6515 29.4988C26.9265 28.0488 25.4248 27.0648 23.703 27.0648C23.1593 27.0648 22.6415 27.1684 22.1625 27.3367V21.9508C22.1625 19.5168 20.1818 17.523 17.7351 17.523C15.3013 17.523 13.3077 19.5039 13.3077 21.9508V40.4129L11.7024 37.6294C11.1069 36.5548 10.1619 35.8168 9.02267 35.532C7.92228 35.2601 6.74423 35.4543 5.77332 36.0628C4.14217 37.0985 3.62433 39.416 4.43991 41.9406C4.43991 41.9536 4.45286 41.9665 4.45286 41.9795C4.62116 42.4844 8.7767 54.253 13.722 59.1857C14.0068 59.4706 14.3692 59.613 14.7446 59.613C15.1201 59.613 15.4826 59.4706 15.7674 59.1857C16.337 58.6161 16.324 57.7098 15.7674 57.1401C11.3658 52.7512 7.36563 41.5263 7.18438 41.0344C6.82191 39.895 6.88665 38.7816 7.3268 38.4968C7.62454 38.3155 7.97408 38.2508 8.31067 38.3285C8.67316 38.4191 8.95796 38.6651 9.17803 39.0535L13.4889 46.5238C13.8126 47.0935 14.4858 47.3653 15.1071 47.197C15.7415 47.0287 16.1816 46.4591 16.1816 45.7988V21.9638C16.1816 21.1222 16.8678 20.4231 17.7222 20.4231C18.5636 20.4231 19.2627 21.1093 19.2627 21.9638V38.4968C19.2627 39.2995 19.91 39.9339 20.6997 39.9339C21.5023 39.9339 22.1366 39.2865 22.1366 38.4968V31.3631C22.1366 31.3502 22.1496 31.3372 22.1496 31.3243C22.2272 30.5475 22.8875 29.9519 23.6772 29.9519C24.5186 29.9519 25.2177 30.6381 25.2177 31.4926V33.4476V34.9882V39.0276C25.2177 39.8303 25.865 40.4647 26.6546 40.4647C27.4573 40.4647 28.0916 39.8174 28.0916 39.0276V34.9882V33.4476C28.0916 32.606 28.7777 31.9069 29.6321 31.9069C30.4736 31.9069 31.1727 32.5931 31.1727 33.4476V35.3766C31.1727 35.4673 31.1856 35.5579 31.1986 35.6485C31.1856 35.8039 31.1727 35.9592 31.1727 36.1275V39.0406C31.1727 39.8433 31.82 40.4777 32.6096 40.4777C33.3993 40.4777 34.0466 39.8303 34.0466 39.0406V36.1275C34.0466 35.286 34.7327 34.5869 35.5871 34.5869C36.5581 34.5869 36.9853 35.7392 37.1277 36.3347C37.2053 37.7459 37.8656 50.8739 35.4059 56.9071C35.1081 57.6451 35.4577 58.4866 36.1956 58.7844C36.3768 58.8621 36.5581 58.888 36.7393 58.888C37.3089 58.888 37.8526 58.5514 38.0727 57.9946C40.9466 51.0293 40.0793 36.6325 40.0404 36.024V36.024Z" fill="#1FFF35"/>
<path fill-rule="evenodd" clip-rule="evenodd" d="M3.56128 26.671C3.83526 26.671 4.12534 26.6066 4.3832 26.4776C5.26959 26.0264 5.60803 24.9467 5.15678 24.0603C4.12536 22.062 3.60963 19.9187 3.60963 17.6464C3.60963 9.89487 9.91101 3.59374 17.6628 3.59374C25.4147 3.59374 31.7161 9.89487 31.7161 17.6464C31.7161 18.8712 31.5549 20.0798 31.2487 21.2562C30.9908 22.2232 31.571 23.2062 32.5219 23.4479C33.4888 23.7058 34.4719 23.1256 34.7137 22.1748C35.1004 20.7083 35.2938 19.1935 35.2938 17.6464C35.2938 7.91268 27.3808 1.00002e-05 17.6467 1.00002e-05C7.91262 1.00002e-05 -0.000380023 7.91268 -0.000380023 17.6464C-0.000380023 20.4344 0.67649 23.2223 1.93355 25.688C2.27199 26.3165 2.90051 26.671 3.56127 26.671L3.56128 26.671Z" fill="white"/>
</svg>
