<svg width="74" height="55" viewBox="0 0 74 55" fill="none" xmlns="http://www.w3.org/2000/svg">
<path fill-rule="evenodd" clip-rule="evenodd" d="M67.8301 44.4C67.1494 44.4 66.5969 43.8475 66.5969 43.1667V3.70001C66.5969 3.02168 66.0444 2.46668 65.3637 2.46668H8.63629C7.95557 2.46668 7.40309 3.02168 7.40309 3.70001V43.1667C7.40309 43.8475 6.85062 44.4 6.16989 44.4C5.48916 44.4 4.93669 43.8475 4.93669 43.1667V3.70001C4.93669 1.66008 6.59659 1e-05 8.6363 1e-05H65.3637C67.4035 1e-05 69.0633 1.66008 69.0633 3.70001V43.1667C69.0633 43.8475 68.5109 44.4 67.8301 44.4H67.8301Z" fill="#1FFF35"/>
<path fill-rule="evenodd" clip-rule="evenodd" d="M67.8333 54.2633H6.16667C2.76514 54.2633 0 51.4982 0 48.0966C0 47.4158 0.55253 46.8633 1.23333 46.8633H28.3667C29.0475 46.8633 29.6 47.4158 29.6 48.0966C29.6 48.7774 29.0475 49.33 28.3667 49.33H2.67879C3.18692 50.7656 4.55839 51.7966 6.16666 51.7966H67.8333C69.4416 51.7966 70.8131 50.7656 71.3212 49.33H45.6333C44.9525 49.33 44.4 48.7774 44.4 48.0966C44.4 47.4158 44.9525 46.8633 45.6333 46.8633H72.7667C73.4475 46.8633 74 47.4158 74 48.0966C74 51.4982 71.2349 54.2633 67.8333 54.2633Z" fill="#1FFF35"/>
<path fill-rule="evenodd" clip-rule="evenodd" d="M25.896 35.2667C25.6075 35.2667 25.319 35.1655 25.0847 34.9609L15.2217 26.3294C14.9529 26.0951 14.8 25.7597 14.8 25.4021C14.8 25.0446 14.9529 24.7092 15.2217 24.4749L25.0847 15.8434C25.5951 15.3921 26.3718 15.4415 26.8255 15.9593C27.2743 16.4723 27.2225 17.2491 26.7097 17.698L17.9044 25.4021L26.7072 33.1063C27.2201 33.5552 27.2718 34.332 26.8231 34.8449C26.579 35.1236 26.2387 35.2667 25.8959 35.2667L25.896 35.2667Z" fill="white"/>
<path fill-rule="evenodd" clip-rule="evenodd" d="M33.2982 37.74C33.1698 37.74 33.039 37.7202 32.9082 37.6783C32.2616 37.4611 31.9136 36.7628 32.1284 36.1164L39.5322 13.9093C39.747 13.2629 40.4404 12.91 41.092 13.1296C41.7386 13.3468 42.0866 14.0451 41.8719 14.6915L34.468 36.8986C34.2952 37.4118 33.814 37.74 33.2982 37.74Z" fill="white"/>
<path fill-rule="evenodd" clip-rule="evenodd" d="M48.0972 35.2666C47.7543 35.2666 47.4138 35.1236 47.1695 34.8449C46.7205 34.332 46.7723 33.5552 47.2855 33.1064L56.0936 25.4026L47.2855 17.6988C46.7723 17.25 46.7205 16.4732 47.1695 15.9603C47.6186 15.4424 48.3982 15.3956 48.9114 15.8444L58.7805 24.4754C59.047 24.7097 59.1999 25.045 59.1999 25.4026C59.1999 25.7602 59.047 26.0956 58.778 26.3298L48.909 34.9608C48.6746 35.1655 48.3859 35.2666 48.0972 35.2666H48.0972Z" fill="white"/>
</svg>
