<svg width="132" height="52" viewBox="0 0 132 52" fill="none" xmlns="http://www.w3.org/2000/svg">
<path d="M25.273 12.8386C25.2215 12.7389 25.1443 12.6891 25.0412 12.6891H18.9885C18.9113 12.6891 18.834 12.7389 18.7825 12.8136C18.731 12.8884 18.7052 12.9631 18.7567 13.0628L19.4779 14.8067V27.3131L18.4477 29.7546C18.4219 29.8293 18.4219 29.9289 18.4734 30.0037C18.5249 30.0784 18.6022 30.1033 18.7052 30.1033H23.161C23.2641 30.1033 23.3413 30.0784 23.3928 30.0037C23.4444 29.9289 23.4444 29.8293 23.4186 29.7546L22.3884 27.3131V17.871L29.8319 29.9788C29.8834 30.0784 29.9606 30.1033 30.0637 30.1033H35.3694C35.524 30.1033 35.627 30.0037 35.627 29.8542V15.5043L36.6572 13.0628C36.683 12.9631 36.683 12.8884 36.6315 12.8136C36.58 12.7389 36.5027 12.6891 36.3997 12.6891H31.9439C31.8408 12.6891 31.7636 12.7389 31.7121 12.8136C31.6606 12.8884 31.6606 12.9631 31.6863 13.0628L32.7166 15.5043V24.9463L25.273 12.8386Z" fill="white"/>
<path d="M45.434 30.4023C49.5808 30.4023 52.9291 28.0854 52.9291 23.8751C52.9291 19.6647 49.555 17.3727 45.434 17.3727C41.3388 17.3727 38.0163 19.6897 38.0163 23.8751C38.0163 28.0854 41.313 30.4023 45.434 30.4023ZM46.3355 20.0634C47.1339 20.9602 47.6748 22.181 47.9581 23.327C48.2157 24.473 48.3187 25.7934 48.0096 26.9394C47.8293 27.612 47.4172 28.484 46.6188 28.6584C45.8204 28.8328 45.0734 28.2598 44.5841 27.7117C43.7856 26.8148 43.2448 25.5941 42.9614 24.4481C42.7039 23.327 42.6009 21.9817 42.9099 20.8357C43.0902 20.163 43.5023 19.291 44.3008 19.1167C45.0992 18.9423 45.8461 19.5402 46.3355 20.0634Z" fill="white"/>
<path d="M67.6249 19.4156C67.6249 19.3409 67.5992 19.2661 67.5476 19.2163C66.0796 17.8461 63.9933 17.3727 61.9843 17.3727C57.8891 17.3727 54.5666 19.6897 54.5666 23.8751C54.5666 28.0854 57.8634 30.4023 61.9843 30.4023C64.1994 30.4023 66.4917 29.8044 67.9597 28.1352C68.037 28.0355 68.037 27.911 67.9597 27.8113C67.8825 27.7117 67.7279 27.6868 67.6249 27.7366C66.7492 28.2349 65.7447 28.4591 64.7402 28.4591C64.4312 28.4591 64.1478 28.4342 63.8388 28.3843C61.2374 28.0355 59.7178 26.0425 59.3315 23.6508C59.1769 22.6792 59.2284 21.5581 59.5375 20.6364C59.7436 20.0384 60.1556 19.2661 60.8511 19.1167C61.9071 18.8675 62.8858 19.9637 63.4009 20.7111C63.6585 21.1346 63.8903 21.5581 64.0706 22.0066C64.1221 22.0813 64.1736 22.1561 64.2509 22.1561C64.3539 22.181 64.4312 22.1561 64.4827 22.1062L67.5219 19.59C67.5992 19.5402 67.6249 19.4904 67.6249 19.4156Z" fill="white"/>
<path d="M76.0445 30.4023C80.1913 30.4023 83.5396 28.0854 83.5396 23.8751C83.5396 19.6647 80.1655 17.3727 76.0445 17.3727C71.9493 17.3727 68.6268 19.6897 68.6268 23.8751C68.6268 28.0854 71.9236 30.4023 76.0445 30.4023ZM76.946 20.0634C77.7445 20.9602 78.2853 22.181 78.5686 23.327C78.8262 24.473 78.9292 25.7934 78.6202 26.9394C78.4399 27.612 78.0278 28.484 77.2293 28.6584C76.4309 28.8328 75.684 28.2598 75.1946 27.7117C74.3962 26.8148 73.8553 25.5941 73.572 24.4481C73.3144 23.327 73.2114 21.9817 73.5205 20.8357C73.7007 20.163 74.1128 19.291 74.9113 19.1167C75.7097 18.9423 76.4566 19.5402 76.946 20.0634Z" fill="white"/>
<path d="M95.1526 18.6931C94.1481 17.8212 92.9118 17.4475 91.5467 17.3727C90.9286 17.3229 90.3362 17.3977 89.7438 17.5222C88.3787 17.8461 87.1682 18.5935 86.2925 19.6398C85.3137 20.8107 84.8501 22.2557 84.8501 23.7754C84.8501 26.6653 86.9364 29.4307 89.821 30.203C90.774 30.477 91.7785 30.477 92.7572 30.2528C93.6845 30.0037 94.4829 29.5054 95.1526 28.8826V29.8542C95.1526 30.0037 95.2813 30.1033 95.4101 30.1033H100.561C100.639 30.1033 100.716 30.0784 100.767 30.0037C100.819 29.9289 100.819 29.8542 100.793 29.7795L100.072 28.0106V12.9631C100.072 12.8884 100.02 12.8136 99.9689 12.7638C99.8917 12.714 99.8144 12.714 99.7371 12.714L95.3586 13.8849H95.3329L94.4314 14.1589C94.3541 14.1839 94.3026 14.2337 94.2768 14.3084C94.2253 14.3832 94.2511 14.4579 94.2768 14.5326L95.1526 15.9278V18.6931ZM94.9207 25.7685C94.7405 26.3913 94.3541 27.0639 93.6845 27.3629C93.6072 27.4127 93.5042 27.4376 93.4011 27.4625C93.2981 27.4875 93.1951 27.4875 93.0663 27.4875C92.3709 27.5124 91.727 27.0639 91.2634 26.5906C90.5937 25.8681 90.1816 24.9214 89.9756 23.9996C89.718 23.0031 89.615 21.8322 89.9756 20.8606C90.2074 20.2377 90.6452 19.7395 91.2891 19.5402C92.0103 19.3409 92.783 19.6149 93.3239 20.0634C94.1996 20.7609 94.6889 21.8073 94.9465 22.8536C95.1526 23.7754 95.2041 24.8218 94.9207 25.7685Z" fill="white"/>
<path d="M107.41 25.5193L111.763 24.1989L115.524 23.0529C115.627 23.0031 115.704 22.9034 115.704 22.7789C115.446 19.0917 113.309 17.3727 109.497 17.3727C105.401 17.3727 102.105 19.6897 102.105 23.8751C102.105 28.0854 105.401 30.4023 109.522 30.4023C111.737 30.4023 114.03 29.8044 115.498 28.1352C115.575 28.0355 115.575 27.911 115.498 27.8113C115.421 27.7117 115.266 27.6868 115.163 27.7366C114.287 28.2349 113.283 28.4591 112.278 28.4591C111.969 28.4591 111.686 28.4342 111.377 28.3843C109.728 28.1601 107.977 27.1885 107.436 25.5691C107.436 25.5442 107.436 25.5442 107.41 25.5193ZM106.921 23.7256C106.767 22.7789 106.741 21.7325 106.998 20.8357C107.179 20.1879 107.539 19.4405 108.209 19.1665C108.26 19.1416 108.338 19.1416 108.389 19.1167C109.78 18.7928 110.656 20.0883 110.965 21.2094C111.068 21.608 111.119 22.0315 111.094 22.4301L106.921 23.7256Z" fill="white"/>
<path d="M2.14634 2.07609H129.854V44.636H115.902V46.7121H132V0H0V46.7121H53.6585V44.636H2.14634V2.07609Z" fill="#1FFF35"/>
<path d="M64.4828 45.1841L64.5687 44.8519H68.1402L68.0715 45.1841H64.4828ZM70.6299 42.5931C70.7329 41.807 70.7329 41.1924 70.6299 40.7495C70.5269 40.2956 70.3151 39.9745 69.9946 39.7862C69.6741 39.5869 69.2334 39.4873 68.6725 39.4873H68.2775C67.9227 39.4873 67.6479 39.5205 67.4533 39.5869C67.2587 39.6423 67.0985 39.7696 66.9726 39.9689C66.8581 40.1572 66.7493 40.4561 66.6463 40.8658L64.3798 49.1037C64.2653 49.5023 64.2253 49.8013 64.2596 50.0006C64.2939 50.1999 64.4256 50.3328 64.6545 50.3992C64.8949 50.4656 65.2498 50.5099 65.7191 50.5321L65.6504 50.8643C65.2956 50.8421 64.8377 50.831 64.2768 50.831C63.7273 50.82 63.1664 50.8144 62.594 50.8144C62.0217 50.8144 61.4894 50.82 60.9972 50.831C60.5049 50.831 60.1043 50.8421 59.7952 50.8643L59.8811 50.5321C60.2703 50.5099 60.5736 50.4656 60.7911 50.3992C61.0086 50.3328 61.1746 50.1999 61.2891 50.0006C61.415 49.8013 61.5352 49.5023 61.6496 49.1037L63.9162 40.8658C64.0306 40.4561 64.0764 40.1572 64.0535 39.9689C64.0306 39.7696 63.9276 39.6367 63.7445 39.5703C63.5728 39.4928 63.2923 39.4485 62.9031 39.4374L62.989 39.1053C63.4583 39.1163 63.9562 39.1274 64.4828 39.1385C65.0094 39.1385 65.5302 39.144 66.0453 39.1551C66.5605 39.1551 67.0355 39.1551 67.4705 39.1551C67.917 39.1551 68.2833 39.1551 68.5694 39.1551C69.0846 39.1551 69.6626 39.1551 70.3037 39.1551C70.9562 39.144 71.54 39.1274 72.0551 39.1053C71.9063 39.5039 71.7804 39.8637 71.6773 40.1848C71.5743 40.5059 71.477 40.8215 71.3854 41.1315C71.3053 41.4194 71.2309 41.6852 71.1622 41.9288C71.105 42.1723 71.0592 42.3938 71.0249 42.5931H70.6299ZM66.3372 44.8519C66.6463 44.8519 66.9211 44.7965 67.1614 44.6858C67.4018 44.5751 67.6136 44.4256 67.7968 44.2374C67.9914 44.0381 68.1573 43.8222 68.2947 43.5896C68.4435 43.346 68.5752 43.1024 68.6896 42.8588H69.0674C68.8957 43.3682 68.7698 43.7779 68.6896 44.0879C68.6095 44.3868 68.5237 44.6969 68.4321 45.018C68.3634 45.3391 68.2833 45.6823 68.1917 46.0477C68.1116 46.4131 68.0143 46.8892 67.8998 47.4761H67.522C67.5335 47.1328 67.522 46.8228 67.4877 46.546C67.4648 46.2692 67.4018 46.0311 67.2988 45.8318C67.2072 45.6214 67.0699 45.4609 66.8867 45.3502C66.7036 45.2394 66.4574 45.1841 66.1484 45.1841L66.3372 44.8519Z" fill="#1FFF35"/>
<path d="M75.4061 42.3772C75.1428 42.3772 74.8623 42.5322 74.5647 42.8422C74.2785 43.1412 73.9923 43.5453 73.7062 44.0547C73.4314 44.564 73.1796 45.1342 72.9507 45.7654C72.7332 46.3965 72.5557 47.0498 72.4184 47.7252C72.2924 48.3896 72.2295 49.0262 72.2295 49.6352C72.2295 50.0338 72.2753 50.3217 72.3669 50.4989C72.4699 50.676 72.6187 50.7646 72.8133 50.7646C73.0766 50.7646 73.3513 50.6207 73.6375 50.3328C73.9237 50.0338 74.2041 49.6352 74.4789 49.1369C74.7536 48.6387 74.9997 48.0795 75.2172 47.4595C75.4461 46.8283 75.6293 46.1751 75.7667 45.4996C75.904 44.8242 75.9727 44.1709 75.9727 43.5398C75.9727 43.0748 75.9212 42.7647 75.8182 42.6097C75.7266 42.4547 75.5892 42.3772 75.4061 42.3772ZM69.9286 48.3563C69.9286 47.847 69.9973 47.3044 70.1347 46.7287C70.2835 46.1529 70.5067 45.5882 70.8043 45.0346C71.1019 44.481 71.4683 43.9827 71.9032 43.5398C72.3497 43.0858 72.8705 42.726 73.4658 42.4602C74.0725 42.1834 74.7479 42.045 75.4919 42.045C76.3734 42.045 77.0545 42.2775 77.5352 42.7426C78.0275 43.2076 78.2736 43.8886 78.2736 44.7855C78.2736 45.2948 78.1992 45.8373 78.0504 46.4131C77.913 46.9889 77.6955 47.5536 77.3979 48.1072C77.1003 48.6608 76.7282 49.1646 76.2818 49.6186C75.8468 50.0615 75.3259 50.4214 74.7192 50.6982C74.124 50.9639 73.4543 51.0968 72.7103 51.0968C71.8288 51.0968 71.142 50.8643 70.6498 50.3992C70.169 49.9342 69.9286 49.2532 69.9286 48.3563Z" fill="#1FFF35"/>
<path d="M81.4896 50.8643H79.0685L81.1634 43.6893C81.2435 43.3903 81.2664 43.1799 81.232 43.0582C81.2092 42.9253 81.1233 42.8588 80.9745 42.8588C80.7684 42.8588 80.5796 42.9585 80.4079 43.1578C80.2361 43.346 80.053 43.6837 79.8584 44.1709L79.5322 45.018H79.2059L79.6695 43.7557C79.8412 43.3128 80.0473 42.9696 80.2877 42.726C80.5281 42.4824 80.7971 42.3108 81.0947 42.2111C81.4038 42.1004 81.7186 42.045 82.0391 42.045C82.4054 42.045 82.6858 42.117 82.8804 42.2609C83.0751 42.3938 83.2067 42.5765 83.2754 42.809C83.3441 43.0415 83.3669 43.2962 83.344 43.573C83.3326 43.8388 83.2925 44.1045 83.2239 44.3702L81.4896 50.8643ZM85.8853 42.4104C85.6564 42.4104 85.4103 42.4768 85.147 42.6097C84.8837 42.7426 84.6147 42.9806 84.34 43.3239C84.0652 43.6671 83.7733 44.1432 83.4642 44.7522C83.1666 45.3612 82.8576 46.1418 82.537 47.0941C82.228 48.0352 81.9074 49.1757 81.5755 50.5155L81.9532 48.2733C82.3195 47.0553 82.6515 46.0477 82.9491 45.2505C83.2468 44.4533 83.5444 43.8221 83.842 43.3571C84.1511 42.881 84.4716 42.5433 84.8036 42.344C85.147 42.1447 85.5362 42.045 85.9712 42.045C86.4176 42.045 86.761 42.1724 87.0014 42.427C87.2418 42.6817 87.362 43.0028 87.362 43.3903C87.362 43.7004 87.2876 43.9882 87.1388 44.254C87.0014 44.5086 86.8068 44.719 86.555 44.8851C86.3146 45.0401 86.0399 45.1176 85.7308 45.1176C85.3988 45.1176 85.1413 45.0346 84.9581 44.8685C84.7749 44.6913 84.6834 44.4422 84.6834 44.1211C84.6834 43.8554 84.7463 43.6118 84.8722 43.3903C84.9982 43.1578 85.1699 42.9585 85.3874 42.7924C85.6049 42.6263 85.8453 42.5156 86.1085 42.4602C86.0742 42.4492 86.0399 42.4381 86.0055 42.427C85.9712 42.4159 85.9311 42.4104 85.8853 42.4104Z" fill="#1FFF35"/>
<path d="M88.8911 47.2602C89.3605 47.083 89.8069 46.8837 90.2305 46.6622C90.654 46.4408 91.0146 46.1972 91.3122 45.9315C91.7586 45.5439 92.1135 45.0955 92.3768 44.5862C92.6515 44.0657 92.7889 43.5066 92.7889 42.9087C92.7889 42.6872 92.766 42.5433 92.7202 42.4768C92.6744 42.3993 92.6057 42.3606 92.5142 42.3606C92.2623 42.3606 91.9876 42.4879 91.69 42.7426C91.4038 42.9862 91.1176 43.3184 90.8314 43.7391C90.5452 44.1488 90.282 44.6194 90.0416 45.1508C89.8126 45.6823 89.6238 46.236 89.4749 46.8117C89.3376 47.3875 89.2689 47.9467 89.2689 48.4892C89.2689 49.1093 89.3891 49.5356 89.6295 49.7681C89.8813 49.9895 90.2018 50.1003 90.591 50.1003C90.9001 50.1003 91.2836 50.0006 91.7415 49.8013C92.1994 49.602 92.6515 49.2477 93.098 48.7383L93.3727 48.8712C93.1323 49.2366 92.8175 49.5909 92.4283 49.9342C92.0391 50.2774 91.5869 50.5598 91.0718 50.7812C90.5567 50.9916 89.9958 51.0968 89.3891 51.0968C88.874 51.0968 88.4104 51.0082 87.9983 50.831C87.5976 50.6539 87.2771 50.3937 87.0367 50.0504C86.8078 49.6961 86.6933 49.2643 86.6933 48.7549C86.6933 48.1681 86.7906 47.5646 86.9852 46.9446C87.1912 46.3245 87.4774 45.7266 87.8437 45.1508C88.21 44.564 88.6507 44.0381 89.1659 43.573C89.681 43.0969 90.2534 42.726 90.8829 42.4602C91.5125 42.1834 92.1822 42.045 92.8919 42.045C93.3956 42.045 93.8191 42.1557 94.1626 42.3772C94.506 42.5876 94.6777 42.9142 94.6777 43.3571C94.6777 43.7889 94.5518 44.1931 94.2999 44.5695C94.0595 44.946 93.7333 45.2893 93.3212 45.5993C92.9091 45.9093 92.4455 46.1861 91.9304 46.4297C91.4267 46.6733 90.9058 46.8837 90.3678 47.0609C89.8412 47.238 89.3433 47.3764 88.874 47.4761L88.8911 47.2602Z" fill="#1FFF35"/>
<path d="M95.9612 50.6317C96.0528 50.676 96.1501 50.7092 96.2531 50.7314C96.3561 50.7425 96.482 50.748 96.6308 50.748C97.0544 50.748 97.3978 50.6262 97.6611 50.3826C97.9358 50.1279 98.0732 49.7736 98.0732 49.3196C98.0732 48.9543 97.9931 48.5833 97.8328 48.2069C97.6725 47.8193 97.4321 47.3986 97.1116 46.9446C96.8483 46.546 96.6022 46.1584 96.3733 45.782C96.1558 45.4055 96.047 44.9737 96.047 44.4865C96.047 44.0104 96.173 43.5896 96.4248 43.2242C96.6766 42.8588 97.0315 42.571 97.4894 42.3606C97.9587 42.1502 98.5196 42.045 99.1721 42.045C99.5957 42.045 100.002 42.0948 100.391 42.1945C100.792 42.2941 101.124 42.4658 101.387 42.7094C101.65 42.953 101.782 43.3073 101.782 43.7723C101.782 43.9384 101.742 44.1211 101.662 44.3204C101.593 44.5197 101.479 44.6858 101.318 44.8187C101.17 44.9405 100.975 45.0014 100.735 45.0014C100.448 45.0014 100.22 44.9017 100.048 44.7024C99.8761 44.492 99.7903 44.2208 99.7903 43.8886C99.7903 43.5896 99.8418 43.3239 99.9448 43.0914C100.059 42.8478 100.185 42.654 100.323 42.5101C100.174 42.4215 99.9734 42.3772 99.7216 42.3772C99.3095 42.3772 98.9832 42.499 98.7429 42.7426C98.5139 42.9862 98.3937 43.335 98.3823 43.7889C98.3823 44.0436 98.428 44.2872 98.5196 44.5197C98.6112 44.7412 98.7371 44.9682 98.8974 45.2007C99.0576 45.4332 99.2294 45.6934 99.4125 45.9813C99.7559 46.5238 100.008 46.9889 100.168 47.3764C100.34 47.764 100.426 48.157 100.426 48.5556C100.426 49.0318 100.294 49.4636 100.031 49.8511C99.7788 50.2276 99.4068 50.5321 98.9146 50.7646C98.4338 50.9861 97.8614 51.0968 97.1975 51.0968C96.7167 51.0968 96.2588 51.0359 95.8238 50.9141C95.3888 50.7923 95.034 50.593 94.7592 50.3162C94.496 50.0283 94.3643 49.6463 94.3643 49.1702C94.3643 48.8601 94.4502 48.5833 94.6219 48.3397C94.7821 48.0961 95.0168 47.9743 95.3259 47.9743C95.6349 47.9743 95.8753 48.1017 96.047 48.3563C96.2188 48.5999 96.3046 48.9044 96.3046 49.2698C96.3046 49.5577 96.2588 49.8179 96.1672 50.0504C96.0871 50.2829 96.0184 50.4767 95.9612 50.6317Z" fill="#1FFF35"/>
<path d="M108.804 42.2775L108.752 42.6097H102.794L102.88 42.2775H108.804ZM104.717 49.4525C104.637 49.7404 104.643 49.9508 104.734 50.0836C104.837 50.2165 104.986 50.2829 105.181 50.2829C105.421 50.2829 105.661 50.1667 105.902 49.9342C106.142 49.7016 106.354 49.3418 106.537 48.8546L106.795 48.1736H107.121L106.777 49.1369C106.548 49.8013 106.211 50.294 105.764 50.6151C105.329 50.9362 104.808 51.0968 104.202 51.0968C103.675 51.0968 103.269 50.9805 102.983 50.748C102.697 50.5155 102.525 50.1999 102.468 49.8013C102.422 49.3916 102.468 48.9432 102.605 48.456L105.181 39.8028C105.673 39.7918 106.119 39.7696 106.52 39.7364C106.921 39.7032 107.304 39.6478 107.67 39.5703L104.717 49.4525Z" fill="#1FFF35"/>
</svg>
