<svg width="48" height="49" viewBox="0 0 48 49" fill="none" xmlns="http://www.w3.org/2000/svg">
<rect y="0.0967712" width="48" height="48" rx="24" fill="white"/>
<path fill-rule="evenodd" clip-rule="evenodd" d="M13.9964 13.7916C14.9866 14.5961 15.3581 14.5347 17.2175 14.4107L34.7467 13.3581C35.1185 13.3581 34.8094 12.9872 34.6853 12.9256L31.7741 10.821C31.2163 10.3879 30.4731 9.89194 29.0488 10.016L12.0751 11.254C11.4561 11.3154 11.3325 11.6249 11.579 11.873L13.9964 13.7916ZM15.0489 17.8768V36.3207C15.0489 37.3119 15.5442 37.6827 16.6591 37.6214L35.9237 36.5067C37.0392 36.4454 37.1634 35.7636 37.1634 34.9584V16.6383C37.1634 15.8344 36.8541 15.4008 36.1714 15.4627L16.0396 16.6383C15.2966 16.7007 15.0489 17.0724 15.0489 17.8768ZM34.0669 18.8662C34.1904 19.4238 34.0669 19.9809 33.5082 20.0436L32.5801 20.2285V33.8449C31.7741 34.2781 31.031 34.5257 30.4117 34.5257C29.4202 34.5257 29.1719 34.216 28.4292 33.2881L22.3577 23.7566V32.9786L24.2789 33.4122C24.2789 33.4122 24.2789 34.5257 22.7289 34.5257L18.4557 34.7736C18.3315 34.5257 18.4557 33.9073 18.8891 33.7834L20.0042 33.4743V21.281L18.456 21.1569C18.3318 20.5993 18.641 19.7954 19.5089 19.733L24.0931 19.424L30.4117 29.0796V20.538L28.8007 20.3531C28.677 19.6714 29.1719 19.1765 29.7914 19.1151L34.0669 18.8662ZM10.65 9.58299L28.3053 8.2828C30.4734 8.09685 31.0312 8.22142 32.3939 9.21128L38.0297 13.1724C38.9596 13.8536 39.2696 14.039 39.2696 14.7816V36.5067C39.2696 37.8682 38.7736 38.6735 37.0395 38.7967L16.5364 40.0348C15.2346 40.0969 14.6151 39.9113 13.9334 39.0443L9.78309 33.6595C9.03949 32.6683 8.73022 31.9268 8.73022 31.0592V11.7485C8.73022 10.635 9.22638 9.70625 10.65 9.58299Z" fill="black"/>
</svg>
