<svg width="48" height="48" viewBox="0 0 48 48" fill="none" xmlns="http://www.w3.org/2000/svg">
<rect width="48" height="48" rx="24" fill="white"/>
<path fill-rule="evenodd" clip-rule="evenodd" d="M13.9964 13.6949C14.9866 14.4993 15.3581 14.438 17.2175 14.3139L34.7467 13.2613C35.1185 13.2613 34.8094 12.8904 34.6853 12.8288L31.7741 10.7242C31.2163 10.2911 30.4731 9.79517 29.0488 9.91924L12.0751 11.1572C11.4561 11.2186 11.3325 11.5281 11.579 11.7762L13.9964 13.6949ZM15.0489 17.7801V36.2239C15.0489 37.2151 15.5442 37.586 16.6591 37.5247L35.9237 36.4099C37.0392 36.3486 37.1634 35.6668 37.1634 34.8616V16.5415C37.1634 15.7376 36.8541 15.3041 36.1714 15.3659L16.0396 16.5415C15.2966 16.6039 15.0489 16.9756 15.0489 17.7801ZM34.0669 18.7694C34.1904 19.327 34.0669 19.8841 33.5082 19.9468L32.5801 20.1317V33.7482C31.7741 34.1813 31.031 34.4289 30.4117 34.4289C29.4202 34.4289 29.1719 34.1192 28.4292 33.1914L22.3577 23.6598V32.8819L24.2789 33.3154C24.2789 33.3154 24.2789 34.4289 22.7289 34.4289L18.4557 34.6768C18.3315 34.4289 18.4557 33.8105 18.8891 33.6867L20.0042 33.3776V21.1842L18.456 21.0602C18.3318 20.5026 18.641 19.6986 19.5089 19.6362L24.0931 19.3272L30.4117 28.9829V20.4412L28.8007 20.2563C28.677 19.5746 29.1719 19.0797 29.7914 19.0183L34.0669 18.7694ZM10.65 9.48622L28.3053 8.18603C30.4734 8.00008 31.0312 8.12465 32.3939 9.11451L38.0297 13.0756C38.9596 13.7568 39.2696 13.9422 39.2696 14.6848V36.4099C39.2696 37.7715 38.7736 38.5767 37.0395 38.6999L16.5364 39.938C15.2346 40.0001 14.6151 39.8146 13.9334 38.9475L9.78309 33.5628C9.03949 32.5715 8.73022 31.83 8.73022 30.9625V11.6517C8.73022 10.5383 9.22638 9.60947 10.65 9.48622Z" fill="black"/>
</svg>
