<svg width="36" height="36" viewBox="0 0 36 36" fill="none" xmlns="http://www.w3.org/2000/svg">
<rect width="36" height="36" rx="18" fill="white"/>
<g clip-path="url(#clip0_2337_5712)">
<path d="M9.32893 6.43615L17.9689 5.52L26.6089 6.43615L33.298 15.4424L17.9689 33.3462L2.63989 15.4424L9.32893 6.43615Z" fill="#FDB300"/>
<path d="M8.84892 15.4424L17.9689 33.3462L2.63989 15.4424H8.84892Z" fill="#EA6C00"/>
<path d="M27.0888 15.4424L17.9688 33.3462L33.2979 15.4424H27.0888Z" fill="#EA6C00"/>
<path d="M8.84888 15.4424H27.0889L17.9689 33.3462L8.84888 15.4424Z" fill="#FDAD00"/>
<path d="M17.9689 5.52L9.32886 6.43614L8.84888 15.4424L17.9689 5.52Z" fill="#FDD231"/>
<path d="M17.9688 5.52L26.6089 6.43614L27.0889 15.4424L17.9688 5.52Z" fill="#FDD231"/>
<path d="M33.2981 15.4424L26.609 6.43614L27.0891 15.4424H33.2981Z" fill="#FDAD00"/>
<path d="M2.63989 15.4424L9.3289 6.43614L8.84892 15.4424H2.63989Z" fill="#FDAD00"/>
<path d="M17.9689 5.52L8.84888 15.4424H27.0889L17.9689 5.52Z" fill="#FEEEB7"/>
</g>
<defs>
<clipPath id="clip0_2337_5712">
<rect width="30.72" height="27.84" fill="white" transform="translate(2.63989 5.52)"/>
</clipPath>
</defs>
</svg>
