<svg width="20" height="21" viewBox="0 0 20 21" fill="none" xmlns="http://www.w3.org/2000/svg">
<path d="M17.5 6.5551H2.5C2.15833 6.5551 1.875 6.27177 1.875 5.9301C1.875 5.58843 2.15833 5.3051 2.5 5.3051H17.5C17.8417 5.3051 18.125 5.58843 18.125 5.9301C18.125 6.27177 17.8417 6.5551 17.5 6.5551Z" fill="white"/>
<path d="M15 10.7218H5C4.65833 10.7218 4.375 10.4384 4.375 10.0968C4.375 9.7551 4.65833 9.47177 5 9.47177H15C15.3417 9.47177 15.625 9.7551 15.625 10.0968C15.625 10.4384 15.3417 10.7218 15 10.7218Z" fill="white"/>
<path d="M11.6654 14.8884H8.33203C7.99036 14.8884 7.70703 14.6051 7.70703 14.2634C7.70703 13.9218 7.99036 13.6384 8.33203 13.6384H11.6654C12.007 13.6384 12.2904 13.9218 12.2904 14.2634C12.2904 14.6051 12.007 14.8884 11.6654 14.8884Z" fill="white"/>
</svg>
