<svg width="22" height="22" viewBox="0 0 22 22" fill="none" xmlns="http://www.w3.org/2000/svg">
<path fill-rule="evenodd" clip-rule="evenodd" d="M11.0003 0.257812C5.2133 0.257812 0.478516 4.99259 0.478516 10.7795C0.478516 16.5665 5.2133 21.3013 11.0003 21.3013C16.7872 21.3013 21.522 16.5665 21.522 10.7795C21.522 4.99259 16.7872 0.257812 11.0003 0.257812ZM18.1681 11.3056C18.1681 12.4236 18.0366 13.5415 18.0366 13.5415C18.0366 13.5415 17.9051 14.4621 17.4448 14.9225C17.0185 15.3488 16.5058 15.4297 16.1867 15.48C16.112 15.4917 16.048 15.5019 15.9981 15.5143C13.9594 15.6458 11.0003 15.6458 11.0003 15.6458C11.0003 15.6458 7.25189 15.6458 6.13395 15.5143C6.0756 15.5026 6.00483 15.4931 5.92493 15.4823C5.55462 15.432 4.98842 15.3552 4.55569 14.9225C4.09536 14.5279 3.96384 13.5415 3.96384 13.5415C3.96384 13.5415 3.83232 12.4236 3.83232 11.3056V10.2534C3.83232 9.13553 3.96384 8.01759 3.96384 8.01759C3.96384 8.01759 4.09536 7.09694 4.55569 6.63662C4.99579 6.19651 5.48192 6.12458 5.82157 6.07433C5.88792 6.06451 5.94869 6.05552 6.00243 6.04477C7.97526 5.91325 11.0003 5.91325 11.0003 5.91325C11.0003 5.91325 14.0253 5.91325 15.9981 6.04477C16.2611 6.04477 16.9187 6.11053 17.4448 6.63662C17.9051 7.03118 18.0366 8.01759 18.0366 8.01759C18.0366 8.01759 18.1681 9.13553 18.1681 10.2534V11.3056ZM13.3676 10.648L9.48775 12.5551V8.6752L13.3676 10.648Z" fill="#7C7C7D"/>
</svg>
