<svg width="16" height="17" viewBox="0 0 16 17" fill="none" xmlns="http://www.w3.org/2000/svg">
<path d="M0 4H16M6.5 7V14M9.5 7V14M4.84713 16H11.1529C11.6417 16 12.0589 15.6466 12.1393 15.1644L13.8059 5.1644C13.9075 4.55487 13.4375 4 12.8195 4H3.18046C2.56252 4 2.09248 4.55487 2.19407 5.1644L3.86073 15.1644C3.9411 15.6466 4.35829 16 4.84713 16ZM5 4C5 3.60603 5.0776 3.21593 5.22836 2.85195C5.37913 2.48797 5.6001 2.15726 5.87868 1.87868C6.15726 1.6001 6.48797 1.37913 6.85195 1.22836C7.21593 1.0776 7.60603 1 8 1C8.39397 1 8.78407 1.0776 9.14805 1.22836C9.51203 1.37913 9.84275 1.6001 10.1213 1.87868C10.3999 2.15726 10.6209 2.48797 10.7716 2.85195C10.9224 3.21593 11 3.60603 11 4L5 4Z" stroke="#BAB9BD" stroke-width="2"/>
</svg>
