<svg width="22" height="22" viewBox="0 0 22 22" fill="none" xmlns="http://www.w3.org/2000/svg">
<path fill-rule="evenodd" clip-rule="evenodd" d="M11.0003 0.257812C5.2133 0.257812 0.478516 4.99259 0.478516 10.7795C0.478516 16.5665 5.2133 21.3013 11.0003 21.3013C16.7872 21.3013 21.522 16.5665 21.522 10.7795C21.522 4.99259 16.7872 0.257812 11.0003 0.257812ZM16.9187 14.3964C16.9187 15.6458 15.8666 16.698 14.6171 16.698H7.38341C6.13395 16.698 5.08178 15.6458 5.08178 14.3964V7.1627C5.08178 5.91325 6.13395 4.86107 7.38341 4.86107H14.6171C15.8666 4.86107 16.9187 5.91325 16.9187 7.1627V14.3964ZM15.3405 6.17629H15.6035V8.14912H13.6307V6.17629H15.3405ZM12.9731 10.7795C12.9731 11.8317 12.1181 12.7523 11.0003 12.7523C9.88232 12.7523 9.02743 11.8975 9.02743 10.7795C9.02743 10.3192 9.35623 8.80672 11.0003 8.80672C12.6443 8.80672 12.9731 10.3192 12.9731 10.7795ZM15.5377 9.46433H13.9595C14.091 9.85887 14.2225 10.385 14.2225 10.7795C14.2225 12.5551 12.7758 14.0019 11.0003 14.0019C9.22471 14.0019 7.77797 12.5551 7.77797 10.7795C7.77797 10.3192 7.84373 9.85887 8.04102 9.46433H6.33123V14.2649C6.33123 14.9225 6.85732 15.3828 7.44917 15.3828H14.4198C15.0774 15.3828 15.5377 14.8567 15.5377 14.2649V9.46433Z" fill="#7C7C7D"/>
</svg>
