<svg width="22" height="22" viewBox="0 0 22 22" fill="none" xmlns="http://www.w3.org/2000/svg">
<path fill-rule="evenodd" clip-rule="evenodd" d="M11.0003 0.257812C5.2133 0.257812 0.478516 4.99259 0.478516 10.7795C0.478516 16.5665 5.2133 21.3013 11.0003 21.3013C16.7872 21.3013 21.522 16.5665 21.522 10.7795C21.522 4.99259 16.7872 0.257812 11.0003 0.257812ZM15.6473 8.49988V8.76293C15.6473 11.8318 13.3676 15.339 9.07129 15.339C7.75607 15.339 6.52853 14.9883 5.56405 14.2868C6.79158 14.4622 8.01911 14.1115 8.9836 13.3223C7.93143 13.3223 7.1423 12.6209 6.79158 11.7441C7.1423 11.8318 7.49302 11.8318 7.84375 11.7441C6.79158 11.5687 6.00245 10.6042 6.00245 9.46437C6.35318 9.63973 6.70389 9.72744 7.05462 9.72744C6.44085 9.28901 6.00245 8.58756 6.00245 7.79843C6.00245 7.36002 6.09012 7.0093 6.35318 6.65858C7.49302 8.06147 9.15897 8.93828 11.088 9.11364C11.0003 8.8506 11.0003 8.67524 11.0003 8.49988C11.0003 7.18466 12.0524 6.22017 13.28 6.22017C13.9814 6.22017 14.5075 6.48321 14.9459 6.92162C15.472 6.83394 16.6995 6.65858 16.6995 6.65858C16.3488 7.18466 16.0858 8.14915 15.6473 8.49988Z" fill="#7C7C7D"/>
</svg>
