<svg width="48" height="48" viewBox="0 0 48 48" fill="none" xmlns="http://www.w3.org/2000/svg">
<rect width="48" height="48" rx="24" fill="#4353FF"/>
<path d="M32.8506 19.3217C32.8506 19.3217 30.2041 27.6217 29.9878 28.3072C29.3214 23.1053 28.6486 17.9042 27.9696 12.7039C23.4598 12.7039 21.0485 15.9135 19.7742 19.3013L16.2858 28.3276C16.2654 27.6802 15.7962 19.3992 15.7962 19.3992C15.5188 15.2485 11.7162 12.7216 8.63989 12.7216L12.3649 35.2976C17.0896 35.2772 19.6369 32.0866 20.971 28.6989C20.971 28.6989 23.8134 21.3576 23.9304 21.0244C23.9508 21.3372 25.9704 35.2962 25.9704 35.2962C30.7141 35.2962 33.2627 32.3015 34.6336 29.0321L41.2799 12.7229C36.5947 12.7229 34.1249 15.9135 32.8506 19.3203V19.3217Z" fill="white"/>
</svg>
