<svg width="36" height="36" viewBox="0 0 36 36" fill="none" xmlns="http://www.w3.org/2000/svg">
<rect width="36" height="36" rx="18" fill="white"/>
<path fill-rule="evenodd" clip-rule="evenodd" d="M4.08008 12.4926C4.08008 12.4926 5.17643 12.3523 5.90732 13.0091C6.35825 13.4145 6.48961 14.0603 6.48961 14.0603L7.98238 19.9556L9.22342 15.13C9.34458 14.617 9.56221 13.983 9.90687 13.554C10.3464 13.008 11.2393 12.9737 11.3346 12.9737C11.4294 12.9737 12.3223 13.008 12.7615 13.554C13.1065 13.983 13.3241 14.617 13.4453 15.13L14.6863 19.9556L16.1787 14.0599C16.1787 14.0599 16.3105 13.4141 16.7614 13.0087C17.4923 12.3523 18.5882 12.4926 18.5882 12.4926L15.7301 23.5109C15.7301 23.5109 14.7875 23.5803 14.3158 23.335C13.6962 23.0133 13.4014 22.7645 13.0261 21.2655L12.9873 21.1097C12.8505 20.5581 12.6411 19.6942 12.4289 18.8177L12.3654 18.5547L12.3019 18.2929C11.9964 17.032 11.7149 15.8709 11.6698 15.7234C11.6275 15.585 11.5773 15.2554 11.3346 15.2554C11.0965 15.2554 11.042 15.5854 10.9985 15.7234C10.9475 15.8858 10.6103 17.2828 10.2708 18.686L10.2072 18.949C10.0337 19.6697 9.85844 20.3899 9.68141 21.1097L9.6422 21.2655C9.26734 22.7645 8.97247 23.0133 8.35293 23.335C7.88083 23.5803 6.93819 23.5109 6.93819 23.5109L4.08008 12.4926ZM21.3323 14.4514V14.8437L21.333 14.8434V21.3995C21.3275 22.7452 21.1868 23.0437 20.5751 23.3536C20.0994 23.5941 19.3725 23.503 19.3725 23.503V16.1595C19.3725 15.7908 19.496 15.5491 19.9516 15.3323C20.2234 15.2025 20.4771 15.1036 20.7406 14.9565C21.1527 14.7286 21.3323 14.4514 21.3323 14.4514ZM22.1173 12.5293C22.1173 12.5293 23.6375 12.2639 24.3903 12.9658C24.8719 13.4153 25.4106 14.2235 25.4106 14.2235L26.736 16.1812C26.8003 16.2829 26.8842 16.3941 27.0183 16.3941C27.1528 16.3941 27.2371 16.2829 27.3014 16.1812L28.6267 14.2235C28.6267 14.2235 29.1655 13.4153 29.647 12.9658C30.3999 12.2639 31.9201 12.5293 31.9201 12.5293L28.3181 18.0189L31.9103 23.492L31.8977 23.4936C31.7487 23.5113 30.3152 23.6603 29.6019 22.9944C29.12 22.5457 28.6267 21.8147 28.6267 21.8147L27.3014 19.8575C27.2371 19.7549 27.1528 19.6445 27.0187 19.6445C26.8842 19.6445 26.8003 19.7549 26.736 19.8575L25.4106 21.8147C25.4106 21.8147 24.944 22.5457 24.4625 22.9944C23.7096 23.6974 22.1267 23.492 22.1267 23.492L25.7188 18.0193L22.1173 12.5293ZM21.3174 12.48H21.333C21.333 13.2331 21.2601 13.6794 20.7892 14.0268C20.5693 14.1893 20.3284 14.3209 20.0732 14.4179C19.6544 14.5713 19.3725 14.8457 19.3725 14.8457C19.3725 13.4752 19.5803 12.9792 20.1371 12.685C20.4763 12.5068 21.028 12.4824 21.2428 12.48H21.3174Z" fill="black"/>
</svg>
