<svg width="48" height="48" viewBox="0 0 48 48" fill="none" xmlns="http://www.w3.org/2000/svg">
<rect width="48" height="48" rx="24" fill="white"/>
<path d="M3.17538 24C3.17538 32.2523 7.97539 39.36 14.9169 42.7385L4.98461 15.5262C3.79195 18.192 3.17544 21.0795 3.17538 24ZM24 44.8246C26.4185 44.8246 28.7446 44.4 30.9231 43.6431L30.7754 43.3662L24.3692 25.8277L18.1292 43.9754C19.9754 44.5292 21.9508 44.8246 24 44.8246ZM26.8615 14.2338L34.3938 36.6277L36.48 29.6862C37.3662 26.8062 38.0492 24.7385 38.0492 22.9477C38.0492 20.3631 37.1262 18.5908 36.3508 17.2246C35.28 15.4892 34.3015 14.0308 34.3015 12.3323C34.3015 10.4123 35.7415 8.64 37.8092 8.64H38.0677C34.2305 5.11738 29.2089 3.16671 24 3.17538C20.5511 3.17474 17.156 4.03149 14.1204 5.66856C11.0846 7.30565 8.50354 9.67166 6.60922 12.5538L7.93848 12.5908C10.1169 12.5908 13.4769 12.3138 13.4769 12.3138C14.6215 12.2585 14.7508 13.9015 13.6246 14.0308C13.6246 14.0308 12.4985 14.1785 11.2246 14.2338L18.8308 36.7938L23.3908 23.1323L20.1415 14.2338C19.4137 14.1937 18.6873 14.1321 17.9631 14.0492C16.8369 13.9754 16.9662 12.2585 18.0923 12.3138C18.0923 12.3138 21.5262 12.5908 23.5754 12.5908C25.7538 12.5908 29.1138 12.3138 29.1138 12.3138C30.24 12.2585 30.3877 13.9015 29.2615 14.0308C29.2615 14.0308 28.1354 14.16 26.8615 14.2338ZM34.4677 42C37.618 40.1682 40.2325 37.5418 42.05 34.3831C43.8674 31.2245 44.8242 27.6442 44.8246 24C44.8246 20.3815 43.9015 16.9846 42.2769 14.0123C42.6069 17.2824 42.1117 20.583 40.8369 23.6123L34.4677 42ZM24 48C17.6348 48 11.5303 45.4715 7.02946 40.9705C2.52856 36.4697 0 30.3652 0 24C0 17.6348 2.52856 11.5303 7.02946 7.02946C11.5303 2.52856 17.6348 0 24 0C30.3652 0 36.4697 2.52856 40.9705 7.02946C45.4715 11.5303 48 17.6348 48 24C48 30.3652 45.4715 36.4697 40.9705 40.9705C36.4697 45.4715 30.3652 48 24 48Z" fill="#126FC2"/>
</svg>
